<svg xmlns="http://www.w3.org/2000/svg" viewBox="0 0 180 180" fill="none" shape-rendering="auto" aria-hidden="true"><metadata xmlns:rdf="http://www.w3.org/1999/02/22-rdf-syntax-ns#" xmlns:xsi="http://www.w3.org/2001/XMLSchema-instance" xmlns:dc="http://purl.org/dc/elements/1.1/" xmlns:dcterms="http://purl.org/dc/terms/"><rdf:RDF><rdf:Description><dc:title>Bottts</dc:title><dc:creator>Pablo Stanley</dc:creator><dc:source xsi:type="dcterms:URI">https://bottts.com/</dc:source><dcterms:license xsi:type="dcterms:URI">https://bottts.com/</dcterms:license><dc:rights>Remix of “Bottts” (https://bottts.com/) by “Pablo Stanley”, licensed under “Free for personal and commercial use” (https://bottts.com/)</dc:rights></rdf:Description></rdf:RDF></metadata><defs><g id="sides-round-54e96069"><mask id="sidesRound-a" style="mask-type:luminance"><ellipse cx="144" cy="38.5" rx="18" ry="22.5" fill="white"/><ellipse cx="18" cy="22.5" rx="18" ry="22.5" transform="matrix(-1 0 0 1 42 16)" fill="white"/></mask><g mask="url(#sidesRound-a)"><path d="M-6 0h180v76H-6z" fill="#15a876"/><path d="M-6 0h180v76H-6z" fill="white" fill-opacity=".3"/><rect x="14" width="140" height="76" fill="black" fill-opacity=".2"/></g></g><g id="top-pyramid-54e96069"><mask id="topPyramid-a" style="mask-type:luminance"><path fill-rule="evenodd" clip-rule="evenodd" d="m42 8.6 32 44H10z" fill="white"/></mask><g mask="url(#topPyramid-a)"><path d="M-8 .6H92v52H-8z" fill="#15a876"/><path d="M-8 .6H92v52H-8z" fill="white" fill-opacity=".3"/><rect x="42" y="4.59" width="30" height="48" fill="white" fill-opacity=".8"/></g></g><g id="head-square03-54e96069"><mask id="headSquare03-a" style="mask-type:luminance"><path fill-rule="evenodd" clip-rule="evenodd" d="M0 18A18 18 0 0 1 18 0h94a18 18 0 0 1 18 18v27.15a40 40 0 0 1-2.28 13.31L110.24 108a18 18 0 0 1-16.98 12H36.74a18 18 0 0 1-16.98-12L2.28 58.45A40 40 0 0 1 0 45.15z" fill="white"/></mask><g mask="url(#headSquare03-a)"><path d="M-2-2h134v124H-2z" fill="#15a876"/></g></g><g id="mouth-diagram-54e96069"><rect width="68" height="24" rx="5" fill="black" fill-opacity=".2"/><rect x="4" y="4" width="60" height="16" rx="2" fill="black" fill-opacity=".8"/><path d="M5 13h11l2-4 3 7 4-8 2 9 3-11 3 10 3-3h15l3-4 2 7 3-3h4" stroke="#4EFAC9" stroke-width="2" stroke-linecap="round" stroke-linejoin="round"/></g><g id="eyes-roundFrame01-54e96069"><rect y="12" width="104" height="32" rx="16" fill="black" fill-opacity=".8"/><rect x="24" y="22" width="10" height="12" rx="2" fill="#F4F4F4"/><rect x="70" y="22" width="10" height="12" rx="2" fill="#F4F4F4"/></g><clipPath id="clip-54e96069"><rect width="180" height="180" rx="0" ry="0"/></clipPath></defs><g clip-path="url(#clip-54e96069)"><use transform="translate(6 66)" href="#sides-round-54e96069"/><use transform="translate(49 -.6)" href="#top-pyramid-54e96069"/><use transform="translate(25 44)" href="#head-square03-54e96069"/><use transform="translate(56 128)" href="#mouth-diagram-54e96069"/><use transform="translate(38 76)" href="#eyes-roundFrame01-54e96069"/></g></svg>