<svg xmlns="http://www.w3.org/2000/svg" viewBox="0 0 100 100" fill="none" shape-rendering="auto" aria-hidden="true"><metadata xmlns:rdf="http://www.w3.org/1999/02/22-rdf-syntax-ns#" xmlns:xsi="http://www.w3.org/2001/XMLSchema-instance" xmlns:dc="http://purl.org/dc/elements/1.1/" xmlns:dcterms="http://purl.org/dc/terms/"><rdf:RDF><rdf:Description><dc:title>Shapes</dc:title><dc:creator>DiceBear</dc:creator><dc:source xsi:type="dcterms:URI">https://www.dicebear.com</dc:source><dcterms:license xsi:type="dcterms:URI">https://creativecommons.org/publicdomain/zero/1.0/</dcterms:license><dc:rights>“Shapes” (https://www.dicebear.com) by “DiceBear”, licensed under “CC0 1.0” (https://creativecommons.org/publicdomain/zero/1.0/)</dc:rights></rdf:Description></rdf:RDF></metadata><defs><g id="shape01-rectangleFilled-fcb4a149"><path d="M0 150h100v100H0z" fill="#1c799f"/></g><g id="shape02-polygonFilled-fcb4a149"><path d="m50 157 50 86.6H0z" fill="#0a5b83"/></g><g id="shape03-polygon-fcb4a149"><path fill-rule="evenodd" clip-rule="evenodd" d="M50 157 0 243.6h100zm0 20-32.7 56.6h65.4z" fill="#f1f4dc"/></g><clipPath id="clip-fcb4a149"><rect width="100" height="100" rx="0" ry="0"/></clipPath></defs><g clip-path="url(#clip-fcb4a149)"><rect width="100" height="100" fill="#69d2e7"/><use transform="matrix(1.2 0 0 1.2 -10 -190) translate(-43.4274, 57.7272) rotate(144.2082, 50, 200) translate(50, 200) scale(0.9675) translate(-50, -200)" href="#shape01-rectangleFilled-fcb4a149"/><use transform="matrix(.8 0 0 .8 10 -110) translate(38.7963, 24.9652) rotate(103.6665, 50, 200) translate(50, 200) scale(0.9384) translate(-50, -200)" href="#shape02-polygonFilled-fcb4a149"/><use transform="matrix(.4 0 0 .4 30 -30) translate(18.22, 5.7996) rotate(39.2868, 50, 200) translate(50, 200) scale(1.056) translate(-50, -200)" href="#shape03-polygon-fcb4a149"/></g></svg>