<svg xmlns="http://www.w3.org/2000/svg" viewBox="0 0 100 100" fill="none" shape-rendering="auto" aria-hidden="true"><metadata xmlns:rdf="http://www.w3.org/1999/02/22-rdf-syntax-ns#" xmlns:xsi="http://www.w3.org/2001/XMLSchema-instance" xmlns:dc="http://purl.org/dc/elements/1.1/" xmlns:dcterms="http://purl.org/dc/terms/"><rdf:RDF><rdf:Description><dc:title>Shapes</dc:title><dc:creator>DiceBear</dc:creator><dc:source xsi:type="dcterms:URI">https://www.dicebear.com</dc:source><dcterms:license xsi:type="dcterms:URI">https://creativecommons.org/publicdomain/zero/1.0/</dcterms:license><dc:rights>“Shapes” (https://www.dicebear.com) by “DiceBear”, licensed under “CC0 1.0” (https://creativecommons.org/publicdomain/zero/1.0/)</dc:rights></rdf:Description></rdf:RDF></metadata><defs><g id="shape01-polygonFilled-fab49e23"><path d="m50 157 50 86.6H0z" fill="#f1f4dc"/></g><g id="shape02-polygonFilled-fab49e23"><path d="m50 157 50 86.6H0z" fill="#1c799f"/></g><g id="shape03-rectangleFilled-fab49e23"><path d="M0 150h100v100H0z" fill="#69d2e7"/></g><clipPath id="clip-fab49e23"><rect width="100" height="100" rx="0" ry="0"/></clipPath></defs><g clip-path="url(#clip-fab49e23)"><rect width="100" height="100" fill="#0a5b83"/><use transform="matrix(1.2 0 0 1.2 -10 -190) translate(-45.9725, 69.482) rotate(100.8962, 50, 200) translate(50, 200) scale(1.0004) translate(-50, -200)" href="#shape01-polygonFilled-fab49e23"/><use transform="matrix(.8 0 0 .8 10 -110) translate(54.1905, 50.9432) rotate(-123.2004, 50, 200) translate(50, 200) scale(1.0532) translate(-50, -200)" href="#shape02-polygonFilled-fab49e23"/><use transform="matrix(.4 0 0 .4 30 -30) translate(26.2697, 21.5012) rotate(66.3759, 50, 200) translate(50, 200) scale(0.9029) translate(-50, -200)" href="#shape03-rectangleFilled-fab49e23"/></g></svg>