<svg xmlns="http://www.w3.org/2000/svg" viewBox="0 0 200 200" fill="none" shape-rendering="auto" aria-hidden="true"><metadata xmlns:rdf="http://www.w3.org/1999/02/22-rdf-syntax-ns#" xmlns:xsi="http://www.w3.org/2001/XMLSchema-instance" xmlns:dc="http://purl.org/dc/elements/1.1/" xmlns:dcterms="http://purl.org/dc/terms/"><rdf:RDF><rdf:Description><dc:title>Fun Emoji Set</dc:title><dc:creator>Davis Uche</dc:creator><dc:source xsi:type="dcterms:URI">https://www.figma.com/community/file/968125295144990435</dc:source><dcterms:license xsi:type="dcterms:URI">https://creativecommons.org/licenses/by/4.0/</dcterms:license><dc:rights>Remix of “Fun Emoji Set” (https://www.figma.com/community/file/968125295144990435) by “Davis Uche”, licensed under “CC BY 4.0” (https://creativecommons.org/licenses/by/4.0/)</dc:rights></rdf:Description></rdf:RDF></metadata><defs><g id="mouth-shout-f124c880"><path fill-rule="evenodd" clip-rule="evenodd" d="M31.03 57.3c0-48 70-48 70 0z" fill="#2B1607"/><path fill-rule="evenodd" clip-rule="evenodd" d="M42.12 31.99c11.86-13.39 34.95-13.28 48 0z" fill="white"/><path d="M32.02 50.05h67.96q.48 3.49.44 7h-69q0-3.54.6-7" fill="white"/><path d="M100.97 58.25H31.03A1.03 1.03 0 0 1 30 57.22c0-25.36 18.66-36.97 36-36.97 17.36 0 36 11.61 36 36.93a1 1 0 0 1-.28.76 1 1 0 0 1-.75.31m-68.9-2.06h67.8c-.22-10.33-3.87-19-10.58-25.13a34.4 34.4 0 0 0-23.34-8.7c-16.06.01-33.37 10.6-33.88 33.83" fill="black"/></g><g id="eyes-stars-f124c880"><path fill-rule="evenodd" clip-rule="evenodd" d="M30.54 24.58 32.36 23l10.06 14.43 17.5-1.54-7.85 15.71 9.31 14.07-1.8 1.59-17.32-2.23L29 76.57l-2.94-17.73L11 49.8l1.82-1.58 13.77-6.52z" fill="#2B8DD6"/><path fill-rule="evenodd" clip-rule="evenodd" d="m32.35 23 12.52 12.32 17.5-1.54-7.85 15.73 6.86 16.16-17.36-2.6-13.26 11.52-2.88-17.34-15.06-9.03 15.6-8.1z" fill="#70CDF2"/><path opacity=".4" fill-rule="evenodd" clip-rule="evenodd" d="m33.51 26.1 10.37 11.03 14.7-1.84-16.97 4.48-8.9-9.8z" fill="white"/><path fill-rule="evenodd" clip-rule="evenodd" d="m106.42 24.58-1.8-1.58-10.08 14.43-17.5-1.54L84.9 51.6l-9.31 14.07 1.82 1.59 17.32-2.23 13.24 11.54 2.94-17.73 15.06-9.04-1.8-1.58-13.8-6.52z" fill="#2B8DD6"/><path fill-rule="evenodd" clip-rule="evenodd" d="M104.62 23 92.11 35.32 74.6 33.78l7.86 15.73-6.88 16.16 17.38-2.6 13.24 11.52 2.9-17.34 15.06-9.03-15.6-8.1z" fill="#70CDF2"/><path opacity=".4" fill-rule="evenodd" clip-rule="evenodd" d="M103.45 26.1 93.08 37.13l-14.7-1.84 16.99 4.48 8.88-9.8z" fill="white"/></g><clipPath id="clip-f124c880"><rect width="200" height="200" rx="0" ry="0"/></clipPath></defs><g clip-path="url(#clip-f124c880)"><rect width="200" height="200" fill="#059ff2"/><use transform="translate(-1.06 79.3)scale(1.5625)" href="#mouth-shout-f124c880"/><use transform="matrix(1.55291 0 0 1.56067 -5.27 8.75)" href="#eyes-stars-f124c880"/></g></svg>