<svg xmlns="http://www.w3.org/2000/svg" viewBox="0 0 180 180" fill="none" shape-rendering="auto" aria-hidden="true"><metadata xmlns:rdf="http://www.w3.org/1999/02/22-rdf-syntax-ns#" xmlns:xsi="http://www.w3.org/2001/XMLSchema-instance" xmlns:dc="http://purl.org/dc/elements/1.1/" xmlns:dcterms="http://purl.org/dc/terms/"><rdf:RDF><rdf:Description><dc:title>Bottts</dc:title><dc:creator>Pablo Stanley</dc:creator><dc:source xsi:type="dcterms:URI">https://bottts.com/</dc:source><dcterms:license xsi:type="dcterms:URI">https://bottts.com/</dcterms:license><dc:rights>Remix of “Bottts” (https://bottts.com/) by “Pablo Stanley”, licensed under “Free for personal and commercial use” (https://bottts.com/)</dc:rights></rdf:Description></rdf:RDF></metadata><defs><g id="sides-squareAssymetric-f224ca13"><mask id="sidesSquareAssymetric-a" style="mask-type:luminance"><rect x="4" y="31" width="36" height="30" rx="4" fill="white"/><rect x="14" y="15" width="26" height="30" rx="4" fill="white"/><rect x="133" y="23" width="36" height="30" rx="4" fill="white"/><rect x="128" y="8" width="36" height="60" rx="4" fill="white"/></mask><g mask="url(#sidesSquareAssymetric-a)"><path d="M-6 0h180v76H-6z" fill="#15a2a9"/><path d="M-6 0h180v76H-6z" fill="white" fill-opacity=".3"/><rect x="-6" y="47" width="180" height="29" fill="black" fill-opacity=".1"/><circle cx="155" cy="20" r="5" fill="white" fill-opacity=".6"/><circle cx="155" cy="36" r="5" fill="white" fill-opacity=".6"/></g></g><g id="top-antenna-f224ca13"><mask id="topAntenna-a" style="mask-type:luminance"><path d="M30 38.6a2 2 0 0 1 2-2h20a2 2 0 0 1 2 2v14H30z" fill="white"/><rect x="40" y="5.59" width="4" height="31" fill="white"/></mask><g mask="url(#topAntenna-a)"><path d="M-8 .6H92v52H-8z" fill="#15a2a9"/><path d="M-8 3.6H92v52H-8z" fill="white" fill-opacity=".3"/><rect x="30" y="36.59" width="24" height="16" fill="white" fill-opacity=".2"/></g><circle cx="42" cy="8.59" r="8" fill="#FFE65C"/><circle cx="45" cy="5.59" r="3" fill="white"/></g><g id="texture-circuits-f224ca13"><path d="M66 36h49.42a5 5 0 1 1 0 4H62V6h4zm-8-12h-4V6h4z" fill="black" fill-opacity=".1"/><path d="M163 31a5 5 0 0 1 2 9.58V66h19v4h-23V40.58a5 5 0 0 1 2-9.58" fill="white" fill-opacity=".2"/><path d="M157 74h27v4h-31V52h4zm-85 26a5 5 0 0 0-2 9.58V135H51v4h23v-29.42a5 5 0 0 0-2-9.58" fill="black" fill-opacity=".2"/></g><g id="head-square01-f224ca13"><mask id="headSquare01-a" style="mask-type:luminance"><rect width="130" height="120" rx="18" fill="white"/></mask><g mask="url(#headSquare01-a)"><path d="M-2-2h134v124H-2z" fill="#15a2a9"/><use transform="translate(-44 -7)" href="#texture-circuits-f224ca13"/></g></g><g id="mouth-smile01-f224ca13"><path d="M23.05 4.44a2 2 0 1 1 3.9-.88C27.72 6.96 30.4 9 34 9s6.28-2.04 7.05-5.44a2 2 0 1 1 3.9.88C43.75 9.7 39.43 13 34 13s-9.76-3.3-10.95-8.56" fill="black" fill-opacity=".6"/></g><g id="eyes-roundFrame02-f224ca13"><rect y="11" width="104" height="34" rx="17" fill="black" fill-opacity=".8"/><circle cx="29" cy="28" r="13" fill="#F1EEDA"/><circle cx="75" cy="28" r="13" fill="#F1EEDA"/><rect x="24" y="23" width="10" height="10" rx="2" fill="black" fill-opacity=".8"/><rect x="70" y="23" width="10" height="10" rx="2" fill="black" fill-opacity=".8"/></g><clipPath id="clip-f224ca13"><rect width="180" height="180" rx="0" ry="0"/></clipPath></defs><g clip-path="url(#clip-f224ca13)"><use transform="translate(6 66)" href="#sides-squareAssymetric-f224ca13"/><use transform="translate(49 -.6)" href="#top-antenna-f224ca13"/><use transform="translate(25 44)" href="#head-square01-f224ca13"/><use transform="translate(56 128)" href="#mouth-smile01-f224ca13"/><use transform="translate(38 76)" href="#eyes-roundFrame02-f224ca13"/></g></svg>