<svg xmlns="http://www.w3.org/2000/svg" viewBox="0 0 100 100" fill="none" shape-rendering="auto" aria-hidden="true"><metadata xmlns:rdf="http://www.w3.org/1999/02/22-rdf-syntax-ns#" xmlns:xsi="http://www.w3.org/2001/XMLSchema-instance" xmlns:dc="http://purl.org/dc/elements/1.1/" xmlns:dcterms="http://purl.org/dc/terms/"><rdf:RDF><rdf:Description><dc:title>Rings</dc:title><dc:creator>DiceBear</dc:creator><dc:source xsi:type="dcterms:URI">https://www.dicebear.com</dc:source><dcterms:license xsi:type="dcterms:URI">https://creativecommons.org/publicdomain/zero/1.0/</dcterms:license><dc:rights>“Rings” (https://www.dicebear.com) by “DiceBear”, licensed under “CC0 1.0” (https://creativecommons.org/publicdomain/zero/1.0/)</dc:rights></rdf:Description></rdf:RDF></metadata><defs><g id="ring01-eighth-872213e7"><path d="M21.716 21.716C14.476 28.954 10 38.955 10 50H0c0-13.807 5.596-26.307 14.645-35.355z" fill="#f290a3"/></g><g id="ring02-quarter-872213e7"><path d="M40 10c-16.568 0-30 13.432-30 30H0C0 17.909 17.909 0 40 0z" fill="#f290a3"/></g><g id="ring03-half-872213e7"><path d="M30 0c16.569 0 30 13.432 30 30H50c0-11.046-8.954-20-20-20s-20 8.954-20 20H0C0 13.432 13.432 0 30 0" fill="#f290a3"/></g><g id="ring04-quarter-872213e7"><path d="M20 10c-5.523 0-10 4.477-10 10H0C0 8.954 8.954 0 20 0z" fill="#f290a3"/></g><g id="ring05-half-872213e7"><path d="M10 0c5.523 0 10 4.477 10 10H0C0 4.477 4.477 0 10 0" fill="#f290a3"/></g><g id="ring-container-872213e7"><use transform="rotate(3.2903, 50, 50)" href="#ring01-eighth-872213e7"/><use transform="translate(10 10) rotate(-87.281, 40, 40)" href="#ring02-quarter-872213e7"/><use transform="translate(20 20) rotate(-1.9854, 30, 30)" href="#ring03-half-872213e7"/><use transform="translate(30 30) rotate(21.7576, 20, 20)" href="#ring04-quarter-872213e7"/><use transform="translate(40 40) rotate(-107.0363, 10, 10)" href="#ring05-half-872213e7"/><use transform="matrix(1 0 0 -1 0 100) rotate(3.2903, 50, 50)" href="#ring01-eighth-872213e7"/><use transform="matrix(1 0 0 -1 10 90) rotate(-87.281, 40, 40)" href="#ring02-quarter-872213e7"/><use transform="matrix(1 0 0 -1 20 80) rotate(-1.9854, 30, 30)" href="#ring03-half-872213e7"/><use transform="matrix(1 0 0 -1 30 70) rotate(21.7576, 20, 20)" href="#ring04-quarter-872213e7"/><use transform="matrix(1 0 0 -1 40 60) rotate(-107.0363, 10, 10)" href="#ring05-half-872213e7"/><circle cx="50" cy="50" r="45" stroke="white" stroke-opacity=".25" stroke-width="10" style="mix-blend-mode:lighten"/><circle cx="50" cy="50" r="25" stroke="white" stroke-opacity=".25" stroke-width="10" style="mix-blend-mode:lighten"/><circle cx="50" cy="50" r="10" fill="white" fill-opacity=".25" style="mix-blend-mode:lighten"/></g><clipPath id="clip-872213e7"><rect width="100" height="100" rx="0" ry="0"/></clipPath></defs><g clip-path="url(#clip-872213e7)"><use transform="rotate(34.0206, 50, 50)" href="#ring-container-872213e7"/></g></svg>