<svg xmlns="http://www.w3.org/2000/svg" viewBox="0 0 100 100" fill="none" shape-rendering="auto" aria-hidden="true"><metadata xmlns:rdf="http://www.w3.org/1999/02/22-rdf-syntax-ns#" xmlns:xsi="http://www.w3.org/2001/XMLSchema-instance" xmlns:dc="http://purl.org/dc/elements/1.1/" xmlns:dcterms="http://purl.org/dc/terms/"><rdf:RDF><rdf:Description><dc:title>Shapes</dc:title><dc:creator>DiceBear</dc:creator><dc:source xsi:type="dcterms:URI">https://www.dicebear.com</dc:source><dcterms:license xsi:type="dcterms:URI">https://creativecommons.org/publicdomain/zero/1.0/</dcterms:license><dc:rights>“Shapes” (https://www.dicebear.com) by “DiceBear”, licensed under “CC0 1.0” (https://creativecommons.org/publicdomain/zero/1.0/)</dc:rights></rdf:Description></rdf:RDF></metadata><defs><g id="shape01-rectangleFilled-f724d1f2"><path d="M0 150h100v100H0z" fill="#f88c49"/></g><g id="shape02-line-f724d1f2"><rect x="45" width="10" height="400" fill="#0a5b83"/></g><g id="shape03-rectangle-f724d1f2"><path fill-rule="evenodd" clip-rule="evenodd" d="M90 160H10v80h80zM0 150v100h100V150z" fill="#f1f4dc"/></g><clipPath id="clip-f724d1f2"><rect width="100" height="100" rx="0" ry="0"/></clipPath></defs><g clip-path="url(#clip-f724d1f2)"><rect width="100" height="100" fill="#1c799f"/><use transform="matrix(1.2 0 0 1.2 -10 -190) translate(-21.0527, -72.2292) rotate(-83.6581, 50, 200) translate(50, 200) scale(0.9837) translate(-50, -200)" href="#shape01-rectangleFilled-f724d1f2"/><use transform="matrix(.8 0 0 .8 10 -110) translate(-55.5383, 21.8664) rotate(22.8336, 50, 200) translate(50, 200) scale(0.9395) translate(-50, -200)" href="#shape02-line-f724d1f2"/><use transform="matrix(.4 0 0 .4 30 -30) translate(13.9758, -15.8348) rotate(27.6192, 50, 200) translate(50, 200) scale(0.9975) translate(-50, -200)" href="#shape03-rectangle-f724d1f2"/></g></svg>