<svg xmlns="http://www.w3.org/2000/svg" viewBox="0 0 100 100" fill="none" shape-rendering="auto" aria-hidden="true"><metadata xmlns:rdf="http://www.w3.org/1999/02/22-rdf-syntax-ns#" xmlns:xsi="http://www.w3.org/2001/XMLSchema-instance" xmlns:dc="http://purl.org/dc/elements/1.1/" xmlns:dcterms="http://purl.org/dc/terms/"><rdf:RDF><rdf:Description><dc:title>Shapes</dc:title><dc:creator>DiceBear</dc:creator><dc:source xsi:type="dcterms:URI">https://www.dicebear.com</dc:source><dcterms:license xsi:type="dcterms:URI">https://creativecommons.org/publicdomain/zero/1.0/</dcterms:license><dc:rights>“Shapes” (https://www.dicebear.com) by “DiceBear”, licensed under “CC0 1.0” (https://creativecommons.org/publicdomain/zero/1.0/)</dc:rights></rdf:Description></rdf:RDF></metadata><defs><g id="shape01-polygonFilled-86c6a0d4"><path d="m50 157 50 86.6H0z" fill="#0a5b83"/></g><g id="shape02-ellipseFilled-86c6a0d4"><path d="M100 200a50 50 0 1 1-100 0 50 50 0 0 1 100 0" fill="#69d2e7"/></g><g id="shape03-ellipse-86c6a0d4"><path fill-rule="evenodd" clip-rule="evenodd" d="M50 240a40 40 0 1 0 0-80 40 40 0 0 0 0 80m0 10a50 50 0 1 0 0-100 50 50 0 0 0 0 100" fill="#f88c49"/></g><clipPath id="clip-86c6a0d4"><rect width="100" height="100" rx="0" ry="0"/></clipPath></defs><g clip-path="url(#clip-86c6a0d4)"><rect width="100" height="100" fill="#1c799f"/><use transform="matrix(1.2 0 0 1.2 -10 -190) translate(-44.2372, 36.3976) rotate(154.2633, 50, 200) translate(50, 200) scale(1.0178) translate(-50, -200)" href="#shape01-polygonFilled-86c6a0d4"/><use transform="matrix(.8 0 0 .8 10 -110) translate(-9.3463, 27.2868) rotate(-12.9027, 50, 200) translate(50, 200) scale(1.0373) translate(-50, -200)" href="#shape02-ellipseFilled-86c6a0d4"/><use transform="matrix(.4 0 0 .4 30 -30) translate(-2.5443, 12.144) rotate(-23.0029, 50, 200) translate(50, 200) scale(1.0436) translate(-50, -200)" href="#shape03-ellipse-86c6a0d4"/></g></svg>