<svg xmlns="http://www.w3.org/2000/svg" viewBox="0 0 180 180" fill="none" shape-rendering="auto" aria-hidden="true"><metadata xmlns:rdf="http://www.w3.org/1999/02/22-rdf-syntax-ns#" xmlns:xsi="http://www.w3.org/2001/XMLSchema-instance" xmlns:dc="http://purl.org/dc/elements/1.1/" xmlns:dcterms="http://purl.org/dc/terms/"><rdf:RDF><rdf:Description><dc:title>Bottts</dc:title><dc:creator>Pablo Stanley</dc:creator><dc:source xsi:type="dcterms:URI">https://bottts.com/</dc:source><dcterms:license xsi:type="dcterms:URI">https://bottts.com/</dcterms:license><dc:rights>Remix of “Bottts” (https://bottts.com/) by “Pablo Stanley”, licensed under “Free for personal and commercial use” (https://bottts.com/)</dc:rights></rdf:Description></rdf:RDF></metadata><defs><g id="sides-antenna02-8c382fe0"><mask id="sidesAntenna02-a" style="mask-type:luminance"><rect x="4" y="28" width="36" height="32" rx="4" fill="white"/><rect x="154" y="9" width="2" height="20" fill="white"/><rect x="128" y="28" width="36" height="32" rx="4" fill="white"/></mask><g mask="url(#sidesAntenna02-a)"><path d="M-6 0h180v76H-6z" fill="#15a2a9"/><path d="M-6 0h180v76H-6z" fill="white" fill-opacity=".3"/><rect x="-6" y="38" width="180" height="38" fill="black" fill-opacity=".1"/></g><rect x="154" y="8" width="2" height="20" fill="white" fill-opacity=".4"/><circle cx="155" cy="5" r="4" fill="#E1E6E8"/><circle cx="156" cy="4" r="2" fill="white"/></g><g id="top-radar-8c382fe0"><mask id="topRadar-a" style="mask-type:luminance"><path fill-rule="evenodd" clip-rule="evenodd" d="M35.8.7A20 20 0 1 0 64.08 29" fill="white"/><circle cx="59.13" cy="5.66" r="4" transform="rotate(45 59.13 5.66)" fill="white"/><rect x="56.31" y="7.07" width="2" height="26" transform="rotate(45 56.3 7.07)" fill="white"/><rect x="39.94" y="28.71" width="4" height="24" fill="white"/></mask><g mask="url(#topRadar-a)"><path d="M-8 .6H92v52H-8z" fill="#15a2a9"/><path d="M-8 .6H92v52H-8z" fill="white" fill-opacity=".3"/><path fill-rule="evenodd" clip-rule="evenodd" d="M35.8.7A20 20 0 1 0 64.08 29" fill="white" fill-opacity=".2"/><circle cx="59.13" cy="8" r="5.66" transform="rotate(45 59.13 8)" fill="white" fill-opacity=".8"/></g></g><g id="head-square04-8c382fe0"><mask id="headSquare04-a" style="mask-type:luminance"><path fill-rule="evenodd" clip-rule="evenodd" d="M0 102V68.85a40 40 0 0 1 2.28-13.31L19.76 12A18 18 0 0 1 36.74 0h56.52a18 18 0 0 1 16.98 12l17.48 43.54a40 40 0 0 1 2.28 13.3V102a18 18 0 0 1-18 18H18a18 18 0 0 1-18-18" fill="white"/></mask><g mask="url(#headSquare04-a)"><path d="M-2-2h134v124H-2z" fill="#15a2a9"/></g></g><g id="mouth-grill03-8c382fe0"><rect y="1" width="68" height="22" rx="5" fill="black" fill-opacity=".2"/><rect x="4" y="5" width="60" height="14" rx="2" fill="white"/><rect x="14" y="5" width="4" height="14" fill="black" fill-opacity=".1"/><rect x="38" y="5" width="4" height="14" fill="black" fill-opacity=".1"/><rect x="26" y="5" width="4" height="14" fill="black" fill-opacity=".1"/><rect x="50" y="5" width="4" height="14" fill="black" fill-opacity=".1"/></g><g id="eyes-bulging-8c382fe0"><circle cx="28" cy="24" r="18" fill="black" fill-opacity=".2"/><circle cx="74" cy="24" r="18" fill="black" fill-opacity=".2"/><circle cx="28" cy="24" r="15" fill="#F1EEDA"/><circle cx="74" cy="24" r="15" fill="#F1EEDA"/><rect x="26" y="15" width="10" height="10" rx="2" fill="black" fill-opacity=".8"/><rect x="74" y="15" width="10" height="10" rx="2" fill="black" fill-opacity=".8"/></g><clipPath id="clip-8c382fe0"><rect width="180" height="180" rx="0" ry="0"/></clipPath></defs><g clip-path="url(#clip-8c382fe0)"><use transform="translate(6 66)" href="#sides-antenna02-8c382fe0"/><use transform="translate(49 -.6)" href="#top-radar-8c382fe0"/><use transform="translate(25 44)" href="#head-square04-8c382fe0"/><use transform="translate(56 128)" href="#mouth-grill03-8c382fe0"/><use transform="translate(38 76)" href="#eyes-bulging-8c382fe0"/></g></svg>