<svg xmlns="http://www.w3.org/2000/svg" viewBox="0 0 100 100" fill="none" shape-rendering="auto" aria-hidden="true"><metadata xmlns:rdf="http://www.w3.org/1999/02/22-rdf-syntax-ns#" xmlns:xsi="http://www.w3.org/2001/XMLSchema-instance" xmlns:dc="http://purl.org/dc/elements/1.1/" xmlns:dcterms="http://purl.org/dc/terms/"><rdf:RDF><rdf:Description><dc:title>Rings</dc:title><dc:creator>DiceBear</dc:creator><dc:source xsi:type="dcterms:URI">https://www.dicebear.com</dc:source><dcterms:license xsi:type="dcterms:URI">https://creativecommons.org/publicdomain/zero/1.0/</dcterms:license><dc:rights>“Rings” (https://www.dicebear.com) by “DiceBear”, licensed under “CC0 1.0” (https://creativecommons.org/publicdomain/zero/1.0/)</dc:rights></rdf:Description></rdf:RDF></metadata><defs><g id="ring01-full-8e383306"><circle cx="50" cy="50" r="45" stroke="#d597de" stroke-width="10"/></g><g id="ring02-quarter-8e383306"><path d="M40 10c-16.568 0-30 13.432-30 30H0C0 17.909 17.909 0 40 0z" fill="#d597de"/></g><g id="ring03-full-8e383306"><circle cx="30" cy="30" r="25" stroke="#d597de" stroke-width="10"/></g><g id="ring04-full-8e383306"><circle cx="20" cy="20" r="15" stroke="#d597de" stroke-width="10"/></g><g id="ring05-full-8e383306"><circle cx="10" cy="10" r="10" fill="#d597de"/></g><g id="ring-container-8e383306"><use transform="rotate(171.243, 50, 50)" href="#ring01-full-8e383306"/><use transform="translate(10 10) rotate(107.0062, 40, 40)" href="#ring02-quarter-8e383306"/><use transform="translate(20 20) rotate(-58.7714, 30, 30)" href="#ring03-full-8e383306"/><use transform="translate(30 30) rotate(-117.8807, 20, 20)" href="#ring04-full-8e383306"/><use transform="translate(40 40) rotate(9.3284, 10, 10)" href="#ring05-full-8e383306"/><use transform="matrix(1 0 0 -1 0 100) rotate(171.243, 50, 50)" href="#ring01-full-8e383306"/><use transform="matrix(1 0 0 -1 10 90) rotate(107.0062, 40, 40)" href="#ring02-quarter-8e383306"/><use transform="matrix(1 0 0 -1 20 80) rotate(-58.7714, 30, 30)" href="#ring03-full-8e383306"/><use transform="matrix(1 0 0 -1 30 70) rotate(-117.8807, 20, 20)" href="#ring04-full-8e383306"/><use transform="matrix(1 0 0 -1 40 60) rotate(9.3284, 10, 10)" href="#ring05-full-8e383306"/><circle cx="50" cy="50" r="45" stroke="white" stroke-opacity=".25" stroke-width="10" style="mix-blend-mode:lighten"/><circle cx="50" cy="50" r="25" stroke="white" stroke-opacity=".25" stroke-width="10" style="mix-blend-mode:lighten"/><circle cx="50" cy="50" r="10" fill="white" fill-opacity=".25" style="mix-blend-mode:lighten"/></g><clipPath id="clip-8e383306"><rect width="100" height="100" rx="0" ry="0"/></clipPath></defs><g clip-path="url(#clip-8e383306)"><use transform="rotate(-51.202, 50, 50)" href="#ring-container-8e383306"/></g></svg>