<svg xmlns="http://www.w3.org/2000/svg" viewBox="0 0 100 100" fill="none" shape-rendering="auto" aria-hidden="true"><metadata xmlns:rdf="http://www.w3.org/1999/02/22-rdf-syntax-ns#" xmlns:xsi="http://www.w3.org/2001/XMLSchema-instance" xmlns:dc="http://purl.org/dc/elements/1.1/" xmlns:dcterms="http://purl.org/dc/terms/"><rdf:RDF><rdf:Description><dc:title>Shapes</dc:title><dc:creator>DiceBear</dc:creator><dc:source xsi:type="dcterms:URI">https://www.dicebear.com</dc:source><dcterms:license xsi:type="dcterms:URI">https://creativecommons.org/publicdomain/zero/1.0/</dcterms:license><dc:rights>“Shapes” (https://www.dicebear.com) by “DiceBear”, licensed under “CC0 1.0” (https://creativecommons.org/publicdomain/zero/1.0/)</dc:rights></rdf:Description></rdf:RDF></metadata><defs><g id="shape01-rectangleFilled-8f383499"><path d="M0 150h100v100H0z" fill="#f1f4dc"/></g><g id="shape02-rectangleFilled-8f383499"><path d="M0 150h100v100H0z" fill="#f88c49"/></g><g id="shape03-ellipseFilled-8f383499"><path d="M100 200a50 50 0 1 1-100 0 50 50 0 0 1 100 0" fill="#1c799f"/></g><clipPath id="clip-8f383499"><rect width="100" height="100" rx="0" ry="0"/></clipPath></defs><g clip-path="url(#clip-8f383499)"><rect width="100" height="100" fill="#69d2e7"/><use transform="matrix(1.2 0 0 1.2 -10 -190) translate(60.4241, 18.0808) rotate(66.2237, 50, 200) translate(50, 200) scale(0.972) translate(-50, -200)" href="#shape01-rectangleFilled-8f383499"/><use transform="matrix(.8 0 0 .8 10 -110) translate(42.1506, -14.8088) rotate(60.6021, 50, 200) translate(50, 200) scale(0.9674) translate(-50, -200)" href="#shape02-rectangleFilled-8f383499"/><use transform="matrix(.4 0 0 .4 30 -30) translate(7.3961, 36.6016) rotate(153.5568, 50, 200) translate(50, 200) scale(0.9763) translate(-50, -200)" href="#shape03-ellipseFilled-8f383499"/></g></svg>