<svg xmlns="http://www.w3.org/2000/svg" viewBox="0 0 100 100" fill="none" shape-rendering="auto" aria-hidden="true"><metadata xmlns:rdf="http://www.w3.org/1999/02/22-rdf-syntax-ns#" xmlns:xsi="http://www.w3.org/2001/XMLSchema-instance" xmlns:dc="http://purl.org/dc/elements/1.1/" xmlns:dcterms="http://purl.org/dc/terms/"><rdf:RDF><rdf:Description><dc:title>Rings</dc:title><dc:creator>DiceBear</dc:creator><dc:source xsi:type="dcterms:URI">https://www.dicebear.com</dc:source><dcterms:license xsi:type="dcterms:URI">https://creativecommons.org/publicdomain/zero/1.0/</dcterms:license><dc:rights>“Rings” (https://www.dicebear.com) by “DiceBear”, licensed under “CC0 1.0” (https://creativecommons.org/publicdomain/zero/1.0/)</dc:rights></rdf:Description></rdf:RDF></metadata><defs><g id="ring01-half-d899d826"><path d="M50 0c27.614 0 50 22.386 50 50H90c0-22.091-17.909-40-40-40S10 27.909 10 50H0C0 22.386 22.386 0 50 0" fill="#c6b14f"/></g><g id="ring02-quarter-d899d826"><path d="M40 10c-16.568 0-30 13.432-30 30H0C0 17.909 17.909 0 40 0z" fill="#c6b14f"/></g><g id="ring03-quarter-d899d826"><path d="M30 10c-11.046 0-20 8.954-20 20H0C0 13.432 13.432 0 30 0z" fill="#c6b14f"/></g><g id="ring04-eighth-d899d826"><path d="M12.929 12.93A9.97 9.97 0 0 0 9.999 20H0A19.94 19.94 0 0 1 5.857 5.858z" fill="#c6b14f"/></g><g id="ring05-half-d899d826"><path d="M10 0c5.523 0 10 4.477 10 10H0C0 4.477 4.477 0 10 0" fill="#c6b14f"/></g><g id="ring-container-d899d826"><use transform="rotate(-94.9157, 50, 50)" href="#ring01-half-d899d826"/><use transform="translate(10 10) rotate(62.8754, 40, 40)" href="#ring02-quarter-d899d826"/><use transform="translate(20 20) rotate(-115.3393, 30, 30)" href="#ring03-quarter-d899d826"/><use transform="translate(30 30) rotate(-71.2001, 20, 20)" href="#ring04-eighth-d899d826"/><use transform="translate(40 40) rotate(-58.3226, 10, 10)" href="#ring05-half-d899d826"/><use transform="matrix(1 0 0 -1 0 100) rotate(-94.9157, 50, 50)" href="#ring01-half-d899d826"/><use transform="matrix(1 0 0 -1 10 90) rotate(62.8754, 40, 40)" href="#ring02-quarter-d899d826"/><use transform="matrix(1 0 0 -1 20 80) rotate(-115.3393, 30, 30)" href="#ring03-quarter-d899d826"/><use transform="matrix(1 0 0 -1 30 70) rotate(-71.2001, 20, 20)" href="#ring04-eighth-d899d826"/><use transform="matrix(1 0 0 -1 40 60) rotate(-58.3226, 10, 10)" href="#ring05-half-d899d826"/><circle cx="50" cy="50" r="45" stroke="white" stroke-opacity=".25" stroke-width="10" style="mix-blend-mode:lighten"/><circle cx="50" cy="50" r="25" stroke="white" stroke-opacity=".25" stroke-width="10" style="mix-blend-mode:lighten"/><circle cx="50" cy="50" r="10" fill="white" fill-opacity=".25" style="mix-blend-mode:lighten"/></g><clipPath id="clip-d899d826"><rect width="100" height="100" rx="0" ry="0"/></clipPath></defs><g clip-path="url(#clip-d899d826)"><use transform="rotate(-86.0122, 50, 50)" href="#ring-container-d899d826"/></g></svg>