<svg xmlns="http://www.w3.org/2000/svg" viewBox="0 0 100 100" fill="none" shape-rendering="auto" aria-hidden="true"><metadata xmlns:rdf="http://www.w3.org/1999/02/22-rdf-syntax-ns#" xmlns:xsi="http://www.w3.org/2001/XMLSchema-instance" xmlns:dc="http://purl.org/dc/elements/1.1/" xmlns:dcterms="http://purl.org/dc/terms/"><rdf:RDF><rdf:Description><dc:title>Shapes</dc:title><dc:creator>DiceBear</dc:creator><dc:source xsi:type="dcterms:URI">https://www.dicebear.com</dc:source><dcterms:license xsi:type="dcterms:URI">https://creativecommons.org/publicdomain/zero/1.0/</dcterms:license><dc:rights>“Shapes” (https://www.dicebear.com) by “DiceBear”, licensed under “CC0 1.0” (https://creativecommons.org/publicdomain/zero/1.0/)</dc:rights></rdf:Description></rdf:RDF></metadata><defs><g id="shape01-ellipseFilled-ea168188"><path d="M100 200a50 50 0 1 1-100 0 50 50 0 0 1 100 0" fill="#f1f4dc"/></g><g id="shape02-polygonFilled-ea168188"><path d="m50 157 50 86.6H0z" fill="#0a5b83"/></g><g id="shape03-rectangle-ea168188"><path fill-rule="evenodd" clip-rule="evenodd" d="M90 160H10v80h80zM0 150v100h100V150z" fill="#f88c49"/></g><clipPath id="clip-ea168188"><rect width="100" height="100" rx="0" ry="0"/></clipPath></defs><g clip-path="url(#clip-ea168188)"><rect width="100" height="100" fill="#69d2e7"/><use transform="matrix(1.2 0 0 1.2 -10 -190) translate(28.1234, -37.4092) rotate(-61.5036, 50, 200) translate(50, 200) scale(0.9434) translate(-50, -200)" href="#shape01-ellipseFilled-ea168188"/><use transform="matrix(.8 0 0 .8 10 -110) translate(-13.2305, -32.7512) rotate(52.2675, 50, 200) translate(50, 200) scale(0.9475) translate(-50, -200)" href="#shape02-polygonFilled-ea168188"/><use transform="matrix(.4 0 0 .4 30 -30) translate(-26.5274, 37.3528) rotate(-27.7708, 50, 200) translate(50, 200) scale(1.0757) translate(-50, -200)" href="#shape03-rectangle-ea168188"/></g></svg>