<svg xmlns="http://www.w3.org/2000/svg" viewBox="0 0 180 180" fill="none" shape-rendering="auto" aria-hidden="true"><metadata xmlns:rdf="http://www.w3.org/1999/02/22-rdf-syntax-ns#" xmlns:xsi="http://www.w3.org/2001/XMLSchema-instance" xmlns:dc="http://purl.org/dc/elements/1.1/" xmlns:dcterms="http://purl.org/dc/terms/"><rdf:RDF><rdf:Description><dc:title>Bottts</dc:title><dc:creator>Pablo Stanley</dc:creator><dc:source xsi:type="dcterms:URI">https://bottts.com/</dc:source><dcterms:license xsi:type="dcterms:URI">https://bottts.com/</dcterms:license><dc:rights>Remix of “Bottts” (https://bottts.com/) by “Pablo Stanley”, licensed under “Free for personal and commercial use” (https://bottts.com/)</dc:rights></rdf:Description></rdf:RDF></metadata><defs><g id="sides-squareAssymetric-d06cc5df"><mask id="sidesSquareAssymetric-a" style="mask-type:luminance"><rect x="4" y="31" width="36" height="30" rx="4" fill="white"/><rect x="14" y="15" width="26" height="30" rx="4" fill="white"/><rect x="133" y="23" width="36" height="30" rx="4" fill="white"/><rect x="128" y="8" width="36" height="60" rx="4" fill="white"/></mask><g mask="url(#sidesSquareAssymetric-a)"><path d="M-6 0h180v76H-6z" fill="#e25a75"/><path d="M-6 0h180v76H-6z" fill="white" fill-opacity=".3"/><rect x="-6" y="47" width="180" height="29" fill="black" fill-opacity=".1"/><circle cx="155" cy="20" r="5" fill="white" fill-opacity=".6"/><circle cx="155" cy="36" r="5" fill="white" fill-opacity=".6"/></g></g><filter id="topGlowingBulb02-a" x="14" y="5.59" width="56" height="47" filterUnits="userSpaceOnUse" color-interpolation-filters="sRGB"><feFlood flood-opacity="0" result="r0"/><feColorMatrix in="SourceAlpha" values="0 0 0 0 0 0 0 0 0 0 0 0 0 0 0 0 0 0 127 0" result="r1"/><feOffset/><feGaussianBlur stdDeviation="4"/><feColorMatrix values="0 0 0 0 1 0 0 0 0 1 0 0 0 0 1 0 0 0 0.5 0"/><feBlend in2="r0" result="r2"/><feBlend in="SourceGraphic" in2="r2" result="r3"/><feColorMatrix in="SourceAlpha" values="0 0 0 0 0 0 0 0 0 0 0 0 0 0 0 0 0 0 127 0" result="r1"/><feOffset/><feGaussianBlur stdDeviation="2"/><feComposite in2="r1" operator="arithmetic" k2="-1" k3="1"/><feColorMatrix values="0 0 0 0 1 0 0 0 0 1 0 0 0 0 1 0 0 0 0.5 0"/><feBlend in2="r3" result="r4"/></filter><g id="top-glowingBulb02-d06cc5df"><g filter="url(#topGlowingBulb02-a)"><path fill-rule="evenodd" clip-rule="evenodd" d="M22 33.6a20 20 0 1 1 40 0v11H22z" fill="white" fill-opacity=".3"/></g><ellipse cx="42" cy="30.59" rx="4" ry="6" fill="white" fill-opacity=".6"/><path d="M42 16.1c4.93 0 9.37 2.12 12.44 5.51m2.43 3.5q1.05 1.98 1.53 4.23" stroke="white" stroke-width="2" stroke-linecap="round"/><rect x="12" y="36.59" width="60" height="16" rx="1" fill="#48494B"/></g><g id="head-square03-d06cc5df"><mask id="headSquare03-a" style="mask-type:luminance"><path fill-rule="evenodd" clip-rule="evenodd" d="M0 18A18 18 0 0 1 18 0h94a18 18 0 0 1 18 18v27.15a40 40 0 0 1-2.28 13.31L110.24 108a18 18 0 0 1-16.98 12H36.74a18 18 0 0 1-16.98-12L2.28 58.45A40 40 0 0 1 0 45.15z" fill="white"/></mask><g mask="url(#headSquare03-a)"><path d="M-2-2h134v124H-2z" fill="#e25a75"/></g></g><g id="mouth-diagram-d06cc5df"><rect width="68" height="24" rx="5" fill="black" fill-opacity=".2"/><rect x="4" y="4" width="60" height="16" rx="2" fill="black" fill-opacity=".8"/><path d="M5 13h11l2-4 3 7 4-8 2 9 3-11 3 10 3-3h15l3-4 2 7 3-3h4" stroke="#4EFAC9" stroke-width="2" stroke-linecap="round" stroke-linejoin="round"/></g><g id="eyes-roundFrame02-d06cc5df"><rect y="11" width="104" height="34" rx="17" fill="black" fill-opacity=".8"/><circle cx="29" cy="28" r="13" fill="#F1EEDA"/><circle cx="75" cy="28" r="13" fill="#F1EEDA"/><rect x="24" y="23" width="10" height="10" rx="2" fill="black" fill-opacity=".8"/><rect x="70" y="23" width="10" height="10" rx="2" fill="black" fill-opacity=".8"/></g><clipPath id="clip-d06cc5df"><rect width="180" height="180" rx="0" ry="0"/></clipPath></defs><g clip-path="url(#clip-d06cc5df)"><use transform="translate(6 66)" href="#sides-squareAssymetric-d06cc5df"/><use transform="translate(49 -.6)" href="#top-glowingBulb02-d06cc5df"/><use transform="translate(25 44)" href="#head-square03-d06cc5df"/><use transform="translate(56 128)" href="#mouth-diagram-d06cc5df"/><use transform="translate(38 76)" href="#eyes-roundFrame02-d06cc5df"/></g></svg>