<svg xmlns="http://www.w3.org/2000/svg" viewBox="0 0 200 200" fill="none" shape-rendering="auto" aria-hidden="true"><metadata xmlns:rdf="http://www.w3.org/1999/02/22-rdf-syntax-ns#" xmlns:xsi="http://www.w3.org/2001/XMLSchema-instance" xmlns:dc="http://purl.org/dc/elements/1.1/" xmlns:dcterms="http://purl.org/dc/terms/"><rdf:RDF><rdf:Description><dc:title>Fun Emoji Set</dc:title><dc:creator>Davis Uche</dc:creator><dc:source xsi:type="dcterms:URI">https://www.figma.com/community/file/968125295144990435</dc:source><dcterms:license xsi:type="dcterms:URI">https://creativecommons.org/licenses/by/4.0/</dcterms:license><dc:rights>Remix of “Fun Emoji Set” (https://www.figma.com/community/file/968125295144990435) by “Davis Uche”, licensed under “CC BY 4.0” (https://creativecommons.org/licenses/by/4.0/)</dc:rights></rdf:Description></rdf:RDF></metadata><defs><g id="mouth-wideSmile-f0168afa"><path d="M65.77 51.25c-16.5 0-34.97-9.2-36.76-29.37a1.4 1.4 0 0 1 1.22-1.56 1.4 1.4 0 0 1 1.55 1.21c1.6 18.47 18.74 26.89 34 26.89 21.58 0 32.38-13.53 33.52-26.89a1.4 1.4 0 0 1 1.45-1.28 1.45 1.45 0 0 1 1.27 1.47c-1.65 20.37-19.91 29.52-36.2 29.53z" fill="black"/></g><g id="eyes-crying-f0168afa"><path d="M86.7 54q-.26 0-.5-.09a1.7 1.7 0 0 1-1-.84 1.8 1.8 0 0 1-.12-1.33 13.5 13.5 0 0 1 4.85-7.1A13 13 0 0 1 98 42c2.9-.03 5.73.9 8.06 2.67a13.6 13.6 0 0 1 4.87 7.07c.13.44.08.92-.13 1.33a1.7 1.7 0 0 1-2.3.73 1.7 1.7 0 0 1-.83-1.03c-.62-2.13-1.9-4-3.66-5.32a10 10 0 0 0-6.07-2 10 10 0 0 0-6.02 2.02 10.3 10.3 0 0 0-3.64 5.3q-.16.53-.6.87a1.7 1.7 0 0 1-.98.36m-60.99 0a1 1 0 0 1-.5-.1 1.7 1.7 0 0 1-1-.83 1.8 1.8 0 0 1-.13-1.33 13.6 13.6 0 0 1 4.85-7.08A13 13 0 0 1 37 42c2.9-.03 5.73.9 8.06 2.66a13.6 13.6 0 0 1 4.86 7.08 1.8 1.8 0 0 1-.53 1.85q-.27.23-.6.32a1.7 1.7 0 0 1-2.13-1.14c-.62-2.13-1.9-4-3.65-5.32a10 10 0 0 0-6.06-2 10 10 0 0 0-6.03 2 10.3 10.3 0 0 0-3.64 5.3q-.16.55-.6.89-.42.34-.97.36" fill="black"/><path d="M24.37 74.53a6.63 6.63 0 0 1-8.3 4.4 6.64 6.64 0 0 1-3.56-8.68c1.75-4.83 6.4-5.63 11.24-12.47-1.01 8.07 2.55 11.48.62 16.75m85.76 0a6.33 6.33 0 1 0 11.86-4.4c-1.75-4.75-6.4-5.56-11.28-12.4 1.05 8.12-2.5 11.53-.58 16.8" fill="#4ABCF4"/></g><clipPath id="clip-f0168afa"><rect width="200" height="200" rx="0" ry="0"/></clipPath></defs><g clip-path="url(#clip-f0168afa)"><rect width="200" height="200" fill="#d84be5"/><use transform="translate(-1.06 79.3)scale(1.5625)" href="#mouth-wideSmile-f0168afa"/><use transform="matrix(1.55291 0 0 1.56067 -5.27 8.75)" href="#eyes-crying-f0168afa"/></g></svg>