<svg xmlns="http://www.w3.org/2000/svg" viewBox="0 0 100 100" fill="none" shape-rendering="auto" aria-hidden="true"><metadata xmlns:rdf="http://www.w3.org/1999/02/22-rdf-syntax-ns#" xmlns:xsi="http://www.w3.org/2001/XMLSchema-instance" xmlns:dc="http://purl.org/dc/elements/1.1/" xmlns:dcterms="http://purl.org/dc/terms/"><rdf:RDF><rdf:Description><dc:title>Shapes</dc:title><dc:creator>DiceBear</dc:creator><dc:source xsi:type="dcterms:URI">https://www.dicebear.com</dc:source><dcterms:license xsi:type="dcterms:URI">https://creativecommons.org/publicdomain/zero/1.0/</dcterms:license><dc:rights>“Shapes” (https://www.dicebear.com) by “DiceBear”, licensed under “CC0 1.0” (https://creativecommons.org/publicdomain/zero/1.0/)</dc:rights></rdf:Description></rdf:RDF></metadata><defs><g id="shape01-ellipseFilled-bfea763e"><path d="M100 200a50 50 0 1 1-100 0 50 50 0 0 1 100 0" fill="#f88c49"/></g><g id="shape02-polygonFilled-bfea763e"><path d="m50 157 50 86.6H0z" fill="#69d2e7"/></g><g id="shape03-ellipseFilled-bfea763e"><path d="M100 200a50 50 0 1 1-100 0 50 50 0 0 1 100 0" fill="#1c799f"/></g><clipPath id="clip-bfea763e"><rect width="100" height="100" rx="0" ry="0"/></clipPath></defs><g clip-path="url(#clip-bfea763e)"><rect width="100" height="100" fill="#0a5b83"/><use transform="matrix(1.2 0 0 1.2 -10 -190) translate(-40.4632, 35.7196) rotate(39.8391, 50, 200) translate(50, 200) scale(0.9902) translate(-50, -200)" href="#shape01-ellipseFilled-bfea763e"/><use transform="matrix(.8 0 0 .8 10 -110) translate(41.0788, -49.816) rotate(159.2022, 50, 200) translate(50, 200) scale(1.0514) translate(-50, -200)" href="#shape02-polygonFilled-bfea763e"/><use transform="matrix(.4 0 0 .4 30 -30) translate(15.1753, 23.5772) rotate(-66.7942, 50, 200) translate(50, 200) scale(0.9118) translate(-50, -200)" href="#shape03-ellipseFilled-bfea763e"/></g></svg>