<svg xmlns="http://www.w3.org/2000/svg" viewBox="0 0 180 180" fill="none" shape-rendering="auto" aria-hidden="true"><metadata xmlns:rdf="http://www.w3.org/1999/02/22-rdf-syntax-ns#" xmlns:xsi="http://www.w3.org/2001/XMLSchema-instance" xmlns:dc="http://purl.org/dc/elements/1.1/" xmlns:dcterms="http://purl.org/dc/terms/"><rdf:RDF><rdf:Description><dc:title>Bottts</dc:title><dc:creator>Pablo Stanley</dc:creator><dc:source xsi:type="dcterms:URI">https://bottts.com/</dc:source><dcterms:license xsi:type="dcterms:URI">https://bottts.com/</dcterms:license><dc:rights>Remix of “Bottts” (https://bottts.com/) by “Pablo Stanley”, licensed under “Free for personal and commercial use” (https://bottts.com/)</dc:rights></rdf:Description></rdf:RDF></metadata><defs><g id="sides-antenna01-db2cf8a7"><mask id="sidesAntenna01-a" style="mask-type:luminance"><rect y="31" width="36" height="14" rx="4" fill="white"/><rect x="12" y="14" width="36" height="48" rx="4" fill="white"/><rect x="120" y="28" width="36" height="24" rx="4" fill="white"/><rect x="5" y="11" width="2" height="20" fill="white"/></mask><g mask="url(#sidesAntenna01-a)"><path d="M-6 0h180v76H-6z" fill="#b18911"/><rect x="-6" width="180" height="76" fill="white" fill-opacity=".3"/><rect x="-6" y="38" width="180" height="38" fill="black" fill-opacity=".1"/></g><rect x="5" y="11" width="2" height="20" fill="white" fill-opacity=".4"/><circle cx="6" cy="8" r="4" fill="#FFEA8F"/><circle cx="7" cy="7" r="2" fill="white"/></g><g id="top-horns-db2cf8a7"><mask id="topHorns-a" style="mask-type:luminance"><rect y="40.59" width="26" height="12" fill="white"/><rect width="26" height="12" transform="matrix(-1 0 0 1 84 40.6)" fill="white"/><path fill-rule="evenodd" clip-rule="evenodd" d="M8.52 14.34c0 7.84 5.39 20.7 13.72 27.03H3.36S-.16 23.27 5.43 14.7c.9-1.38 3.1-1.42 3.1-.36M76 14.6c.66 7.03-5.77 20.62-14 27h19s3.14-18.27-2-27c-1-1.7-3.14-1.45-3 0" fill="white"/></mask><g mask="url(#topHorns-a)"><path d="M-8 .6H92v52H-8z" fill="#b18911"/><path d="M-8 .6H92v52H-8z" fill="white" fill-opacity=".3"/><rect x="-8" y="40.59" width="100" height="12" fill="black" fill-opacity=".4"/><path fill-rule="evenodd" clip-rule="evenodd" d="M7.46 13.6h16.1v27H12.83c-7.45-7.86-5.36-27-5.36-27m69.35 0h7.75v27H73.82c5.75-7.81 3-27 3-27" fill="white" fill-opacity=".4"/></g></g><g id="texture-dirty01-db2cf8a7"><path fill-rule="evenodd" clip-rule="evenodd" d="M33.88 128.1c4.36-30.7 13.06-4.57 33.99-9.98 9.24-2.4 1.77-12.82 8.67-17.35 5.82-3.82 13.76-.74 20.43-3.21 9.63-3.57 9.5-10.82 18.48-11.9 8.48-1.03 17.37 2.34 25.93 1.08 16.15-2.4 9.53-34.03 21.64-39.61 12.1-5.6 32.05 4.06 34.66 19.87 2.54 15.42-14.46 72.78-14.46 72.78H33.88" fill="black" fill-opacity=".2"/><path fill-rule="evenodd" clip-rule="evenodd" d="M78.93 128c37.67 0 41.6-14.75 60.13-21.5s34.79 10.71 41.02-6.27 6.2 35.95 6.2 35.95H78.93z" fill="black" fill-opacity=".1"/><path fill-rule="evenodd" clip-rule="evenodd" d="M41 10.87C52.73 9.75 48.96 22.8 53.6 22.8c1.85 0 4.03-8.46 7.38-8.46 2.46 0 2 5.5 7.33 4.91 5-.54 4.07-4 6.6-4 5.44 0 3.38 20.2 7.73 20.2s5.73-14.8 7.65-20.64c2.43-7.4 16.97-11.56 6.6-14.5H40.71" fill="black" fill-opacity=".4"/></g><g id="head-square04-db2cf8a7"><mask id="headSquare04-a" style="mask-type:luminance"><path fill-rule="evenodd" clip-rule="evenodd" d="M0 102V68.85a40 40 0 0 1 2.28-13.31L19.76 12A18 18 0 0 1 36.74 0h56.52a18 18 0 0 1 16.98 12l17.48 43.54a40 40 0 0 1 2.28 13.3V102a18 18 0 0 1-18 18H18a18 18 0 0 1-18-18" fill="white"/></mask><g mask="url(#headSquare04-a)"><path d="M-2-2h134v124H-2z" fill="#b18911"/><use transform="translate(-44 -7)" href="#texture-dirty01-db2cf8a7"/></g></g><g id="mouth-square02-db2cf8a7"><rect x="12" y="4" width="44" height="4" rx="2" fill="black" fill-opacity=".8"/></g><g id="eyes-glow-db2cf8a7"><circle cx="21" cy="30" r="15" fill="white" fill-opacity=".1"/><circle cx="83" cy="30" r="15" fill="white" fill-opacity=".1"/><circle cx="21" cy="30" r="12" fill="white" fill-opacity=".1"/><circle cx="83" cy="30" r="12" fill="white" fill-opacity=".1"/><circle cx="21" cy="30" r="6" fill="white" fill-opacity=".8"/><circle cx="83" cy="30" r="6" fill="white" fill-opacity=".8"/><circle cx="21" cy="30" r="3" fill="white" fill-opacity=".8"/><circle cx="83" cy="30" r="3" fill="white" fill-opacity=".8"/></g><clipPath id="clip-db2cf8a7"><rect width="180" height="180" rx="0" ry="0"/></clipPath></defs><g clip-path="url(#clip-db2cf8a7)"><use transform="translate(6 66)" href="#sides-antenna01-db2cf8a7"/><use transform="translate(49 -.6)" href="#top-horns-db2cf8a7"/><use transform="translate(25 44)" href="#head-square04-db2cf8a7"/><use transform="translate(56 128)" href="#mouth-square02-db2cf8a7"/><use transform="translate(38 76)" href="#eyes-glow-db2cf8a7"/></g></svg>