<svg xmlns="http://www.w3.org/2000/svg" viewBox="0 0 100 100" fill="none" shape-rendering="auto" aria-hidden="true"><metadata xmlns:rdf="http://www.w3.org/1999/02/22-rdf-syntax-ns#" xmlns:xsi="http://www.w3.org/2001/XMLSchema-instance" xmlns:dc="http://purl.org/dc/elements/1.1/" xmlns:dcterms="http://purl.org/dc/terms/"><rdf:RDF><rdf:Description><dc:title>Shapes</dc:title><dc:creator>DiceBear</dc:creator><dc:source xsi:type="dcterms:URI">https://www.dicebear.com</dc:source><dcterms:license xsi:type="dcterms:URI">https://creativecommons.org/publicdomain/zero/1.0/</dcterms:license><dc:rights>“Shapes” (https://www.dicebear.com) by “DiceBear”, licensed under “CC0 1.0” (https://creativecommons.org/publicdomain/zero/1.0/)</dc:rights></rdf:Description></rdf:RDF></metadata><defs><g id="shape01-polygonFilled-79ee7f5a"><path d="m50 157 50 86.6H0z" fill="#0a5b83"/></g><g id="shape02-ellipseFilled-79ee7f5a"><path d="M100 200a50 50 0 1 1-100 0 50 50 0 0 1 100 0" fill="#f1f4dc"/></g><g id="shape03-rectangle-79ee7f5a"><path fill-rule="evenodd" clip-rule="evenodd" d="M90 160H10v80h80zM0 150v100h100V150z" fill="#f88c49"/></g><clipPath id="clip-79ee7f5a"><rect width="100" height="100" rx="0" ry="0"/></clipPath></defs><g clip-path="url(#clip-79ee7f5a)"><rect width="100" height="100" fill="#1c799f"/><use transform="matrix(1.2 0 0 1.2 -10 -190) translate(15.931, 8.9752) rotate(-154.349, 50, 200) translate(50, 200) scale(1.0543) translate(-50, -200)" href="#shape01-polygonFilled-79ee7f5a"/><use transform="matrix(.8 0 0 .8 10 -110) translate(-14.1509, -52.9856) rotate(97.5605, 50, 200) translate(50, 200) scale(1.011) translate(-50, -200)" href="#shape02-ellipseFilled-79ee7f5a"/><use transform="matrix(.4 0 0 .4 30 -30) translate(-1.6071, 16.5584) rotate(-84.8409, 50, 200) translate(50, 200) scale(1.0218) translate(-50, -200)" href="#shape03-rectangle-79ee7f5a"/></g></svg>