<svg xmlns="http://www.w3.org/2000/svg" viewBox="0 0 100 100" fill="none" shape-rendering="auto" aria-hidden="true"><metadata xmlns:rdf="http://www.w3.org/1999/02/22-rdf-syntax-ns#" xmlns:xsi="http://www.w3.org/2001/XMLSchema-instance" xmlns:dc="http://purl.org/dc/elements/1.1/" xmlns:dcterms="http://purl.org/dc/terms/"><rdf:RDF><rdf:Description><dc:title>Shapes</dc:title><dc:creator>DiceBear</dc:creator><dc:source xsi:type="dcterms:URI">https://www.dicebear.com</dc:source><dcterms:license xsi:type="dcterms:URI">https://creativecommons.org/publicdomain/zero/1.0/</dcterms:license><dc:rights>“Shapes” (https://www.dicebear.com) by “DiceBear”, licensed under “CC0 1.0” (https://creativecommons.org/publicdomain/zero/1.0/)</dc:rights></rdf:Description></rdf:RDF></metadata><defs><g id="shape01-line-7aee80ed"><rect x="45" width="10" height="400" fill="#f88c49"/></g><g id="shape02-rectangleFilled-7aee80ed"><path d="M0 150h100v100H0z" fill="#f1f4dc"/></g><g id="shape03-line-7aee80ed"><rect x="45" width="10" height="400" fill="#69d2e7"/></g><clipPath id="clip-7aee80ed"><rect width="100" height="100" rx="0" ry="0"/></clipPath></defs><g clip-path="url(#clip-7aee80ed)"><rect width="100" height="100" fill="#1c799f"/><use transform="matrix(1.2 0 0 1.2 -10 -190) translate(-29.0304, 24.2624) rotate(127.6792, 50, 200) translate(50, 200) scale(0.9612) translate(-50, -200)" href="#shape01-line-7aee80ed"/><use transform="matrix(.8 0 0 .8 10 -110) translate(31.6117, 53.178) rotate(-114.5943, 50, 200) translate(50, 200) scale(1.0055) translate(-50, -200)" href="#shape02-rectangleFilled-7aee80ed"/><use transform="matrix(.4 0 0 .4 30 -30) translate(-13.4423, -36.34) rotate(136.4323, 50, 200) translate(50, 200) scale(0.9207) translate(-50, -200)" href="#shape03-line-7aee80ed"/></g></svg>