<svg xmlns="http://www.w3.org/2000/svg" viewBox="0 0 100 100" fill="none" shape-rendering="auto" aria-hidden="true"><metadata xmlns:rdf="http://www.w3.org/1999/02/22-rdf-syntax-ns#" xmlns:xsi="http://www.w3.org/2001/XMLSchema-instance" xmlns:dc="http://purl.org/dc/elements/1.1/" xmlns:dcterms="http://purl.org/dc/terms/"><rdf:RDF><rdf:Description><dc:title>Rings</dc:title><dc:creator>DiceBear</dc:creator><dc:source xsi:type="dcterms:URI">https://www.dicebear.com</dc:source><dcterms:license xsi:type="dcterms:URI">https://creativecommons.org/publicdomain/zero/1.0/</dcterms:license><dc:rights>“Rings” (https://www.dicebear.com) by “DiceBear”, licensed under “CC0 1.0” (https://creativecommons.org/publicdomain/zero/1.0/)</dc:rights></rdf:Description></rdf:RDF></metadata><defs><g id="ring01-full-35701b5a"><circle cx="50" cy="50" r="45" stroke="#c6b14f" stroke-width="10"/></g><g id="ring02-half-35701b5a"><path d="M40 0c22.091 0 40 17.909 40 40H70c0-16.568-13.431-30-30-30-16.568 0-30 13.432-30 30H0C0 17.909 17.909 0 40 0" fill="#c6b14f"/></g><g id="ring03-half-35701b5a"><path d="M30 0c16.569 0 30 13.432 30 30H50c0-11.046-8.954-20-20-20s-20 8.954-20 20H0C0 13.432 13.432 0 30 0" fill="#c6b14f"/></g><g id="ring04-eighth-35701b5a"><path d="M12.929 12.93A9.97 9.97 0 0 0 9.999 20H0A19.94 19.94 0 0 1 5.857 5.858z" fill="#c6b14f"/></g><g id="ring05-full-35701b5a"><circle cx="10" cy="10" r="10" fill="#c6b14f"/></g><g id="ring-container-35701b5a"><use transform="rotate(159.8767, 50, 50)" href="#ring01-full-35701b5a"/><use transform="translate(10 10) rotate(26.2432, 40, 40)" href="#ring02-half-35701b5a"/><use transform="translate(20 20) rotate(27.8164, 30, 30)" href="#ring03-half-35701b5a"/><use transform="translate(30 30) rotate(63.9805, 20, 20)" href="#ring04-eighth-35701b5a"/><use transform="translate(40 40) rotate(-126.9446, 10, 10)" href="#ring05-full-35701b5a"/><use transform="matrix(1 0 0 -1 0 100) rotate(159.8767, 50, 50)" href="#ring01-full-35701b5a"/><use transform="matrix(1 0 0 -1 10 90) rotate(26.2432, 40, 40)" href="#ring02-half-35701b5a"/><use transform="matrix(1 0 0 -1 20 80) rotate(27.8164, 30, 30)" href="#ring03-half-35701b5a"/><use transform="matrix(1 0 0 -1 30 70) rotate(63.9805, 20, 20)" href="#ring04-eighth-35701b5a"/><use transform="matrix(1 0 0 -1 40 60) rotate(-126.9446, 10, 10)" href="#ring05-full-35701b5a"/><circle cx="50" cy="50" r="45" stroke="white" stroke-opacity=".25" stroke-width="10" style="mix-blend-mode:lighten"/><circle cx="50" cy="50" r="25" stroke="white" stroke-opacity=".25" stroke-width="10" style="mix-blend-mode:lighten"/><circle cx="50" cy="50" r="10" fill="white" fill-opacity=".25" style="mix-blend-mode:lighten"/></g><clipPath id="clip-35701b5a"><rect width="100" height="100" rx="0" ry="0"/></clipPath></defs><g clip-path="url(#clip-35701b5a)"><use transform="rotate(-2.4176, 50, 50)" href="#ring-container-35701b5a"/></g></svg>