<svg xmlns="http://www.w3.org/2000/svg" viewBox="0 0 200 200" fill="none" shape-rendering="auto" aria-hidden="true"><metadata xmlns:rdf="http://www.w3.org/1999/02/22-rdf-syntax-ns#" xmlns:xsi="http://www.w3.org/2001/XMLSchema-instance" xmlns:dc="http://purl.org/dc/elements/1.1/" xmlns:dcterms="http://purl.org/dc/terms/"><rdf:RDF><rdf:Description><dc:title>Fun Emoji Set</dc:title><dc:creator>Davis Uche</dc:creator><dc:source xsi:type="dcterms:URI">https://www.figma.com/community/file/968125295144990435</dc:source><dcterms:license xsi:type="dcterms:URI">https://creativecommons.org/licenses/by/4.0/</dcterms:license><dc:rights>Remix of “Fun Emoji Set” (https://www.figma.com/community/file/968125295144990435) by “Davis Uche”, licensed under “CC BY 4.0” (https://creativecommons.org/licenses/by/4.0/)</dc:rights></rdf:Description></rdf:RDF></metadata><defs><g id="mouth-shy-f9ee7e61"><path d="M78.92 55.25a1.4 1.4 0 0 1-1.26-.82 15.26 15.26 0 0 1 15.67-22.04c3.71.52 7.1 2.39 9.53 5.26a1.5 1.5 0 0 1-.32 1.7 1.5 1.5 0 0 1-1.72.22 12.5 12.5 0 0 0-16.53-2.35c-4.01 2.7-7.51 8.54-4.1 16.07a1.5 1.5 0 0 1-.79 1.83 1 1 0 0 1-.5.13" fill="black"/></g><g id="eyes-pissed-f9ee7e61"><path d="M98 65a13 13 0 0 1-13-13v-.66c0-10.45 11.55-17.21 18.93-16.25 6.54.84 7.07 5.02 7.07 11.24V52a13 13 0 0 1-13 13" fill="black"/><path d="M93.82 44.67a2.29 2.29 0 1 0 0-4.58 2.29 2.29 0 0 0 0 4.58" fill="white"/><path opacity=".1" d="M98.06 53.48a5.32 5.32 0 1 0 0-10.64 5.32 5.32 0 0 0 0 10.64" fill="white"/><path d="M37 65a13 13 0 0 0 13-13v-.66C50 40.9 38.46 34.13 31.07 35.1c-6.56.84-7.07 5.02-7.07 11.24V52a13 13 0 0 0 13 13" fill="black"/><path d="M32.84 44.67a2.29 2.29 0 1 0 0-4.58 2.29 2.29 0 0 0 0 4.58" fill="white"/><path opacity=".1" d="M37.08 53.48a5.32 5.32 0 1 0 0-10.64 5.32 5.32 0 0 0 0 10.64" fill="white"/></g><clipPath id="clip-f9ee7e61"><rect width="200" height="200" rx="0" ry="0"/></clipPath></defs><g clip-path="url(#clip-f9ee7e61)"><rect width="200" height="200" fill="#d9915b"/><use transform="translate(-1.06 79.3)scale(1.5625)" href="#mouth-shy-f9ee7e61"/><use transform="matrix(1.55291 0 0 1.56067 -5.27 8.75)" href="#eyes-pissed-f9ee7e61"/></g></svg>