<svg xmlns="http://www.w3.org/2000/svg" viewBox="0 0 200 200" fill="none" shape-rendering="auto" aria-hidden="true"><metadata xmlns:rdf="http://www.w3.org/1999/02/22-rdf-syntax-ns#" xmlns:xsi="http://www.w3.org/2001/XMLSchema-instance" xmlns:dc="http://purl.org/dc/elements/1.1/" xmlns:dcterms="http://purl.org/dc/terms/"><rdf:RDF><rdf:Description><dc:title>Fun Emoji Set</dc:title><dc:creator>Davis Uche</dc:creator><dc:source xsi:type="dcterms:URI">https://www.figma.com/community/file/968125295144990435</dc:source><dcterms:license xsi:type="dcterms:URI">https://creativecommons.org/licenses/by/4.0/</dcterms:license><dc:rights>Remix of “Fun Emoji Set” (https://www.figma.com/community/file/968125295144990435) by “Davis Uche”, licensed under “CC BY 4.0” (https://creativecommons.org/licenses/by/4.0/)</dc:rights></rdf:Description></rdf:RDF></metadata><defs><g id="mouth-shy-f6ee79a8"><path d="M78.92 55.25a1.4 1.4 0 0 1-1.26-.82 15.26 15.26 0 0 1 15.67-22.04c3.71.52 7.1 2.39 9.53 5.26a1.5 1.5 0 0 1-.32 1.7 1.5 1.5 0 0 1-1.72.22 12.5 12.5 0 0 0-16.53-2.35c-4.01 2.7-7.51 8.54-4.1 16.07a1.5 1.5 0 0 1-.79 1.83 1 1 0 0 1-.5.13" fill="black"/></g><g id="eyes-wink-f6ee79a8"><path d="M40.41 61h-6.59c-9.7 0-9.7.07-9.7-9.7v-4.1A12.2 12.2 0 0 1 36.32 35h1.6a12.2 12.2 0 0 1 12.2 12.2v4.17c-.03 9.7-.03 9.63-9.7 9.63" fill="black"/><path d="M32.87 44.53a2.29 2.29 0 1 0 0-4.57 2.29 2.29 0 0 0 0 4.57" fill="white"/><path opacity=".1" d="M37.11 53.35a5.32 5.32 0 1 0 0-10.65 5.32 5.32 0 0 0 0 10.65" fill="white"/><path d="M86.7 54q-.26 0-.5-.09a1.7 1.7 0 0 1-1-.84 1.8 1.8 0 0 1-.12-1.33 13.5 13.5 0 0 1 4.85-7.1A13 13 0 0 1 98 42c2.9-.03 5.73.9 8.06 2.67a13.6 13.6 0 0 1 4.87 7.07c.13.44.08.92-.13 1.33a1.7 1.7 0 0 1-2.3.73 1.7 1.7 0 0 1-.83-1.03c-.62-2.13-1.9-4-3.66-5.32a10 10 0 0 0-6.07-2 10 10 0 0 0-6.02 2.02 10.3 10.3 0 0 0-3.64 5.3q-.16.53-.6.87a1.7 1.7 0 0 1-.98.36" fill="black"/></g><clipPath id="clip-f6ee79a8"><rect width="200" height="200" rx="0" ry="0"/></clipPath></defs><g clip-path="url(#clip-f6ee79a8)"><rect width="200" height="200" fill="#f6d594"/><use transform="translate(-1.06 79.3)scale(1.5625)" href="#mouth-shy-f6ee79a8"/><use transform="matrix(1.55291 0 0 1.56067 -5.27 8.75)" href="#eyes-wink-f6ee79a8"/></g></svg>