<svg xmlns="http://www.w3.org/2000/svg" viewBox="0 0 100 100" fill="none" shape-rendering="auto" aria-hidden="true"><metadata xmlns:rdf="http://www.w3.org/1999/02/22-rdf-syntax-ns#" xmlns:xsi="http://www.w3.org/2001/XMLSchema-instance" xmlns:dc="http://purl.org/dc/elements/1.1/" xmlns:dcterms="http://purl.org/dc/terms/"><rdf:RDF><rdf:Description><dc:title>Shapes</dc:title><dc:creator>DiceBear</dc:creator><dc:source xsi:type="dcterms:URI">https://www.dicebear.com</dc:source><dcterms:license xsi:type="dcterms:URI">https://creativecommons.org/publicdomain/zero/1.0/</dcterms:license><dc:rights>“Shapes” (https://www.dicebear.com) by “DiceBear”, licensed under “CC0 1.0” (https://creativecommons.org/publicdomain/zero/1.0/)</dc:rights></rdf:Description></rdf:RDF></metadata><defs><g id="shape01-line-f7ee7b3b"><rect x="45" width="10" height="400" fill="#f88c49"/></g><g id="shape02-line-f7ee7b3b"><rect x="45" width="10" height="400" fill="#f1f4dc"/></g><g id="shape03-ellipseFilled-f7ee7b3b"><path d="M100 200a50 50 0 1 1-100 0 50 50 0 0 1 100 0" fill="#69d2e7"/></g><clipPath id="clip-f7ee7b3b"><rect width="100" height="100" rx="0" ry="0"/></clipPath></defs><g clip-path="url(#clip-f7ee7b3b)"><rect width="100" height="100" fill="#0a5b83"/><use transform="matrix(1.2 0 0 1.2 -10 -190) translate(5.1375, 60.5672) rotate(126.7796, 50, 200) translate(50, 200) scale(0.9498) translate(-50, -200)" href="#shape01-line-f7ee7b3b"/><use transform="matrix(.8 0 0 .8 10 -110) translate(16.6365, 52.4112) rotate(-65.2811, 50, 200) translate(50, 200) scale(0.9997) translate(-50, -200)" href="#shape02-line-f7ee7b3b"/><use transform="matrix(.4 0 0 .4 30 -30) translate(9.8414, -30.2012) rotate(-159.2614, 50, 200) translate(50, 200) scale(1.0483) translate(-50, -200)" href="#shape03-ellipseFilled-f7ee7b3b"/></g></svg>