<svg xmlns="http://www.w3.org/2000/svg" viewBox="0 0 200 200" fill="none" shape-rendering="auto" aria-hidden="true"><metadata xmlns:rdf="http://www.w3.org/1999/02/22-rdf-syntax-ns#" xmlns:xsi="http://www.w3.org/2001/XMLSchema-instance" xmlns:dc="http://purl.org/dc/elements/1.1/" xmlns:dcterms="http://purl.org/dc/terms/"><rdf:RDF><rdf:Description><dc:title>Fun Emoji Set</dc:title><dc:creator>Davis Uche</dc:creator><dc:source xsi:type="dcterms:URI">https://www.figma.com/community/file/968125295144990435</dc:source><dcterms:license xsi:type="dcterms:URI">https://creativecommons.org/licenses/by/4.0/</dcterms:license><dc:rights>Remix of “Fun Emoji Set” (https://www.figma.com/community/file/968125295144990435) by “Davis Uche”, licensed under “CC BY 4.0” (https://creativecommons.org/licenses/by/4.0/)</dc:rights></rdf:Description></rdf:RDF></metadata><defs><g id="mouth-smileLol-9ddcbf03"><path fill-rule="evenodd" clip-rule="evenodd" d="M101 21.25v.49a35 35 0 0 1-.9 7.75 30.3 30.3 0 0 1-14.24 19.24c-12.54 7.52-30.2 7.36-42.49-.48A30 30 0 0 1 29.8 28.92a36 36 0 0 1-.79-7.67c22.86 8.83 46.05 8.83 69.54.9z" fill="#2B1607" stroke="black" stroke-width="1.48" stroke-linecap="round" stroke-linejoin="round"/><path fill-rule="evenodd" clip-rule="evenodd" d="M101 21.73a34 34 0 0 1-.9 7.62c-20.83 13.49-49.47 13.1-70.3-.57q-.8-3.72-.8-7.53c22.85 8.68 46.03 8.68 69.51.88zM87 48.74c-12.99 7.5-31.29 7.35-44-.49a134 134 0 0 0 44 .49" fill="white"/><path fill-rule="evenodd" clip-rule="evenodd" d="M101.57 20.44c.27.19.43.5.43.84 0 11.3-4.64 19.82-11.62 25.5-6.96 5.67-16.2 8.47-25.38 8.47s-18.42-2.8-25.38-8.47C32.64 41.1 28 32.58 28 21.28a1.02 1.02 0 0 1 1.38-.96c23.45 9.02 47.14 8.78 71.25 0q.5-.17.94.12m-71.5 2.32c.38 9.93 4.63 17.38 10.83 22.43 6.54 5.32 15.3 8.01 24.1 8.01s17.56-2.7 24.1-8c6.2-5.06 10.45-12.52 10.83-22.46-23.57 8.28-46.84 8.52-69.86.02" fill="black"/><path d="M49.01 56.3c4.5 5.16 25.03 5.5 30 0a68 68 0 0 1-29.97 0" fill="black" opacity=".4" style="mix-blend-mode:soft-light"/></g><linearGradient id="eyesShades-a" x1="35.23" y1="71.96" x2="35.23" y2="33.36" gradientUnits="userSpaceOnUse"><stop offset=".32" stop-color="#121212"/><stop offset="1" stop-color="#474747"/></linearGradient><linearGradient id="eyesShades-b" x1="100.77" y1="33.36" x2="100.77" y2="71.95" gradientUnits="userSpaceOnUse"><stop stop-color="#474747"/><stop offset=".68" stop-color="#121212"/></linearGradient><g id="eyes-shades-9ddcbf03"><path fill-rule="evenodd" clip-rule="evenodd" d="M13.62 36.68c-4.65 4.43-2.22 27.01 7.48 32.7 3.24 1.9 15.66 3.74 21.18 1.63 10.31-3.9 16.86-18.3 16.86-25.2 0-5.01-9.95-10.8-18.18-11.8-8.01-.9-23.1-1.3-27.34 2.7" fill="url(#eyesShades-a)"/><path fill-rule="evenodd" clip-rule="evenodd" d="M122.38 36.68c4.65 4.43 2.23 27.01-7.48 32.7-3.23 1.9-15.66 3.74-21.18 1.63-10.31-3.9-16.86-18.2-16.86-25.2 0-5 9.95-10.8 18.18-11.8 7.97-.9 23.1-1.3 27.33 2.7" fill="url(#eyesShades-b)"/><path d="M133.7 31.34a.6.6 0 0 0-.5-.5c-8.11-1.4-30.46-2.95-42.44-.71A33 33 0 0 0 80.6 34l-2.37 1.2a20.6 20.6 0 0 1-10.21 2.32c-3.54.13-7.07-.67-10.22-2.31L55.4 34a33 33 0 0 0-10.17-3.88c-11.97-2.2-34.31-.68-42.45.7a.6.6 0 0 0-.47.5 34 34 0 0 0 0 9.3.6.6 0 0 0 .5.48s2.98.82 4 9.08c.87 6.54 4.2 22.03 17.7 24.5q5.48.92 11 .93 2.46.03 4.88-.29c15-2.17 19.64-15.6 21.88-22.12q.45-1.28.79-2.15c1.48-3.56 2.64-3.94 5.06-3.94 1.9 0 3.58.3 5.05 3.94q.34.88.78 2.15c2.23 6.47 6.89 19.9 21.84 22.13 5.3.5 10.62.28 15.85-.64 13.5-2.47 16.89-17.96 17.68-24.5 1.03-8.26 3.97-9.07 3.98-9.08a.6.6 0 0 0 .48-.48q.67-4.63.04-9.3m-9.9 18.57c-.78 6.72-3.67 15.7-9.22 18.96-3.06 1.82-15.24 3.66-20.61 1.6-10.26-3.9-16.53-18.2-16.53-24.69 0-4.42 9.08-10.22 17.69-11.23q5.4-.6 10.82-.62c6.8 0 13.54.8 16.03 3.18 1.8 1.7 2.52 6.86 1.83 12.8m-65.3-4.13c0 6.5-6.26 20.78-16.5 24.69-5.4 2.06-17.6.22-20.62-1.6-5.56-3.26-8.43-12.24-9.22-18.96-.7-5.9 0-11.1 1.86-12.8 2.5-2.38 9.24-3.18 16.04-3.18q5.42 0 10.8.62c8.56 1 17.63 6.78 17.63 11.23" fill="black"/></g><clipPath id="clip-9ddcbf03"><rect width="200" height="200" rx="0" ry="0"/></clipPath></defs><g clip-path="url(#clip-9ddcbf03)"><rect width="200" height="200" fill="#f6d594"/><use transform="translate(-1.06 79.3)scale(1.5625)" href="#mouth-smileLol-9ddcbf03"/><use transform="matrix(1.55291 0 0 1.56067 -5.27 8.75)" href="#eyes-shades-9ddcbf03"/></g></svg>