<svg xmlns="http://www.w3.org/2000/svg" viewBox="0 0 100 100" fill="none" shape-rendering="auto" aria-hidden="true"><metadata xmlns:rdf="http://www.w3.org/1999/02/22-rdf-syntax-ns#" xmlns:xsi="http://www.w3.org/2001/XMLSchema-instance" xmlns:dc="http://purl.org/dc/elements/1.1/" xmlns:dcterms="http://purl.org/dc/terms/"><rdf:RDF><rdf:Description><dc:title>Rings</dc:title><dc:creator>DiceBear</dc:creator><dc:source xsi:type="dcterms:URI">https://www.dicebear.com</dc:source><dcterms:license xsi:type="dcterms:URI">https://creativecommons.org/publicdomain/zero/1.0/</dcterms:license><dc:rights>“Rings” (https://www.dicebear.com) by “DiceBear”, licensed under “CC0 1.0” (https://creativecommons.org/publicdomain/zero/1.0/)</dc:rights></rdf:Description></rdf:RDF></metadata><defs><g id="ring01-full-31257dc4"><circle cx="50" cy="50" r="45" stroke="#e791c3" stroke-width="10"/></g><g id="ring02-full-31257dc4"><circle cx="40" cy="40" r="35" stroke="#e791c3" stroke-width="10"/></g><g id="ring03-half-31257dc4"><path d="M30 0c16.569 0 30 13.432 30 30H50c0-11.046-8.954-20-20-20s-20 8.954-20 20H0C0 13.432 13.432 0 30 0" fill="#e791c3"/></g><g id="ring04-half-31257dc4"><path d="M20 0c11.046 0 20 8.954 20 20H30c0-5.523-4.477-10-10-10s-10 4.477-10 10H0C0 8.954 8.954 0 20 0" fill="#e791c3"/></g><g id="ring05-eighth-31257dc4"><path d="M10 10H0a9.97 9.97 0 0 1 2.929-7.07z" fill="#e791c3"/></g><g id="ring-container-31257dc4"><use transform="rotate(137.7067, 50, 50)" href="#ring01-full-31257dc4"/><use transform="translate(10 10) rotate(138.2642, 40, 40)" href="#ring02-full-31257dc4"/><use transform="translate(20 20) rotate(161.0945, 30, 30)" href="#ring03-half-31257dc4"/><use transform="translate(30 30) rotate(13.0631, 20, 20)" href="#ring04-half-31257dc4"/><use transform="translate(40 40) rotate(-167.3791, 10, 10)" href="#ring05-eighth-31257dc4"/><use transform="matrix(1 0 0 -1 0 100) rotate(137.7067, 50, 50)" href="#ring01-full-31257dc4"/><use transform="matrix(1 0 0 -1 10 90) rotate(138.2642, 40, 40)" href="#ring02-full-31257dc4"/><use transform="matrix(1 0 0 -1 20 80) rotate(161.0945, 30, 30)" href="#ring03-half-31257dc4"/><use transform="matrix(1 0 0 -1 30 70) rotate(13.0631, 20, 20)" href="#ring04-half-31257dc4"/><use transform="matrix(1 0 0 -1 40 60) rotate(-167.3791, 10, 10)" href="#ring05-eighth-31257dc4"/><circle cx="50" cy="50" r="45" stroke="white" stroke-opacity=".25" stroke-width="10" style="mix-blend-mode:lighten"/><circle cx="50" cy="50" r="25" stroke="white" stroke-opacity=".25" stroke-width="10" style="mix-blend-mode:lighten"/><circle cx="50" cy="50" r="10" fill="white" fill-opacity=".25" style="mix-blend-mode:lighten"/></g><clipPath id="clip-31257dc4"><rect width="100" height="100" rx="0" ry="0"/></clipPath></defs><g clip-path="url(#clip-31257dc4)"><use transform="rotate(126.6976, 50, 50)" href="#ring-container-31257dc4"/></g></svg>