<svg xmlns="http://www.w3.org/2000/svg" viewBox="0 0 200 200" fill="none" shape-rendering="auto" aria-hidden="true"><metadata xmlns:rdf="http://www.w3.org/1999/02/22-rdf-syntax-ns#" xmlns:xsi="http://www.w3.org/2001/XMLSchema-instance" xmlns:dc="http://purl.org/dc/elements/1.1/" xmlns:dcterms="http://purl.org/dc/terms/"><rdf:RDF><rdf:Description><dc:title>Fun Emoji Set</dc:title><dc:creator>Davis Uche</dc:creator><dc:source xsi:type="dcterms:URI">https://www.figma.com/community/file/968125295144990435</dc:source><dcterms:license xsi:type="dcterms:URI">https://creativecommons.org/licenses/by/4.0/</dcterms:license><dc:rights>Remix of “Fun Emoji Set” (https://www.figma.com/community/file/968125295144990435) by “Davis Uche”, licensed under “CC BY 4.0” (https://creativecommons.org/licenses/by/4.0/)</dc:rights></rdf:Description></rdf:RDF></metadata><defs><g id="mouth-shy-52460498"><path d="M78.92 55.25a1.4 1.4 0 0 1-1.26-.82 15.26 15.26 0 0 1 15.67-22.04c3.71.52 7.1 2.39 9.53 5.26a1.5 1.5 0 0 1-.32 1.7 1.5 1.5 0 0 1-1.72.22 12.5 12.5 0 0 0-16.53-2.35c-4.01 2.7-7.51 8.54-4.1 16.07a1.5 1.5 0 0 1-.79 1.83 1 1 0 0 1-.5.13" fill="black"/></g><g id="eyes-love-52460498"><path fill-rule="evenodd" clip-rule="evenodd" d="M42.86 67.01c-7.66-3.62-21.33-9.52-24.3-19.95a11 11 0 0 1-.36-1.46c-1.82-10.27 9.08-17.52 18.97-10.5 5.77-8.41 15.72-7.54 19.81-.94a12 12 0 0 1 1.6 4.25c2 11.3-9.5 22.27-15.72 28.6" fill="#CE0F0F"/><path opacity=".2" fill-rule="evenodd" clip-rule="evenodd" d="M41.43 63.61c-6.77-3.21-18.26-8.2-22.86-16.55a11 11 0 0 1-.37-1.46c-1.82-10.27 9.08-17.52 18.97-10.5 5.77-8.41 15.72-7.54 19.81-.94 0 .27.13.55.18.83 1.96 11.33-9.5 22.23-15.73 28.62" fill="white"/><path opacity=".4" fill-rule="evenodd" clip-rule="evenodd" d="M19.96 44.01c.56-4.32 9.7-9.96 13.48-8.89-7.36-2.03-12.45 1.46-13.48 8.9" fill="white"/><path fill-rule="evenodd" clip-rule="evenodd" d="M93.77 67.01c7.66-3.62 21.33-9.52 24.29-19.95q.24-.72.36-1.46c1.82-10.27-9.07-17.52-18.96-10.5-5.78-8.41-15.72-7.54-19.8-.94a12 12 0 0 0-1.6 4.25c-2.04 11.3 9.5 22.27 15.71 28.6" fill="#CE0F0F"/><path opacity=".2" fill-rule="evenodd" clip-rule="evenodd" d="M95.2 63.61c6.77-3.21 18.25-8.2 22.86-16.55q.24-.72.36-1.46c1.82-10.27-9.07-17.52-18.96-10.5-5.78-8.41-15.72-7.54-19.8-.94 0 .27-.15.55-.19.83-2.02 11.33 9.5 22.23 15.72 28.62" fill="white"/><path opacity=".4" fill-rule="evenodd" clip-rule="evenodd" d="M116.65 44.01c-.54-4.32-9.7-9.96-13.48-8.89 7.38-2.03 12.53 1.46 13.48 8.9" fill="white"/></g><clipPath id="clip-52460498"><rect width="200" height="200" rx="0" ry="0"/></clipPath></defs><g clip-path="url(#clip-52460498)"><rect width="200" height="200" fill="#f6d594"/><use transform="translate(-1.06 79.3)scale(1.5625)" href="#mouth-shy-52460498"/><use transform="matrix(1.55291 0 0 1.56067 -5.27 8.75)" href="#eyes-love-52460498"/></g></svg>