<svg xmlns="http://www.w3.org/2000/svg" viewBox="0 0 100 100" fill="none" shape-rendering="auto" aria-hidden="true"><metadata xmlns:rdf="http://www.w3.org/1999/02/22-rdf-syntax-ns#" xmlns:xsi="http://www.w3.org/2001/XMLSchema-instance" xmlns:dc="http://purl.org/dc/elements/1.1/" xmlns:dcterms="http://purl.org/dc/terms/"><rdf:RDF><rdf:Description><dc:title>Shapes</dc:title><dc:creator>DiceBear</dc:creator><dc:source xsi:type="dcterms:URI">https://www.dicebear.com</dc:source><dcterms:license xsi:type="dcterms:URI">https://creativecommons.org/publicdomain/zero/1.0/</dcterms:license><dc:rights>“Shapes” (https://www.dicebear.com) by “DiceBear”, licensed under “CC0 1.0” (https://creativecommons.org/publicdomain/zero/1.0/)</dc:rights></rdf:Description></rdf:RDF></metadata><defs><g id="shape01-ellipseFilled-84e82d2c"><path d="M100 200a50 50 0 1 1-100 0 50 50 0 0 1 100 0" fill="#0a5b83"/></g><g id="shape02-ellipseFilled-84e82d2c"><path d="M100 200a50 50 0 1 1-100 0 50 50 0 0 1 100 0" fill="#1c799f"/></g><g id="shape03-rectangleFilled-84e82d2c"><path d="M0 150h100v100H0z" fill="#69d2e7"/></g><clipPath id="clip-84e82d2c"><rect width="100" height="100" rx="0" ry="0"/></clipPath></defs><g clip-path="url(#clip-84e82d2c)"><rect width="100" height="100" fill="#f1f4dc"/><use transform="matrix(1.2 0 0 1.2 -10 -190) translate(-48.4093, 62.532) rotate(8.4957, 50, 200) translate(50, 200) scale(0.9868) translate(-50, -200)" href="#shape01-ellipseFilled-84e82d2c"/><use transform="matrix(.8 0 0 .8 10 -110) translate(-29.0204, 50.3156) rotate(-123.0682, 50, 200) translate(50, 200) scale(0.9463) translate(-50, -200)" href="#shape02-ellipseFilled-84e82d2c"/><use transform="matrix(.4 0 0 .4 30 -30) translate(35.5052, -38.0876) rotate(-95.346, 50, 200) translate(50, 200) scale(1.0714) translate(-50, -200)" href="#shape03-rectangleFilled-84e82d2c"/></g></svg>