<svg xmlns="http://www.w3.org/2000/svg" viewBox="0 0 200 200" fill="none" shape-rendering="auto" aria-hidden="true"><metadata xmlns:rdf="http://www.w3.org/1999/02/22-rdf-syntax-ns#" xmlns:xsi="http://www.w3.org/2001/XMLSchema-instance" xmlns:dc="http://purl.org/dc/elements/1.1/" xmlns:dcterms="http://purl.org/dc/terms/"><rdf:RDF><rdf:Description><dc:title>Fun Emoji Set</dc:title><dc:creator>Davis Uche</dc:creator><dc:source xsi:type="dcterms:URI">https://www.figma.com/community/file/968125295144990435</dc:source><dcterms:license xsi:type="dcterms:URI">https://creativecommons.org/licenses/by/4.0/</dcterms:license><dc:rights>Remix of “Fun Emoji Set” (https://www.figma.com/community/file/968125295144990435) by “Davis Uche”, licensed under “CC BY 4.0” (https://creativecommons.org/licenses/by/4.0/)</dc:rights></rdf:Description></rdf:RDF></metadata><defs><g id="mouth-sad-87e831e5"><path d="M65.54 32.25h-.75c-9.7.22-20.8 5.3-23.7 16.15a1.4 1.4 0 0 0 .44 1.55 1.4 1.4 0 0 0 2.26-.85C46.34 39.63 56.2 35.2 64.85 35c8.24-.16 19.04 3.84 22.46 14.57a1.5 1.5 0 0 0 1.65.55q.47-.14.75-.52t.3-.86c-3.14-9.8-12.69-16.5-24.45-16.5" fill="black"/></g><g id="eyes-cute-87e831e5"><path d="M101.44 60.92h-6.6c-9.72 0-9.72.07-9.72-9.73v-3.3a13.04 13.04 0 0 1 13.02-13.02 13.04 13.04 0 0 1 13.03 13.02v3.38c-.03 9.72-.03 9.65-9.73 9.65" fill="black"/><path d="M93.77 44.52a2.28 2.28 0 1 0 0-4.57 2.28 2.28 0 0 0 0 4.57" fill="white"/><path opacity=".1" d="M98 53.31a5.31 5.31 0 1 0 0-10.62 5.31 5.31 0 0 0 0 10.6" fill="white"/><path d="M40.44 60.92h-6.6c-9.72 0-9.72.07-9.72-9.73v-3.3a13.04 13.04 0 0 1 13.02-13.02A13.04 13.04 0 0 1 50.17 47.9v3.38c-.03 9.72-.03 9.65-9.73 9.65" fill="black"/><path d="M32.87 44.53a2.29 2.29 0 1 0 0-4.57 2.29 2.29 0 0 0 0 4.57" fill="white"/><path opacity=".1" d="M37.11 53.35a5.32 5.32 0 1 0 0-10.65 5.32 5.32 0 0 0 0 10.65" fill="white"/></g><clipPath id="clip-87e831e5"><rect width="200" height="200" rx="0" ry="0"/></clipPath></defs><g clip-path="url(#clip-87e831e5)"><rect width="200" height="200" fill="#f6d594"/><use transform="translate(-1.06 79.3)scale(1.5625)" href="#mouth-sad-87e831e5"/><use transform="matrix(1.55291 0 0 1.56067 -5.27 8.75)" href="#eyes-cute-87e831e5"/></g></svg>