<svg xmlns="http://www.w3.org/2000/svg" viewBox="0 0 200 200" fill="none" shape-rendering="auto" aria-hidden="true"><metadata xmlns:rdf="http://www.w3.org/1999/02/22-rdf-syntax-ns#" xmlns:xsi="http://www.w3.org/2001/XMLSchema-instance" xmlns:dc="http://purl.org/dc/elements/1.1/" xmlns:dcterms="http://purl.org/dc/terms/"><rdf:RDF><rdf:Description><dc:title>Fun Emoji Set</dc:title><dc:creator>Davis Uche</dc:creator><dc:source xsi:type="dcterms:URI">https://www.figma.com/community/file/968125295144990435</dc:source><dcterms:license xsi:type="dcterms:URI">https://creativecommons.org/licenses/by/4.0/</dcterms:license><dc:rights>Remix of “Fun Emoji Set” (https://www.figma.com/community/file/968125295144990435) by “Davis Uche”, licensed under “CC BY 4.0” (https://creativecommons.org/licenses/by/4.0/)</dc:rights></rdf:Description></rdf:RDF></metadata><defs><g id="mouth-sad-99b460ed"><path d="M65.54 32.25h-.75c-9.7.22-20.8 5.3-23.7 16.15a1.4 1.4 0 0 0 .44 1.55 1.4 1.4 0 0 0 2.26-.85C46.34 39.63 56.2 35.2 64.85 35c8.24-.16 19.04 3.84 22.46 14.57a1.5 1.5 0 0 0 1.65.55q.47-.14.75-.52t.3-.86c-3.14-9.8-12.69-16.5-24.45-16.5" fill="black"/></g><g id="eyes-wink2-99b460ed"><path d="M101.41 61h-6.59c-9.7 0-9.7.07-9.7-9.7v-4.1A12.2 12.2 0 0 1 97.32 35h1.6a12.2 12.2 0 0 1 12.2 12.2v4.17c-.03 9.7-.03 9.63-9.7 9.63" fill="black"/><path d="M93.87 44.53a2.29 2.29 0 1 0 0-4.57 2.29 2.29 0 0 0 0 4.57" fill="white"/><path opacity=".1" d="M98.11 53.35a5.32 5.32 0 1 0 0-10.65 5.32 5.32 0 0 0 0 10.65" fill="white"/><path d="M25.82 54q-.26 0-.5-.09a1.7 1.7 0 0 1-1-.84 1.8 1.8 0 0 1-.13-1.33 13.5 13.5 0 0 1 4.86-7.1A13 13 0 0 1 37.12 42c2.9-.03 5.73.9 8.06 2.67a13.6 13.6 0 0 1 4.86 7.07c.13.44.09.92-.12 1.33a1.7 1.7 0 0 1-2.3.73 1.7 1.7 0 0 1-.84-1.03c-.62-2.13-1.9-4-3.66-5.32a10 10 0 0 0-6.06-2 10 10 0 0 0-6.02 2.02 10.3 10.3 0 0 0-3.64 5.3q-.17.53-.6.87a1.7 1.7 0 0 1-.98.36" fill="black"/></g><clipPath id="clip-99b460ed"><rect width="200" height="200" rx="0" ry="0"/></clipPath></defs><g clip-path="url(#clip-99b460ed)"><rect width="200" height="200" fill="#f6d594"/><use transform="translate(-1.06 79.3)scale(1.5625)" href="#mouth-sad-99b460ed"/><use transform="matrix(1.55291 0 0 1.56067 -5.27 8.75)" href="#eyes-wink2-99b460ed"/></g></svg>