<svg xmlns="http://www.w3.org/2000/svg" viewBox="0 0 100 100" fill="none" shape-rendering="auto" aria-hidden="true"><metadata xmlns:rdf="http://www.w3.org/1999/02/22-rdf-syntax-ns#" xmlns:xsi="http://www.w3.org/2001/XMLSchema-instance" xmlns:dc="http://purl.org/dc/elements/1.1/" xmlns:dcterms="http://purl.org/dc/terms/"><rdf:RDF><rdf:Description><dc:title>Shapes</dc:title><dc:creator>DiceBear</dc:creator><dc:source xsi:type="dcterms:URI">https://www.dicebear.com</dc:source><dcterms:license xsi:type="dcterms:URI">https://creativecommons.org/publicdomain/zero/1.0/</dcterms:license><dc:rights>“Shapes” (https://www.dicebear.com) by “DiceBear”, licensed under “CC0 1.0” (https://creativecommons.org/publicdomain/zero/1.0/)</dc:rights></rdf:Description></rdf:RDF></metadata><defs><g id="shape01-ellipseFilled-2e0b3225"><path d="M100 200a50 50 0 1 1-100 0 50 50 0 0 1 100 0" fill="#0a5b83"/></g><g id="shape02-polygonFilled-2e0b3225"><path d="m50 157 50 86.6H0z" fill="#f1f4dc"/></g><g id="shape03-rectangleFilled-2e0b3225"><path d="M0 150h100v100H0z" fill="#69d2e7"/></g><clipPath id="clip-2e0b3225"><rect width="100" height="100" rx="0" ry="0"/></clipPath></defs><g clip-path="url(#clip-2e0b3225)"><rect width="100" height="100" fill="#1c799f"/><use transform="matrix(1.2 0 0 1.2 -10 -190) translate(1.7832, -0.0696) rotate(-88.5163, 50, 200) translate(50, 200) scale(0.9346) translate(-50, -200)" href="#shape01-ellipseFilled-2e0b3225"/><use transform="matrix(.8 0 0 .8 10 -110) translate(52.8328, -59.3792) rotate(-156.5853, 50, 200) translate(50, 200) scale(1.0211) translate(-50, -200)" href="#shape02-polygonFilled-2e0b3225"/><use transform="matrix(.4 0 0 .4 30 -30) translate(15.9162, 11.7132) rotate(-42.1973, 50, 200) translate(50, 200) scale(1.018) translate(-50, -200)" href="#shape03-rectangleFilled-2e0b3225"/></g></svg>