<svg xmlns="http://www.w3.org/2000/svg" viewBox="0 0 180 180" fill="none" shape-rendering="auto" aria-hidden="true"><metadata xmlns:rdf="http://www.w3.org/1999/02/22-rdf-syntax-ns#" xmlns:xsi="http://www.w3.org/2001/XMLSchema-instance" xmlns:dc="http://purl.org/dc/elements/1.1/" xmlns:dcterms="http://purl.org/dc/terms/"><rdf:RDF><rdf:Description><dc:title>Bottts</dc:title><dc:creator>Pablo Stanley</dc:creator><dc:source xsi:type="dcterms:URI">https://bottts.com/</dc:source><dcterms:license xsi:type="dcterms:URI">https://bottts.com/</dcterms:license><dc:rights>Remix of “Bottts” (https://bottts.com/) by “Pablo Stanley”, licensed under “Free for personal and commercial use” (https://bottts.com/)</dc:rights></rdf:Description></rdf:RDF></metadata><defs><g id="sides-cables01-290b2a46"><path d="M32 12c-2.95 11.7-19.9 6.67-23.37 18-3.46 11.35 8.03 20 17.53 20" stroke="#2A3544" stroke-width="6" opacity=".9"/><path d="M144 55c8.4 3.49 20.1-7.6 16-16.5s-16-6.7-16-19.3" stroke="#2A3544" stroke-width="4" opacity=".9"/><mask id="sidesCables01-a" style="mask-type:luminance"><rect x="15" y="35" width="16" height="22" rx="2" fill="white"/><rect x="130" y="42" width="23" height="22" rx="2" fill="white"/><rect x="130" y="6" width="23" height="18" rx="2" fill="white"/></mask><g mask="url(#sidesCables01-a)"><path d="M-6 0h180v76H-6z" fill="#159fbf"/><path d="M-6 0h180v76H-6z" fill="white" fill-opacity=".3"/></g></g><g id="top-pyramid-290b2a46"><mask id="topPyramid-a" style="mask-type:luminance"><path fill-rule="evenodd" clip-rule="evenodd" d="m42 8.6 32 44H10z" fill="white"/></mask><g mask="url(#topPyramid-a)"><path d="M-8 .6H92v52H-8z" fill="#159fbf"/><path d="M-8 .6H92v52H-8z" fill="white" fill-opacity=".3"/><rect x="42" y="4.59" width="30" height="48" fill="white" fill-opacity=".8"/></g></g><g id="head-square01-290b2a46"><mask id="headSquare01-a" style="mask-type:luminance"><rect width="130" height="120" rx="18" fill="white"/></mask><g mask="url(#headSquare01-a)"><path d="M-2-2h134v124H-2z" fill="#159fbf"/></g></g><g id="mouth-grill03-290b2a46"><rect y="1" width="68" height="22" rx="5" fill="black" fill-opacity=".2"/><rect x="4" y="5" width="60" height="14" rx="2" fill="white"/><rect x="14" y="5" width="4" height="14" fill="black" fill-opacity=".1"/><rect x="38" y="5" width="4" height="14" fill="black" fill-opacity=".1"/><rect x="26" y="5" width="4" height="14" fill="black" fill-opacity=".1"/><rect x="50" y="5" width="4" height="14" fill="black" fill-opacity=".1"/></g><g id="eyes-bulging-290b2a46"><circle cx="28" cy="24" r="18" fill="black" fill-opacity=".2"/><circle cx="74" cy="24" r="18" fill="black" fill-opacity=".2"/><circle cx="28" cy="24" r="15" fill="#F1EEDA"/><circle cx="74" cy="24" r="15" fill="#F1EEDA"/><rect x="26" y="15" width="10" height="10" rx="2" fill="black" fill-opacity=".8"/><rect x="74" y="15" width="10" height="10" rx="2" fill="black" fill-opacity=".8"/></g><clipPath id="clip-290b2a46"><rect width="180" height="180" rx="0" ry="0"/></clipPath></defs><g clip-path="url(#clip-290b2a46)"><use transform="translate(6 66)" href="#sides-cables01-290b2a46"/><use transform="translate(49 -.6)" href="#top-pyramid-290b2a46"/><use transform="translate(25 44)" href="#head-square01-290b2a46"/><use transform="translate(56 128)" href="#mouth-grill03-290b2a46"/><use transform="translate(38 76)" href="#eyes-bulging-290b2a46"/></g></svg>