<svg xmlns="http://www.w3.org/2000/svg" viewBox="0 0 180 180" fill="none" shape-rendering="auto" aria-hidden="true"><metadata xmlns:rdf="http://www.w3.org/1999/02/22-rdf-syntax-ns#" xmlns:xsi="http://www.w3.org/2001/XMLSchema-instance" xmlns:dc="http://purl.org/dc/elements/1.1/" xmlns:dcterms="http://purl.org/dc/terms/"><rdf:RDF><rdf:Description><dc:title>Bottts</dc:title><dc:creator>Pablo Stanley</dc:creator><dc:source xsi:type="dcterms:URI">https://bottts.com/</dc:source><dcterms:license xsi:type="dcterms:URI">https://bottts.com/</dcterms:license><dc:rights>Remix of “Bottts” (https://bottts.com/) by “Pablo Stanley”, licensed under “Free for personal and commercial use” (https://bottts.com/)</dc:rights></rdf:Description></rdf:RDF></metadata><defs><g id="sides-antenna02-bb9ae473"><mask id="sidesAntenna02-a" style="mask-type:luminance"><rect x="4" y="28" width="36" height="32" rx="4" fill="white"/><rect x="154" y="9" width="2" height="20" fill="white"/><rect x="128" y="28" width="36" height="32" rx="4" fill="white"/></mask><g mask="url(#sidesAntenna02-a)"><path d="M-6 0h180v76H-6z" fill="#978d87"/><path d="M-6 0h180v76H-6z" fill="white" fill-opacity=".3"/><rect x="-6" y="38" width="180" height="38" fill="black" fill-opacity=".1"/></g><rect x="154" y="8" width="2" height="20" fill="white" fill-opacity=".4"/><circle cx="155" cy="5" r="4" fill="#E1E6E8"/><circle cx="156" cy="4" r="2" fill="white"/></g><g id="top-bulb01-bb9ae473"><mask id="topBulb01-a" style="mask-type:luminance"><path fill-rule="evenodd" clip-rule="evenodd" d="M24 16.6a16 16 0 0 1 16-16h4a16 16 0 0 1 16 16v16a8 8 0 0 1-8 8H32a8 8 0 0 1-8-8z" fill="white"/><rect x="14" y="40.59" width="56" height="12" rx="1" fill="white"/></mask><g mask="url(#topBulb01-a)"><path d="M-8 .6H92v52H-8z" fill="#978d87"/><path d="M-8 .6H92v52H-8z" fill="white" fill-opacity=".3"/><rect x="12" y="-2.41" width="60" height="43" fill="white" fill-opacity=".4"/><path d="M41 4.1c4.93 0 9.37 2.12 12.44 5.51" stroke="white" stroke-width="2" stroke-linecap="round"/><path d="M54.14 20.42 44 30.57v10.02h-4V30.42l-10-10 2.83-2.83 9 9h.48l9.02-9z" fill="white" fill-opacity=".8"/></g></g><g id="head-round02-bb9ae473"><mask id="headRound02-a" style="mask-type:luminance"><path fill-rule="evenodd" clip-rule="evenodd" d="M0 31v-1c.18-.48.4-1.5 1-3 .83-3.06 2.78-6.56 6-10C16.7 6.6 35.17 0 65 0s48.3 6.6 58 17c3.22 3.44 5.17 6.94 6 10 .6 1.5.82 2.52 1 3v40c0-.1-.03.5 0 1a54 54 0 0 1-1 6c-1.19 6-3.4 11.91-7 17-9.72 16.34-27.74 26-57 26s-47.28-9.66-57-26c-3.6-5.1-5.8-11-7-17a54 54 0 0 1-1-6c.03-.45 0-1.32 0-1z" fill="white"/></mask><g mask="url(#headRound02-a)"><path d="M-4-2h138v124H-4z" fill="#978d87"/></g></g><g id="mouth-diagram-bb9ae473"><rect width="68" height="24" rx="5" fill="black" fill-opacity=".2"/><rect x="4" y="4" width="60" height="16" rx="2" fill="black" fill-opacity=".8"/><path d="M5 13h11l2-4 3 7 4-8 2 9 3-11 3 10 3-3h15l3-4 2 7 3-3h4" stroke="#4EFAC9" stroke-width="2" stroke-linecap="round" stroke-linejoin="round"/></g><g id="eyes-hearts-bb9ae473"><path d="M29.27 9.68c-2.55.13-4.96 2.24-6.25 4.15-1.48-1.76-4.1-3.6-6.65-3.47-5.48.28-8.85 3.8-8.63 8.1.3 5.72 4.88 8.89 9.7 12.24 1.7 1.15 5 4.15 5.42 4.82s2.14.6 2.58-.13a38 38 0 0 1 4.9-5.36c4.43-3.84 8.66-7.47 8.36-13.2-.23-4.3-3.95-7.44-9.43-7.15m58.36.68c-2.55-.14-5.17 1.7-6.65 3.47-1.3-1.9-3.7-4.02-6.25-4.15-5.48-.29-9.2 2.86-9.43 7.16-.3 5.72 3.93 9.35 8.36 13.2 1.6 1.31 4.55 4.63 4.9 5.35.35.7 2.06.82 2.58.13a37 37 0 0 1 5.42-4.82c4.8-3.35 9.4-6.52 9.7-12.24.22-4.3-3.15-7.82-8.63-8.1" fill="#FF5353" fill-opacity=".8"/></g><clipPath id="clip-bb9ae473"><rect width="180" height="180" rx="0" ry="0"/></clipPath></defs><g clip-path="url(#clip-bb9ae473)"><use transform="translate(6 66)" href="#sides-antenna02-bb9ae473"/><use transform="translate(49 -.6)" href="#top-bulb01-bb9ae473"/><use transform="translate(25 44)" href="#head-round02-bb9ae473"/><use transform="translate(56 128)" href="#mouth-diagram-bb9ae473"/><use transform="translate(38 76)" href="#eyes-hearts-bb9ae473"/></g></svg>