<svg xmlns="http://www.w3.org/2000/svg" viewBox="0 0 200 200" fill="none" shape-rendering="auto" aria-hidden="true"><metadata xmlns:rdf="http://www.w3.org/1999/02/22-rdf-syntax-ns#" xmlns:xsi="http://www.w3.org/2001/XMLSchema-instance" xmlns:dc="http://purl.org/dc/elements/1.1/" xmlns:dcterms="http://purl.org/dc/terms/"><rdf:RDF><rdf:Description><dc:title>Fun Emoji Set</dc:title><dc:creator>Davis Uche</dc:creator><dc:source xsi:type="dcterms:URI">https://www.figma.com/community/file/968125295144990435</dc:source><dcterms:license xsi:type="dcterms:URI">https://creativecommons.org/licenses/by/4.0/</dcterms:license><dc:rights>Remix of “Fun Emoji Set” (https://www.figma.com/community/file/968125295144990435) by “Davis Uche”, licensed under “CC BY 4.0” (https://creativecommons.org/licenses/by/4.0/)</dc:rights></rdf:Description></rdf:RDF></metadata><defs><g id="mouth-sad-c19aede5"><path d="M65.54 32.25h-.75c-9.7.22-20.8 5.3-23.7 16.15a1.4 1.4 0 0 0 .44 1.55 1.4 1.4 0 0 0 2.26-.85C46.34 39.63 56.2 35.2 64.85 35c8.24-.16 19.04 3.84 22.46 14.57a1.5 1.5 0 0 0 1.65.55q.47-.14.75-.52t.3-.86c-3.14-9.8-12.69-16.5-24.45-16.5" fill="black"/></g><g id="eyes-plain-c19aede5"><path d="M111 48.04c0-7.2-5.82-13.04-13-13.04s-13 5.84-13 13.04v3.92C85 59.16 90.82 65 98 65s13-5.84 13-13.04z" fill="black"/><path d="M93.79 44.53a2.29 2.29 0 1 0 0-4.57 2.29 2.29 0 0 0 0 4.57" fill="white"/><path opacity=".1" d="M98.02 53.35a5.32 5.32 0 1 0 0-10.65 5.32 5.32 0 0 0 0 10.65" fill="white"/><path d="M50 48.04C50 40.84 44.18 35 37 35s-13 5.84-13 13.04v3.92C24 59.16 29.82 65 37 65s13-5.84 13-13.04z" fill="black"/><path d="M32.79 44.53a2.29 2.29 0 1 0 0-4.57 2.29 2.29 0 0 0 0 4.57" fill="white"/><path opacity=".1" d="M37.02 53.35a5.32 5.32 0 1 0 0-10.65 5.32 5.32 0 0 0 0 10.65" fill="white"/></g><clipPath id="clip-c19aede5"><rect width="200" height="200" rx="0" ry="0"/></clipPath></defs><g clip-path="url(#clip-c19aede5)"><rect width="200" height="200" fill="#fcbc34"/><use transform="translate(-1.06 79.3)scale(1.5625)" href="#mouth-sad-c19aede5"/><use transform="matrix(1.55291 0 0 1.56067 -5.27 8.75)" href="#eyes-plain-c19aede5"/></g></svg>