<svg xmlns="http://www.w3.org/2000/svg" viewBox="0 0 5 5" fill="none" shape-rendering="crispEdges" aria-hidden="true"><metadata xmlns:rdf="http://www.w3.org/1999/02/22-rdf-syntax-ns#" xmlns:xsi="http://www.w3.org/2001/XMLSchema-instance" xmlns:dc="http://purl.org/dc/elements/1.1/" xmlns:dcterms="http://purl.org/dc/terms/"><rdf:RDF><rdf:Description><dc:title>Identicon</dc:title><dc:creator>DiceBear</dc:creator><dc:source xsi:type="dcterms:URI">https://www.dicebear.com</dc:source><dcterms:license xsi:type="dcterms:URI">https://creativecommons.org/publicdomain/zero/1.0/</dcterms:license><dc:rights>“Identicon” (https://www.dicebear.com) by “DiceBear”, licensed under “CC0 1.0” (https://creativecommons.org/publicdomain/zero/1.0/)</dc:rights></rdf:Description></rdf:RDF></metadata><defs><g id="row-oxoxo-be9ae92c"><path d="M2 1.01H1V-.01h1zm2 0H3V-.01h1z" fill="#e45e4d"/></g><g id="row-xxoxx-be9ae92c"><path d="M2 1.01H0V-.01h2zm3 0H3V-.01h2z" fill="#e45e4d"/></g><g id="row-xooox-be9ae92c"><path d="M1 1.01H0V-.01h1zm4 0H4V-.01h1z" fill="#e45e4d"/></g><g id="row-ooxoo-be9ae92c"><rect x="2" y="-.01" width="1" height="1.02" fill="#e45e4d"/></g><g id="row-xoxox-be9ae92c"><path d="M1 1.01H0V-.01h1zm2 0H2V-.01h1zm2 0H4V-.01h1z" fill="#e45e4d"/></g><clipPath id="clip-be9ae92c"><rect width="5" height="5" rx="0" ry="0"/></clipPath></defs><g clip-path="url(#clip-be9ae92c)"><use transform="translate(0 4)" href="#row-oxoxo-be9ae92c"/><use transform="translate(0 3)" href="#row-xxoxx-be9ae92c"/><use transform="translate(0 2)" href="#row-xooox-be9ae92c"/><use transform="translate(0 1)" href="#row-ooxoo-be9ae92c"/><use href="#row-xoxox-be9ae92c"/></g></svg>