<svg xmlns="http://www.w3.org/2000/svg" viewBox="0 0 200 200" fill="none" shape-rendering="auto" aria-hidden="true"><metadata xmlns:rdf="http://www.w3.org/1999/02/22-rdf-syntax-ns#" xmlns:xsi="http://www.w3.org/2001/XMLSchema-instance" xmlns:dc="http://purl.org/dc/elements/1.1/" xmlns:dcterms="http://purl.org/dc/terms/"><rdf:RDF><rdf:Description><dc:title>Fun Emoji Set</dc:title><dc:creator>Davis Uche</dc:creator><dc:source xsi:type="dcterms:URI">https://www.figma.com/community/file/968125295144990435</dc:source><dcterms:license xsi:type="dcterms:URI">https://creativecommons.org/licenses/by/4.0/</dcterms:license><dc:rights>Remix of “Fun Emoji Set” (https://www.figma.com/community/file/968125295144990435) by “Davis Uche”, licensed under “CC BY 4.0” (https://creativecommons.org/licenses/by/4.0/)</dc:rights></rdf:Description></rdf:RDF></metadata><defs><g id="mouth-drip-343d12da"><path fill-rule="evenodd" clip-rule="evenodd" d="M46 49.25a19.88 19.88 0 0 1 39 0c-9.72-7.8-30.4-7.44-39 0" fill="#2B1607"/><path d="M45.58 49.8q-.15 0-.3-.1a.6.6 0 0 1-.24-.27.6.6 0 0 1-.02-.36c2.48-9.9 10.54-16.22 20.5-16.22S83.55 39.27 86 49.13q.04.18-.02.35a.6.6 0 0 1-.23.27.6.6 0 0 1-.7 0c-9.4-7.44-30.24-7.44-39.1 0a.6.6 0 0 1-.35.04M65.32 43c7.07 0 14.22 1.59 19.11 4.76a19 19 0 0 0-7.03-10 20 20 0 0 0-11.83-3.83 20 20 0 0 0-11.82 3.8 19 19 0 0 0-7.06 9.98c4.58-3.12 11.6-4.7 18.63-4.7" fill="black"/><path d="M90 61.27a5 5 0 0 1-1.42 3.5 5.04 5.04 0 0 1-7.08.08 5 5 0 0 1-1.5-3.47c0-3.94 3.16-5.8 4.84-12.13 1.53 6.15 5.12 7.66 5.16 12.02" fill="#4ABCF4"/></g><g id="eyes-pissed-343d12da"><path d="M98 65a13 13 0 0 1-13-13v-.66c0-10.45 11.55-17.21 18.93-16.25 6.54.84 7.07 5.02 7.07 11.24V52a13 13 0 0 1-13 13" fill="black"/><path d="M93.82 44.67a2.29 2.29 0 1 0 0-4.58 2.29 2.29 0 0 0 0 4.58" fill="white"/><path opacity=".1" d="M98.06 53.48a5.32 5.32 0 1 0 0-10.64 5.32 5.32 0 0 0 0 10.64" fill="white"/><path d="M37 65a13 13 0 0 0 13-13v-.66C50 40.9 38.46 34.13 31.07 35.1c-6.56.84-7.07 5.02-7.07 11.24V52a13 13 0 0 0 13 13" fill="black"/><path d="M32.84 44.67a2.29 2.29 0 1 0 0-4.58 2.29 2.29 0 0 0 0 4.58" fill="white"/><path opacity=".1" d="M37.08 53.48a5.32 5.32 0 1 0 0-10.64 5.32 5.32 0 0 0 0 10.64" fill="white"/></g><clipPath id="clip-343d12da"><rect width="200" height="200" rx="0" ry="0"/></clipPath></defs><g clip-path="url(#clip-343d12da)"><rect width="200" height="200" fill="#d9915b"/><use transform="translate(-1.06 79.3)scale(1.5625)" href="#mouth-drip-343d12da"/><use transform="matrix(1.55291 0 0 1.56067 -5.27 8.75)" href="#eyes-pissed-343d12da"/></g></svg>