<svg xmlns="http://www.w3.org/2000/svg" viewBox="0 0 200 200" fill="none" shape-rendering="auto" aria-hidden="true"><metadata xmlns:rdf="http://www.w3.org/1999/02/22-rdf-syntax-ns#" xmlns:xsi="http://www.w3.org/2001/XMLSchema-instance" xmlns:dc="http://purl.org/dc/elements/1.1/" xmlns:dcterms="http://purl.org/dc/terms/"><rdf:RDF><rdf:Description><dc:title>Fun Emoji Set</dc:title><dc:creator>Davis Uche</dc:creator><dc:source xsi:type="dcterms:URI">https://www.figma.com/community/file/968125295144990435</dc:source><dcterms:license xsi:type="dcterms:URI">https://creativecommons.org/licenses/by/4.0/</dcterms:license><dc:rights>Remix of “Fun Emoji Set” (https://www.figma.com/community/file/968125295144990435) by “Davis Uche”, licensed under “CC BY 4.0” (https://creativecommons.org/licenses/by/4.0/)</dc:rights></rdf:Description></rdf:RDF></metadata><defs><linearGradient id="mouthTongueOut-a" x1="64.46" y1="65.25" x2="64.46" y2="36.25" gradientUnits="userSpaceOnUse"><stop stop-color="#EF0A0A"/><stop offset=".5" stop-color="#ED0A0A"/><stop offset=".67" stop-color="#E60A0A"/><stop offset=".8" stop-color="#DB0A0A"/><stop offset=".9" stop-color="#CA0A0A"/><stop offset=".99" stop-color="#B40A0A"/><stop offset="1" stop-color="#B10A0A"/></linearGradient><g id="mouth-tongueOut-2e3d0968"><path fill-rule="evenodd" clip-rule="evenodd" d="M29 24.25c10.24 32.68 61.73 31.31 72 0a168 168 0 0 1-72 0" fill="#2B1607"/><path d="M64.68 49.25h-.64c-17.41-.24-31.54-9.95-36-24.74a1 1 0 0 1 .2-.95 1 1 0 0 1 .91-.29 165 165 0 0 0 71.72 0 .9.9 0 0 1 .9.3 1 1 0 0 1 .2.97c-5.04 15.08-19.6 24.71-37.29 24.71m-34.35-23.7c4.73 13.13 17.76 21.54 33.7 21.77 16.57.24 30.25-8.26 35.52-21.77a167 167 0 0 1-69.22 0" fill="black"/><g opacity=".4" style="mix-blend-mode:soft-light"><path d="M47.02 55.49c5.08 5.58 28.25 5.95 33.85 0a80 80 0 0 1-33.85 0" fill="#422715"/><path d="M47.02 55.49c5.08 5.58 28.25 5.95 33.85 0a80 80 0 0 1-33.85 0Z" stroke="black" stroke-width="1.58" stroke-miterlimit="10"/></g><path fill-rule="evenodd" clip-rule="evenodd" d="M65.83 65.25H63.1c-2.67 0-5.24-1.06-7.13-2.94a10 10 0 0 1-2.96-7.1V39.79c0-1.9 2.8-3.94 4.88-3.46a29 29 0 0 0 13.26 0C73 35.93 76 37.88 76 39.78v15.44a10 10 0 0 1-6.28 9.29q-1.86.78-3.89.77" fill="url(#mouthTongueOut-a)"/><path fill-rule="evenodd" clip-rule="evenodd" d="M63.27 37.25c.95 3.75.33 13 1.13 13s.53-9.01 1.37-13z" fill="#A00707"/></g><g id="eyes-pissed-2e3d0968"><path d="M98 65a13 13 0 0 1-13-13v-.66c0-10.45 11.55-17.21 18.93-16.25 6.54.84 7.07 5.02 7.07 11.24V52a13 13 0 0 1-13 13" fill="black"/><path d="M93.82 44.67a2.29 2.29 0 1 0 0-4.58 2.29 2.29 0 0 0 0 4.58" fill="white"/><path opacity=".1" d="M98.06 53.48a5.32 5.32 0 1 0 0-10.64 5.32 5.32 0 0 0 0 10.64" fill="white"/><path d="M37 65a13 13 0 0 0 13-13v-.66C50 40.9 38.46 34.13 31.07 35.1c-6.56.84-7.07 5.02-7.07 11.24V52a13 13 0 0 0 13 13" fill="black"/><path d="M32.84 44.67a2.29 2.29 0 1 0 0-4.58 2.29 2.29 0 0 0 0 4.58" fill="white"/><path opacity=".1" d="M37.08 53.48a5.32 5.32 0 1 0 0-10.64 5.32 5.32 0 0 0 0 10.64" fill="white"/></g><clipPath id="clip-2e3d0968"><rect width="200" height="200" rx="0" ry="0"/></clipPath></defs><g clip-path="url(#clip-2e3d0968)"><rect width="200" height="200" fill="#71cf62"/><use transform="translate(-1.06 79.3)scale(1.5625)" href="#mouth-tongueOut-2e3d0968"/><use transform="matrix(1.55291 0 0 1.56067 -5.27 8.75)" href="#eyes-pissed-2e3d0968"/></g></svg>