<svg xmlns="http://www.w3.org/2000/svg" viewBox="0 0 180 180" fill="none" shape-rendering="auto" aria-hidden="true"><metadata xmlns:rdf="http://www.w3.org/1999/02/22-rdf-syntax-ns#" xmlns:xsi="http://www.w3.org/2001/XMLSchema-instance" xmlns:dc="http://purl.org/dc/elements/1.1/" xmlns:dcterms="http://purl.org/dc/terms/"><rdf:RDF><rdf:Description><dc:title>Bottts</dc:title><dc:creator>Pablo Stanley</dc:creator><dc:source xsi:type="dcterms:URI">https://bottts.com/</dc:source><dcterms:license xsi:type="dcterms:URI">https://bottts.com/</dcterms:license><dc:rights>Remix of “Bottts” (https://bottts.com/) by “Pablo Stanley”, licensed under “Free for personal and commercial use” (https://bottts.com/)</dc:rights></rdf:Description></rdf:RDF></metadata><defs><g id="sides-square-c9699ea5"><mask id="sidesSquare-a" style="mask-type:luminance"><rect x="8" y="16" width="36" height="44" rx="9" fill="white"/><rect x="124" y="16" width="36" height="44" rx="9" fill="white"/></mask><g mask="url(#sidesSquare-a)"><path d="M-6 0h180v76H-6z" fill="#e25a75"/><path d="M-6 0h180v76H-6z" fill="white" fill-opacity=".3"/><rect x="-6" y="38" width="180" height="38" fill="black" fill-opacity=".1"/></g></g><g id="top-radar-c9699ea5"><mask id="topRadar-a" style="mask-type:luminance"><path fill-rule="evenodd" clip-rule="evenodd" d="M35.8.7A20 20 0 1 0 64.08 29" fill="white"/><circle cx="59.13" cy="5.66" r="4" transform="rotate(45 59.13 5.66)" fill="white"/><rect x="56.31" y="7.07" width="2" height="26" transform="rotate(45 56.3 7.07)" fill="white"/><rect x="39.94" y="28.71" width="4" height="24" fill="white"/></mask><g mask="url(#topRadar-a)"><path d="M-8 .6H92v52H-8z" fill="#e25a75"/><path d="M-8 .6H92v52H-8z" fill="white" fill-opacity=".3"/><path fill-rule="evenodd" clip-rule="evenodd" d="M35.8.7A20 20 0 1 0 64.08 29" fill="white" fill-opacity=".2"/><circle cx="59.13" cy="8" r="5.66" transform="rotate(45 59.13 8)" fill="white" fill-opacity=".8"/></g></g><g id="head-round01-c9699ea5"><mask id="headRound01-a" style="mask-type:luminance"><path fill-rule="evenodd" clip-rule="evenodd" d="M66 0c58.35 0 64 40.69 64 78 0 33.32-25.47 42-64 42-37.46 0-66-8.69-66-42C0 40.69 7.65 0 66 0" fill="white"/></mask><g mask="url(#headRound01-a)"><path d="M-4-2h138v124H-4z" fill="#e25a75"/></g></g><g id="mouth-smile01-c9699ea5"><path d="M23.05 4.44a2 2 0 1 1 3.9-.88C27.72 6.96 30.4 9 34 9s6.28-2.04 7.05-5.44a2 2 0 1 1 3.9.88C43.75 9.7 39.43 13 34 13s-9.76-3.3-10.95-8.56" fill="black" fill-opacity=".6"/></g><g id="eyes-dizzy-c9699ea5"><path d="M30.5 15.3c.4-.4 1.1-.4 1.6 0l1.6 1.6c.4.4.4 1.1 0 1.6L28.2 24l5.5 5.5c.4.4.4 1.1 0 1.6l-1.6 1.6c-.4.4-1.1.4-1.6 0L25 27.2l-5.5 5.5c-.4.4-1.1.4-1.6 0l-1.6-1.6c-.4-.4-.4-1.1 0-1.6l5.5-5.5-5.5-5.5c-.4-.5-.4-1.2 0-1.6l1.6-1.6c.4-.4 1.1-.4 1.6 0l5.5 5.5zm54 0c.4-.4 1.1-.4 1.6 0l1.6 1.6c.4.4.4 1.1 0 1.6L82.2 24l5.5 5.5c.4.4.4 1.1 0 1.6l-1.6 1.6c-.4.4-1.1.4-1.6 0L79 27.2l-5.5 5.5c-.4.4-1.1.4-1.6 0l-1.6-1.6c-.4-.4-.4-1.1 0-1.6l5.5-5.5-5.5-5.5c-.4-.5-.4-1.2 0-1.6l1.6-1.6c.4-.4 1.1-.4 1.6 0l5.5 5.5z" fill="black" fill-opacity=".8"/></g><clipPath id="clip-c9699ea5"><rect width="180" height="180" rx="0" ry="0"/></clipPath></defs><g clip-path="url(#clip-c9699ea5)"><use transform="translate(6 66)" href="#sides-square-c9699ea5"/><use transform="translate(49 -.6)" href="#top-radar-c9699ea5"/><use transform="translate(25 44)" href="#head-round01-c9699ea5"/><use transform="translate(56 128)" href="#mouth-smile01-c9699ea5"/><use transform="translate(38 76)" href="#eyes-dizzy-c9699ea5"/></g></svg>