<svg xmlns="http://www.w3.org/2000/svg" viewBox="0 0 180 180" fill="none" shape-rendering="auto" aria-hidden="true"><metadata xmlns:rdf="http://www.w3.org/1999/02/22-rdf-syntax-ns#" xmlns:xsi="http://www.w3.org/2001/XMLSchema-instance" xmlns:dc="http://purl.org/dc/elements/1.1/" xmlns:dcterms="http://purl.org/dc/terms/"><rdf:RDF><rdf:Description><dc:title>Bottts</dc:title><dc:creator>Pablo Stanley</dc:creator><dc:source xsi:type="dcterms:URI">https://bottts.com/</dc:source><dcterms:license xsi:type="dcterms:URI">https://bottts.com/</dcterms:license><dc:rights>Remix of “Bottts” (https://bottts.com/) by “Pablo Stanley”, licensed under “Free for personal and commercial use” (https://bottts.com/)</dc:rights></rdf:Description></rdf:RDF></metadata><defs><g id="sides-cables01-2cc94f48"><path d="M32 12c-2.95 11.7-19.9 6.67-23.37 18-3.46 11.35 8.03 20 17.53 20" stroke="#2A3544" stroke-width="6" opacity=".9"/><path d="M144 55c8.4 3.49 20.1-7.6 16-16.5s-16-6.7-16-19.3" stroke="#2A3544" stroke-width="4" opacity=".9"/><mask id="sidesCables01-a" style="mask-type:luminance"><rect x="15" y="35" width="16" height="22" rx="2" fill="white"/><rect x="130" y="42" width="23" height="22" rx="2" fill="white"/><rect x="130" y="6" width="23" height="18" rx="2" fill="white"/></mask><g mask="url(#sidesCables01-a)"><path d="M-6 0h180v76H-6z" fill="#7a9f12"/><path d="M-6 0h180v76H-6z" fill="white" fill-opacity=".3"/></g></g><g id="top-radar-2cc94f48"><mask id="topRadar-a" style="mask-type:luminance"><path fill-rule="evenodd" clip-rule="evenodd" d="M35.8.7A20 20 0 1 0 64.08 29" fill="white"/><circle cx="59.13" cy="5.66" r="4" transform="rotate(45 59.13 5.66)" fill="white"/><rect x="56.31" y="7.07" width="2" height="26" transform="rotate(45 56.3 7.07)" fill="white"/><rect x="39.94" y="28.71" width="4" height="24" fill="white"/></mask><g mask="url(#topRadar-a)"><path d="M-8 .6H92v52H-8z" fill="#7a9f12"/><path d="M-8 .6H92v52H-8z" fill="white" fill-opacity=".3"/><path fill-rule="evenodd" clip-rule="evenodd" d="M35.8.7A20 20 0 1 0 64.08 29" fill="white" fill-opacity=".2"/><circle cx="59.13" cy="8" r="5.66" transform="rotate(45 59.13 8)" fill="white" fill-opacity=".8"/></g></g><g id="head-round02-2cc94f48"><mask id="headRound02-a" style="mask-type:luminance"><path fill-rule="evenodd" clip-rule="evenodd" d="M0 31v-1c.18-.48.4-1.5 1-3 .83-3.06 2.78-6.56 6-10C16.7 6.6 35.17 0 65 0s48.3 6.6 58 17c3.22 3.44 5.17 6.94 6 10 .6 1.5.82 2.52 1 3v40c0-.1-.03.5 0 1a54 54 0 0 1-1 6c-1.19 6-3.4 11.91-7 17-9.72 16.34-27.74 26-57 26s-47.28-9.66-57-26c-3.6-5.1-5.8-11-7-17a54 54 0 0 1-1-6c.03-.45 0-1.32 0-1z" fill="white"/></mask><g mask="url(#headRound02-a)"><path d="M-4-2h138v124H-4z" fill="#7a9f12"/></g></g><g id="mouth-grill01-2cc94f48"><rect x="8" y="8" width="4" height="8" rx="2" fill="black" fill-opacity=".6"/><rect x="32" y="8" width="4" height="8" rx="2" fill="black" fill-opacity=".6"/><rect x="20" y="8" width="4" height="8" rx="2" fill="black" fill-opacity=".6"/><rect x="44" y="8" width="4" height="8" rx="2" fill="black" fill-opacity=".6"/><rect x="56" y="8" width="4" height="8" rx="2" fill="black" fill-opacity=".6"/></g><g id="eyes-frame1-2cc94f48"><rect y="4" width="104" height="42" rx="4" fill="black" fill-opacity=".8"/><rect x="28" y="25" width="10" height="11" rx="2" fill="#8BDDFF"/><rect x="66" y="25" width="10" height="11" rx="2" fill="#8BDDFF"/><path fill-rule="evenodd" clip-rule="evenodd" d="M21 4h8L12 46H4z" fill="white" fill-opacity=".4"/></g><clipPath id="clip-2cc94f48"><rect width="180" height="180" rx="0" ry="0"/></clipPath></defs><g clip-path="url(#clip-2cc94f48)"><use transform="translate(6 66)" href="#sides-cables01-2cc94f48"/><use transform="translate(49 -.6)" href="#top-radar-2cc94f48"/><use transform="translate(25 44)" href="#head-round02-2cc94f48"/><use transform="translate(56 128)" href="#mouth-grill01-2cc94f48"/><use transform="translate(38 76)" href="#eyes-frame1-2cc94f48"/></g></svg>