<svg xmlns="http://www.w3.org/2000/svg" viewBox="0 0 100 100" fill="none" shape-rendering="auto" aria-hidden="true"><metadata xmlns:rdf="http://www.w3.org/1999/02/22-rdf-syntax-ns#" xmlns:xsi="http://www.w3.org/2001/XMLSchema-instance" xmlns:dc="http://purl.org/dc/elements/1.1/" xmlns:dcterms="http://purl.org/dc/terms/"><rdf:RDF><rdf:Description><dc:title>Rings</dc:title><dc:creator>DiceBear</dc:creator><dc:source xsi:type="dcterms:URI">https://www.dicebear.com</dc:source><dcterms:license xsi:type="dcterms:URI">https://creativecommons.org/publicdomain/zero/1.0/</dcterms:license><dc:rights>“Rings” (https://www.dicebear.com) by “DiceBear”, licensed under “CC0 1.0” (https://creativecommons.org/publicdomain/zero/1.0/)</dc:rights></rdf:Description></rdf:RDF></metadata><defs><g id="ring01-quarter-13870ccb"><path d="M50 10c-22.091 0-40 17.909-40 40H0C0 22.386 22.386 0 50 0z" fill="#e791c3"/></g><g id="ring02-eighth-13870ccb"><path d="M18.787 18.787C13.358 24.217 10 31.717 10 40H0c0-11.046 4.477-21.046 11.716-28.284z" fill="#e791c3"/></g><g id="ring03-eighth-13870ccb"><path d="M15.857 15.857A19.94 19.94 0 0 0 10 30H0c0-8.285 3.358-15.784 8.787-21.213z" fill="#e791c3"/></g><g id="ring04-eighth-13870ccb"><path d="M12.929 12.93A9.97 9.97 0 0 0 9.999 20H0A19.94 19.94 0 0 1 5.857 5.858z" fill="#e791c3"/></g><g id="ring05-quarter-13870ccb"><path d="M10 10H0C0 4.477 4.477 0 10 0z" fill="#e791c3"/></g><g id="ring-container-13870ccb"><use transform="rotate(-161.9471, 50, 50)" href="#ring01-quarter-13870ccb"/><use transform="translate(10 10) rotate(-63.6338, 40, 40)" href="#ring02-eighth-13870ccb"/><use transform="translate(20 20) rotate(93.6185, 30, 30)" href="#ring03-eighth-13870ccb"/><use transform="translate(30 30) rotate(177.1645, 20, 20)" href="#ring04-eighth-13870ccb"/><use transform="translate(40 40) rotate(48.0045, 10, 10)" href="#ring05-quarter-13870ccb"/><use transform="matrix(1 0 0 -1 0 100) rotate(-161.9471, 50, 50)" href="#ring01-quarter-13870ccb"/><use transform="matrix(1 0 0 -1 10 90) rotate(-63.6338, 40, 40)" href="#ring02-eighth-13870ccb"/><use transform="matrix(1 0 0 -1 20 80) rotate(93.6185, 30, 30)" href="#ring03-eighth-13870ccb"/><use transform="matrix(1 0 0 -1 30 70) rotate(177.1645, 20, 20)" href="#ring04-eighth-13870ccb"/><use transform="matrix(1 0 0 -1 40 60) rotate(48.0045, 10, 10)" href="#ring05-quarter-13870ccb"/><circle cx="50" cy="50" r="45" stroke="white" stroke-opacity=".25" stroke-width="10" style="mix-blend-mode:lighten"/><circle cx="50" cy="50" r="25" stroke="white" stroke-opacity=".25" stroke-width="10" style="mix-blend-mode:lighten"/><circle cx="50" cy="50" r="10" fill="white" fill-opacity=".25" style="mix-blend-mode:lighten"/></g><clipPath id="clip-13870ccb"><rect width="100" height="100" rx="0" ry="0"/></clipPath></defs><g clip-path="url(#clip-13870ccb)"><use transform="rotate(149.5582, 50, 50)" href="#ring-container-13870ccb"/></g></svg>