<svg xmlns="http://www.w3.org/2000/svg" viewBox="0 0 180 180" fill="none" shape-rendering="auto" aria-hidden="true"><metadata xmlns:rdf="http://www.w3.org/1999/02/22-rdf-syntax-ns#" xmlns:xsi="http://www.w3.org/2001/XMLSchema-instance" xmlns:dc="http://purl.org/dc/elements/1.1/" xmlns:dcterms="http://purl.org/dc/terms/"><rdf:RDF><rdf:Description><dc:title>Bottts</dc:title><dc:creator>Pablo Stanley</dc:creator><dc:source xsi:type="dcterms:URI">https://bottts.com/</dc:source><dcterms:license xsi:type="dcterms:URI">https://bottts.com/</dcterms:license><dc:rights>Remix of “Bottts” (https://bottts.com/) by “Pablo Stanley”, licensed under “Free for personal and commercial use” (https://bottts.com/)</dc:rights></rdf:Description></rdf:RDF></metadata><defs><g id="sides-cables02-e15b1cb5"><g opacity=".9"><ellipse cx="26.5" cy="23" rx="16.5" ry="18" stroke="#2A3544" stroke-width="6"/><path d="M23.51 36.76c-7.4 4.29-17 1.55-21.42-6.1" stroke="#2A3544" stroke-width="4"/><ellipse cx="22.5" cy="52.5" rx="16.5" ry="14.5" stroke="#2A3544" stroke-width="4"/></g><g opacity=".9"><path d="M162.6 60.42c-4.27-7.41-13.95-9.84-21.6-5.42" stroke="#2A3544" stroke-width="4"/><ellipse cx="142.5" cy="22.5" rx="16.5" ry="15.5" stroke="#2A3544" stroke-width="6"/></g><mask id="sidesCables02-a" style="mask-type:luminance"><rect x="15" y="27" width="16" height="22" rx="2" fill="white"/><rect x="16" y="60" width="16" height="12" rx="2" fill="white"/><rect x="137" y="42" width="16" height="22" rx="2" fill="white"/><rect x="137" width="16" height="22" rx="2" fill="white"/></mask><g mask="url(#sidesCables02-a)"><path d="M-6 0h180v76H-6z" fill="#1499da"/><path d="M-6 0h180v76H-6z" fill="white" fill-opacity=".3"/></g></g><g id="top-lights-e15b1cb5"><mask id="topLights-a" style="mask-type:luminance"><path d="M2 42.6a2 2 0 0 1 2-2h76a2 2 0 0 1 2 2v10H2z" fill="white"/><path d="M10 27.6a5 5 0 0 1 5-5h6a5 5 0 0 1 5 5v25H10zm24 0a5 5 0 0 1 5-5h6a5 5 0 0 1 5 5v25H34zm24 0a5 5 0 0 1 5-5h6a5 5 0 0 1 5 5v25H58z" fill="white"/></mask><g mask="url(#topLights-a)"><path d="M-8 .6H92v52H-8z" fill="#1499da"/><path d="M-8 .6H92v52H-8z" fill="white" fill-opacity=".3"/><rect x="-8" y=".59" width="100" height="40" fill="white" fill-opacity=".6"/><rect x="16" y="28.59" width="4" height="8" rx="2" fill="white" fill-opacity=".6"/><rect x="40" y="28.59" width="4" height="8" rx="2" fill="white" fill-opacity=".6"/><rect x="64" y="28.59" width="4" height="8" rx="2" fill="white" fill-opacity=".6"/></g></g><g id="texture-grunge02-e15b1cb5"><path d="M72.47 40.03q-.15-.02-.26-.12c-.1-.07-.15-.12-.14.14.01.5.67-.05.4-.02M52.33 54.92s.2-.56.03-.74q-.26.26-.03.74M50.5 58c.06 0 .57-.28.48-.43-.12-.18-.49.34-.49.42m15.4 7.15c-.12-.11-.52-.45-.27-.5.14-.03.5.36.32.54v-.01h-.01zm3.44 49.32c.13-.02.66-.36.34-.45-.21.01-.6.53-.34.51m26.3-12.14c-.05.05-.2.1-.34.12-.15.03-.26.06-.16.1.19.05.84.15.5-.23M48.1 77.63l.06-.1c1.02 0-.68.19-.07.1m75.45 38.3c.07-.03.08-.03.1-.12q-.1 0-.1.1m-51.37 7.87q.1 0 .1-.11-.1 0-.1.1M52.01 55.75c.08-.02.09-.03.1-.12-.08.02-.09.03-.1.12m56.84-1q-.01.11.1.1c-.02-.09-.02-.1-.1-.1m41.43 28.16c-.08.02-.09.03-.1.12.08-.02.09-.03.1-.12" fill="black" fill-opacity=".2"/></g><g id="head-square02-e15b1cb5"><mask id="headSquare02-a" style="mask-type:luminance"><path d="M0 12A12 12 0 0 1 12 0h106a12 12 0 0 1 12 12v70a38 38 0 0 1-38 38H38A38 38 0 0 1 0 82z" fill="white"/></mask><g mask="url(#headSquare02-a)"><path d="M-2-2h134v124H-2z" fill="#1499da"/><use transform="translate(-44 -7)" href="#texture-grunge02-e15b1cb5"/></g></g><g id="mouth-square02-e15b1cb5"><rect x="12" y="4" width="44" height="4" rx="2" fill="black" fill-opacity=".8"/></g><g id="eyes-hearts-e15b1cb5"><path d="M29.27 9.68c-2.55.13-4.96 2.24-6.25 4.15-1.48-1.76-4.1-3.6-6.65-3.47-5.48.28-8.85 3.8-8.63 8.1.3 5.72 4.88 8.89 9.7 12.24 1.7 1.15 5 4.15 5.42 4.82s2.14.6 2.58-.13a38 38 0 0 1 4.9-5.36c4.43-3.84 8.66-7.47 8.36-13.2-.23-4.3-3.95-7.44-9.43-7.15m58.36.68c-2.55-.14-5.17 1.7-6.65 3.47-1.3-1.9-3.7-4.02-6.25-4.15-5.48-.29-9.2 2.86-9.43 7.16-.3 5.72 3.93 9.35 8.36 13.2 1.6 1.31 4.55 4.63 4.9 5.35.35.7 2.06.82 2.58.13a37 37 0 0 1 5.42-4.82c4.8-3.35 9.4-6.52 9.7-12.24.22-4.3-3.15-7.82-8.63-8.1" fill="#FF5353" fill-opacity=".8"/></g><clipPath id="clip-e15b1cb5"><rect width="180" height="180" rx="0" ry="0"/></clipPath></defs><g clip-path="url(#clip-e15b1cb5)"><use transform="translate(6 66)" href="#sides-cables02-e15b1cb5"/><use transform="translate(49 -.6)" href="#top-lights-e15b1cb5"/><use transform="translate(25 44)" href="#head-square02-e15b1cb5"/><use transform="translate(56 128)" href="#mouth-square02-e15b1cb5"/><use transform="translate(38 76)" href="#eyes-hearts-e15b1cb5"/></g></svg>