<svg xmlns="http://www.w3.org/2000/svg" viewBox="0 0 200 200" fill="none" shape-rendering="auto" aria-hidden="true"><metadata xmlns:rdf="http://www.w3.org/1999/02/22-rdf-syntax-ns#" xmlns:xsi="http://www.w3.org/2001/XMLSchema-instance" xmlns:dc="http://purl.org/dc/elements/1.1/" xmlns:dcterms="http://purl.org/dc/terms/"><rdf:RDF><rdf:Description><dc:title>Fun Emoji Set</dc:title><dc:creator>Davis Uche</dc:creator><dc:source xsi:type="dcterms:URI">https://www.figma.com/community/file/968125295144990435</dc:source><dcterms:license xsi:type="dcterms:URI">https://creativecommons.org/licenses/by/4.0/</dcterms:license><dc:rights>Remix of “Fun Emoji Set” (https://www.figma.com/community/file/968125295144990435) by “Davis Uche”, licensed under “CC BY 4.0” (https://creativecommons.org/licenses/by/4.0/)</dc:rights></rdf:Description></rdf:RDF></metadata><defs><g id="mouth-kissHeart-82ba484b"><path d="M65.3 56.25q-.54 0-.92-.4a1.4 1.4 0 0 1-.38-.98q0-.57.38-.98c.24-.26.57-.4.91-.4 3.77 0 5.99-1.37 6.1-3.75.1-2.72-2.52-6.04-6.22-6.42a1.3 1.3 0 0 1-.84-.48 1.5 1.5 0 0 1 .08-1.88q.35-.39.84-.45c3.66-.25 6.1-3.25 6.04-5.82 0-2.3-2.3-3.67-5.96-3.67q-.4-.15-.67-.53a1.5 1.5 0 0 1 0-1.7q.25-.4.67-.54c6.17 0 8.45 3.28 8.55 6.35a9 9 0 0 1-1.23 4.26 8 8 0 0 1-3.06 3.02 9 9 0 0 1 3.18 3.3A10 10 0 0 1 74 49.73c-.16 3.23-2.52 6.52-8.7 6.52" fill="black"/><path fill-rule="evenodd" clip-rule="evenodd" d="M132.8 30.52q-.13.74-.36 1.46c-2.88 10.4-16.3 16.3-23.8 19.9-6.09-6.31-17.4-17.25-15.4-28.6.25-1.51.78-2.96 1.58-4.25 3.97-6.6 13.73-7.44 19.41.96 9.68-6.98 20.37.3 18.57 10.49" fill="#CE0F0F"/><path opacity=".2" fill-rule="evenodd" clip-rule="evenodd" d="M132.8 30.52q-.13.75-.36 1.46c-4.52 8.33-15.82 13.3-22.4 16.5-6.16-6.25-17.42-17.13-15.43-28.55 0-.29.12-.57.2-.84 3.96-6.6 13.73-7.44 19.4.96 9.7-7 20.39.28 18.6 10.47" fill="white"/><path opacity=".4" fill-rule="evenodd" clip-rule="evenodd" d="M131.07 29.04c-.54-4.4-9.5-9.94-13.21-8.87 7.22-2.1 12.27 1.39 13.2 8.87" fill="white"/></g><g id="eyes-tearDrop-82ba484b"><path d="M98 65a13 13 0 0 0 13-13v-.66c0-10.45-11.55-17.21-18.93-16.25-6.54.84-7.07 5.02-7.07 11.24V52a13 13 0 0 0 13 13" fill="black"/><path d="M93.82 44.67a2.29 2.29 0 1 0 0-4.58 2.29 2.29 0 0 0 0 4.58" fill="white"/><path opacity=".1" d="M98.06 53.48a5.32 5.32 0 1 0 0-10.64 5.32 5.32 0 0 0 0 10.64" fill="white"/><path d="M37 65a13 13 0 0 1-13-13v-.66C24 40.9 35.54 34.13 42.93 35.1c6.56.84 7.07 5.02 7.07 11.24V52a13 13 0 0 1-13 13" fill="black"/><path d="M32.84 44.67a2.29 2.29 0 1 0 0-4.58 2.29 2.29 0 0 0 0 4.58" fill="white"/><path opacity=".1" d="M37.08 53.48a5.32 5.32 0 1 0 0-10.64 5.32 5.32 0 0 0 0 10.64" fill="white"/><path d="M113 80.55a6.3 6.3 0 0 1-1.85 4.53 6.56 6.56 0 0 1-9.2.1A6.3 6.3 0 0 1 100 80.7c0-5.1 4.1-7.52 6.3-15.7 1.98 7.96 6.64 9.9 6.7 15.55" fill="#4ABCF4"/></g><clipPath id="clip-82ba484b"><rect width="200" height="200" rx="0" ry="0"/></clipPath></defs><g clip-path="url(#clip-82ba484b)"><rect width="200" height="200" fill="#059ff2"/><use transform="translate(-1.06 79.3)scale(1.5625)" href="#mouth-kissHeart-82ba484b"/><use transform="matrix(1.55291 0 0 1.56067 -5.27 8.75)" href="#eyes-tearDrop-82ba484b"/></g></svg>