<svg xmlns="http://www.w3.org/2000/svg" viewBox="0 0 180 180" fill="none" shape-rendering="auto" aria-hidden="true"><metadata xmlns:rdf="http://www.w3.org/1999/02/22-rdf-syntax-ns#" xmlns:xsi="http://www.w3.org/2001/XMLSchema-instance" xmlns:dc="http://purl.org/dc/elements/1.1/" xmlns:dcterms="http://purl.org/dc/terms/"><rdf:RDF><rdf:Description><dc:title>Bottts</dc:title><dc:creator>Pablo Stanley</dc:creator><dc:source xsi:type="dcterms:URI">https://bottts.com/</dc:source><dcterms:license xsi:type="dcterms:URI">https://bottts.com/</dcterms:license><dc:rights>Remix of “Bottts” (https://bottts.com/) by “Pablo Stanley”, licensed under “Free for personal and commercial use” (https://bottts.com/)</dc:rights></rdf:Description></rdf:RDF></metadata><defs><g id="sides-squareAssymetric-de5b17fc"><mask id="sidesSquareAssymetric-a" style="mask-type:luminance"><rect x="4" y="31" width="36" height="30" rx="4" fill="white"/><rect x="14" y="15" width="26" height="30" rx="4" fill="white"/><rect x="133" y="23" width="36" height="30" rx="4" fill="white"/><rect x="128" y="8" width="36" height="60" rx="4" fill="white"/></mask><g mask="url(#sidesSquareAssymetric-a)"><path d="M-6 0h180v76H-6z" fill="#b46bd6"/><path d="M-6 0h180v76H-6z" fill="white" fill-opacity=".3"/><rect x="-6" y="47" width="180" height="29" fill="black" fill-opacity=".1"/><circle cx="155" cy="20" r="5" fill="white" fill-opacity=".6"/><circle cx="155" cy="36" r="5" fill="white" fill-opacity=".6"/></g></g><filter id="topGlowingBulb01-a" x="16" y=".59" width="52" height="48" filterUnits="userSpaceOnUse" color-interpolation-filters="sRGB"><feFlood flood-opacity="0" result="r0"/><feColorMatrix in="SourceAlpha" values="0 0 0 0 0 0 0 0 0 0 0 0 0 0 0 0 0 0 127 0" result="r1"/><feOffset/><feGaussianBlur stdDeviation="4"/><feColorMatrix values="0 0 0 0 1 0 0 0 0 1 0 0 0 0 1 0 0 0 0.5 0"/><feBlend in2="r0" result="r2"/><feBlend in="SourceGraphic" in2="r2" result="r3"/><feColorMatrix in="SourceAlpha" values="0 0 0 0 0 0 0 0 0 0 0 0 0 0 0 0 0 0 127 0" result="r1"/><feOffset/><feGaussianBlur stdDeviation="2"/><feComposite in2="r1" operator="arithmetic" k2="-1" k3="1"/><feColorMatrix values="0 0 0 0 1 0 0 0 0 1 0 0 0 0 1 0 0 0 0.5 0"/><feBlend in2="r3" result="r4"/></filter><g id="top-glowingBulb01-de5b17fc"><g filter="url(#topGlowingBulb01-a)"><path fill-rule="evenodd" clip-rule="evenodd" d="M24 24.6a16 16 0 0 1 16-16h4a16 16 0 0 1 16 16v8a8 8 0 0 1-8 8H32a8 8 0 0 1-8-8z" fill="white" fill-opacity=".3"/></g><path d="M41 12.1c4.93 0 9.37 2.12 12.44 5.51" stroke="white" stroke-width="2" stroke-linecap="round"/><path d="M54.14 23.42 44 33.57v7.02h-4v-7.17l-10-10 2.83-2.83 9 9h.48l9.02-9z" fill="white" fill-opacity=".8"/><rect x="14" y="40.59" width="56" height="12" rx="1" fill="#48494B"/></g><g id="texture-dirty02-de5b17fc"><path fill-rule="evenodd" clip-rule="evenodd" d="M143 130.65c-3.19-17.34-9.55-2.58-24.85-5.63-6.76-1.35-1.3-7.25-6.34-9.8-4.26-2.17-10.06-.43-14.94-1.82-7.04-2.02-6.95-6.12-13.5-6.73-6.2-.58-12.7 1.33-18.97.61-11.8-1.35-6.96-19.22-15.82-22.38-8.85-3.15-23.43 2.3-25.34 11.23-1.86 8.71 10.57 41.12 10.57 41.12H143" fill="black" fill-opacity=".2"/><path fill-rule="evenodd" clip-rule="evenodd" d="M179 122.77c-51.24 0-56.58-25.8-81.8-37.61C72 73.34 49.9 103.9 41.44 74.2S33 137.07 33 137.07h146z" fill="black" fill-opacity=".1"/><path fill-rule="evenodd" clip-rule="evenodd" d="M184.58 9.18c-11.94-.98-5.04 10.8-9.75 10.8-6.97 0-2.1-7.97-10.58-7.78-2.22.06-4.95 1.94-5.12 4.5-.36 5.52 3.72 15.03-1.83 15.3-5.18.25-1.1-9.64-1.65-16.24-.3-3.77-4.18-6.75-6.97-6.75-7.57 0-1.68 15.7-7.13 15.7s-1.21-9.05-5.08-13.84c-4.5-5.57-19.3-8.3-8.75-10.87h57.15" fill="black" fill-opacity=".4"/></g><g id="head-square03-de5b17fc"><mask id="headSquare03-a" style="mask-type:luminance"><path fill-rule="evenodd" clip-rule="evenodd" d="M0 18A18 18 0 0 1 18 0h94a18 18 0 0 1 18 18v27.15a40 40 0 0 1-2.28 13.31L110.24 108a18 18 0 0 1-16.98 12H36.74a18 18 0 0 1-16.98-12L2.28 58.45A40 40 0 0 1 0 45.15z" fill="white"/></mask><g mask="url(#headSquare03-a)"><path d="M-2-2h134v124H-2z" fill="#b46bd6"/><use transform="translate(-44 -7)" href="#texture-dirty02-de5b17fc"/></g></g><g id="mouth-square01-de5b17fc"><rect x="20" y="2" width="27" height="8" rx="4" fill="black" fill-opacity=".8"/></g><g id="eyes-roundFrame01-de5b17fc"><rect y="12" width="104" height="32" rx="16" fill="black" fill-opacity=".8"/><rect x="24" y="22" width="10" height="12" rx="2" fill="#F4F4F4"/><rect x="70" y="22" width="10" height="12" rx="2" fill="#F4F4F4"/></g><clipPath id="clip-de5b17fc"><rect width="180" height="180" rx="0" ry="0"/></clipPath></defs><g clip-path="url(#clip-de5b17fc)"><use transform="translate(6 66)" href="#sides-squareAssymetric-de5b17fc"/><use transform="translate(49 -.6)" href="#top-glowingBulb01-de5b17fc"/><use transform="translate(25 44)" href="#head-square03-de5b17fc"/><use transform="translate(56 128)" href="#mouth-square01-de5b17fc"/><use transform="translate(38 76)" href="#eyes-roundFrame01-de5b17fc"/></g></svg>