<svg xmlns="http://www.w3.org/2000/svg" viewBox="0 0 200 200" fill="none" shape-rendering="auto" aria-hidden="true"><metadata xmlns:rdf="http://www.w3.org/1999/02/22-rdf-syntax-ns#" xmlns:xsi="http://www.w3.org/2001/XMLSchema-instance" xmlns:dc="http://purl.org/dc/elements/1.1/" xmlns:dcterms="http://purl.org/dc/terms/"><rdf:RDF><rdf:Description><dc:title>Fun Emoji Set</dc:title><dc:creator>Davis Uche</dc:creator><dc:source xsi:type="dcterms:URI">https://www.figma.com/community/file/968125295144990435</dc:source><dcterms:license xsi:type="dcterms:URI">https://creativecommons.org/licenses/by/4.0/</dcterms:license><dc:rights>Remix of “Fun Emoji Set” (https://www.figma.com/community/file/968125295144990435) by “Davis Uche”, licensed under “CC BY 4.0” (https://creativecommons.org/licenses/by/4.0/)</dc:rights></rdf:Description></rdf:RDF></metadata><defs><g id="mouth-faceMask-81d6a9c5"><path fill-rule="evenodd" clip-rule="evenodd" d="M128.74 12.3v8.62q-.24.18-.51.3l-16.15 8.5-1.89 21.12c-.47 5.03-3.69 9.67-6.32 13.6l10.5 8.82a29 29 0 0 1-7.57 3.32l-7.9-6.68a28 28 0 0 1-15.79 6.56l-7.75.65q-11.17.93-22.33 0l-7.97-.68a28 28 0 0 1-14.9-5.88l-7.04 5.97a30 30 0 0 1-7.52-3.3l9.27-7.9c-3.09-4.1-6.58-9.07-7.07-14.5l-1.97-22.04-14.15-7.5q-.33-.15-.6-.4v-8.62l19.74 9.9h88.26z" fill="black" opacity=".4" style="mix-blend-mode:soft-light"/><path fill-rule="evenodd" clip-rule="evenodd" d="m83.05 73.52-7.77.65q-11.15.93-22.3 0L45 73.49a28 28 0 0 1-17.48-8.1 28.3 28.3 0 0 1-8.2-17.5l-2.57-28.66h94.54l-2.56 28.67a28.3 28.3 0 0 1-8.2 17.5 28 28 0 0 1-17.48 8.12" fill="#ECF5F8"/><path fill-rule="evenodd" clip-rule="evenodd" d="m128.26 18.29-20.34 9.77-3.2-6.66L128.8 9.34a.82.82 0 0 1 1.19.75l-.12 5.76a2.9 2.9 0 0 1-1.62 2.44m-126.52 0 20.34 9.77 3.2-6.66L1.18 9.34a.82.82 0 0 0-1.2.75l.1 5.76a2.9 2.9 0 0 0 1.6 2.44" fill="#ECF5F8"/><path d="m99.16 57.58 17 14.37a.87.87 0 0 1 .11 1.22l-1.88 2.25a3.6 3.6 0 0 1-5.1.44L94.4 63.28l4.71-5.63zm-63.91 5.75-14.9 12.59a3.6 3.6 0 0 1-5.1-.45l-1.88-2.25a.87.87 0 0 1 .1-1.22l17.01-14.37 4.71 5.63z" fill="#ECF5F8"/><path fill-rule="evenodd" clip-rule="evenodd" d="M64.1 68.83c-3.34 0-6.72-.13-10.04-.4l-7.42-.63a22.2 22.2 0 0 1-13.84-6.44c-3.71-3.72-6-8.64-6.47-13.88l-2.06-22.45h79.51l-2.02 22.46a22.4 22.4 0 0 1-6.48 13.89 22.2 22.2 0 0 1-13.87 6.42l-7.22.62c-3.35.34-6.75.41-10.1.41" fill="#E1EFF5"/><path d="M94.08 55.84c-9.87 9.76-50.76 9.16-59.71 0a251 251 0 0 0 59.71 0m2.93-12.77c-10.84 9.76-55.72 9.15-65.57 0a302 302 0 0 0 65.57 0m1.81-12.77c-11.44 9.75-58.72 9.15-69.1 0a334 334 0 0 0 69.09 0" fill="black" opacity=".8" style="mix-blend-mode:soft-light"/></g><g id="eyes-closed2-81d6a9c5"><path d="M99 56c-2.9.03-5.72-.9-8.04-2.64a13.5 13.5 0 0 1-4.85-7.02 1.75 1.75 0 0 1 .5-1.93 1.7 1.7 0 0 1 2.75.91c.6 2.12 1.88 3.97 3.62 5.28a10 10 0 0 0 6.04 1.98 10 10 0 0 0 6.03-1.99 10 10 0 0 0 3.65-5.27 1.69 1.69 0 0 1 3.08-.24c.21.38.27.83.17 1.26a13.5 13.5 0 0 1-4.87 7.04A13 13 0 0 1 99 56m-62 0c-2.9.03-5.73-.9-8.06-2.65a13.5 13.5 0 0 1-4.85-7.05 1.8 1.8 0 0 1 .47-1.89q.27-.22.6-.33a1.7 1.7 0 0 1 1.8.55q.2.27.3.6c.63 2.12 1.9 3.97 3.65 5.3a10 10 0 0 0 6.02 2 10 10 0 0 0 6.06-2 10.2 10.2 0 0 0 3.66-5.3 1.68 1.68 0 0 1 3.08-.26q.32.62.17 1.28a13.6 13.6 0 0 1-4.86 7.1 13.2 13.2 0 0 1-8.1 2.65" fill="black"/></g><clipPath id="clip-81d6a9c5"><rect width="200" height="200" rx="0" ry="0"/></clipPath></defs><g clip-path="url(#clip-81d6a9c5)"><rect width="200" height="200" fill="#f6d594"/><use transform="translate(-1.06 79.3)scale(1.5625)" href="#mouth-faceMask-81d6a9c5"/><use transform="matrix(1.55291 0 0 1.56067 -5.27 8.75)" href="#eyes-closed2-81d6a9c5"/></g></svg>