<svg xmlns="http://www.w3.org/2000/svg" viewBox="0 0 180 180" fill="none" shape-rendering="auto" aria-hidden="true"><metadata xmlns:rdf="http://www.w3.org/1999/02/22-rdf-syntax-ns#" xmlns:xsi="http://www.w3.org/2001/XMLSchema-instance" xmlns:dc="http://purl.org/dc/elements/1.1/" xmlns:dcterms="http://purl.org/dc/terms/"><rdf:RDF><rdf:Description><dc:title>Bottts</dc:title><dc:creator>Pablo Stanley</dc:creator><dc:source xsi:type="dcterms:URI">https://bottts.com/</dc:source><dcterms:license xsi:type="dcterms:URI">https://bottts.com/</dcterms:license><dc:rights>Remix of “Bottts” (https://bottts.com/) by “Pablo Stanley”, licensed under “Free for personal and commercial use” (https://bottts.com/)</dc:rights></rdf:Description></rdf:RDF></metadata><defs><g id="sides-squareAssymetric-7fd6a69f"><mask id="sidesSquareAssymetric-a" style="mask-type:luminance"><rect x="4" y="31" width="36" height="30" rx="4" fill="white"/><rect x="14" y="15" width="26" height="30" rx="4" fill="white"/><rect x="133" y="23" width="36" height="30" rx="4" fill="white"/><rect x="128" y="8" width="36" height="60" rx="4" fill="white"/></mask><g mask="url(#sidesSquareAssymetric-a)"><path d="M-6 0h180v76H-6z" fill="#c67c11"/><path d="M-6 0h180v76H-6z" fill="white" fill-opacity=".3"/><rect x="-6" y="47" width="180" height="29" fill="black" fill-opacity=".1"/><circle cx="155" cy="20" r="5" fill="white" fill-opacity=".6"/><circle cx="155" cy="36" r="5" fill="white" fill-opacity=".6"/></g></g><g id="top-horns-7fd6a69f"><mask id="topHorns-a" style="mask-type:luminance"><rect y="40.59" width="26" height="12" fill="white"/><rect width="26" height="12" transform="matrix(-1 0 0 1 84 40.6)" fill="white"/><path fill-rule="evenodd" clip-rule="evenodd" d="M8.52 14.34c0 7.84 5.39 20.7 13.72 27.03H3.36S-.16 23.27 5.43 14.7c.9-1.38 3.1-1.42 3.1-.36M76 14.6c.66 7.03-5.77 20.62-14 27h19s3.14-18.27-2-27c-1-1.7-3.14-1.45-3 0" fill="white"/></mask><g mask="url(#topHorns-a)"><path d="M-8 .6H92v52H-8z" fill="#c67c11"/><path d="M-8 .6H92v52H-8z" fill="white" fill-opacity=".3"/><rect x="-8" y="40.59" width="100" height="12" fill="black" fill-opacity=".4"/><path fill-rule="evenodd" clip-rule="evenodd" d="M7.46 13.6h16.1v27H12.83c-7.45-7.86-5.36-27-5.36-27m69.35 0h7.75v27H73.82c5.75-7.81 3-27 3-27" fill="white" fill-opacity=".4"/></g></g><g id="head-round02-7fd6a69f"><mask id="headRound02-a" style="mask-type:luminance"><path fill-rule="evenodd" clip-rule="evenodd" d="M0 31v-1c.18-.48.4-1.5 1-3 .83-3.06 2.78-6.56 6-10C16.7 6.6 35.17 0 65 0s48.3 6.6 58 17c3.22 3.44 5.17 6.94 6 10 .6 1.5.82 2.52 1 3v40c0-.1-.03.5 0 1a54 54 0 0 1-1 6c-1.19 6-3.4 11.91-7 17-9.72 16.34-27.74 26-57 26s-47.28-9.66-57-26c-3.6-5.1-5.8-11-7-17a54 54 0 0 1-1-6c.03-.45 0-1.32 0-1z" fill="white"/></mask><g mask="url(#headRound02-a)"><path d="M-4-2h138v124H-4z" fill="#c67c11"/></g></g><g id="mouth-smile01-7fd6a69f"><path d="M23.05 4.44a2 2 0 1 1 3.9-.88C27.72 6.96 30.4 9 34 9s6.28-2.04 7.05-5.44a2 2 0 1 1 3.9.88C43.75 9.7 39.43 13 34 13s-9.76-3.3-10.95-8.56" fill="black" fill-opacity=".6"/></g><g id="eyes-round-7fd6a69f"><circle cx="24" cy="30" r="6" fill="white"/><circle cx="80" cy="30" r="6" fill="white"/></g><clipPath id="clip-7fd6a69f"><rect width="180" height="180" rx="0" ry="0"/></clipPath></defs><g clip-path="url(#clip-7fd6a69f)"><use transform="translate(6 66)" href="#sides-squareAssymetric-7fd6a69f"/><use transform="translate(49 -.6)" href="#top-horns-7fd6a69f"/><use transform="translate(25 44)" href="#head-round02-7fd6a69f"/><use transform="translate(56 128)" href="#mouth-smile01-7fd6a69f"/><use transform="translate(38 76)" href="#eyes-round-7fd6a69f"/></g></svg>