<svg xmlns="http://www.w3.org/2000/svg" viewBox="0 0 100 100" fill="none" shape-rendering="auto" aria-hidden="true"><metadata xmlns:rdf="http://www.w3.org/1999/02/22-rdf-syntax-ns#" xmlns:xsi="http://www.w3.org/2001/XMLSchema-instance" xmlns:dc="http://purl.org/dc/elements/1.1/" xmlns:dcterms="http://purl.org/dc/terms/"><rdf:RDF><rdf:Description><dc:title>Rings</dc:title><dc:creator>DiceBear</dc:creator><dc:source xsi:type="dcterms:URI">https://www.dicebear.com</dc:source><dcterms:license xsi:type="dcterms:URI">https://creativecommons.org/publicdomain/zero/1.0/</dcterms:license><dc:rights>“Rings” (https://www.dicebear.com) by “DiceBear”, licensed under “CC0 1.0” (https://creativecommons.org/publicdomain/zero/1.0/)</dc:rights></rdf:Description></rdf:RDF></metadata><defs><g id="ring01-full-7ed6a50c"><circle cx="50" cy="50" r="45" stroke="#f49383" stroke-width="10"/></g><g id="ring02-full-7ed6a50c"><circle cx="40" cy="40" r="35" stroke="#f49383" stroke-width="10"/></g><g id="ring03-quarter-7ed6a50c"><path d="M30 10c-11.046 0-20 8.954-20 20H0C0 13.432 13.432 0 30 0z" fill="#f49383"/></g><g id="ring04-full-7ed6a50c"><circle cx="20" cy="20" r="15" stroke="#f49383" stroke-width="10"/></g><g id="ring05-eighth-7ed6a50c"><path d="M10 10H0a9.97 9.97 0 0 1 2.929-7.07z" fill="#f49383"/></g><g id="ring-container-7ed6a50c"><use transform="rotate(-111.0814, 50, 50)" href="#ring01-full-7ed6a50c"/><use transform="translate(10 10) rotate(-58.0711, 40, 40)" href="#ring02-full-7ed6a50c"/><use transform="translate(20 20) rotate(32.303, 30, 30)" href="#ring03-quarter-7ed6a50c"/><use transform="translate(30 30) rotate(-22.3942, 20, 20)" href="#ring04-full-7ed6a50c"/><use transform="translate(40 40) rotate(-9.1408, 10, 10)" href="#ring05-eighth-7ed6a50c"/><use transform="matrix(1 0 0 -1 0 100) rotate(-111.0814, 50, 50)" href="#ring01-full-7ed6a50c"/><use transform="matrix(1 0 0 -1 10 90) rotate(-58.0711, 40, 40)" href="#ring02-full-7ed6a50c"/><use transform="matrix(1 0 0 -1 20 80) rotate(32.303, 30, 30)" href="#ring03-quarter-7ed6a50c"/><use transform="matrix(1 0 0 -1 30 70) rotate(-22.3942, 20, 20)" href="#ring04-full-7ed6a50c"/><use transform="matrix(1 0 0 -1 40 60) rotate(-9.1408, 10, 10)" href="#ring05-eighth-7ed6a50c"/><circle cx="50" cy="50" r="45" stroke="white" stroke-opacity=".25" stroke-width="10" style="mix-blend-mode:lighten"/><circle cx="50" cy="50" r="25" stroke="white" stroke-opacity=".25" stroke-width="10" style="mix-blend-mode:lighten"/><circle cx="50" cy="50" r="10" fill="white" fill-opacity=".25" style="mix-blend-mode:lighten"/></g><clipPath id="clip-7ed6a50c"><rect width="100" height="100" rx="0" ry="0"/></clipPath></defs><g clip-path="url(#clip-7ed6a50c)"><use transform="rotate(148.7154, 50, 50)" href="#ring-container-7ed6a50c"/></g></svg>