<svg xmlns="http://www.w3.org/2000/svg" viewBox="0 0 100 100" fill="none" shape-rendering="auto" aria-hidden="true"><metadata xmlns:rdf="http://www.w3.org/1999/02/22-rdf-syntax-ns#" xmlns:xsi="http://www.w3.org/2001/XMLSchema-instance" xmlns:dc="http://purl.org/dc/elements/1.1/" xmlns:dcterms="http://purl.org/dc/terms/"><rdf:RDF><rdf:Description><dc:title>Shapes</dc:title><dc:creator>DiceBear</dc:creator><dc:source xsi:type="dcterms:URI">https://www.dicebear.com</dc:source><dcterms:license xsi:type="dcterms:URI">https://creativecommons.org/publicdomain/zero/1.0/</dcterms:license><dc:rights>“Shapes” (https://www.dicebear.com) by “DiceBear”, licensed under “CC0 1.0” (https://creativecommons.org/publicdomain/zero/1.0/)</dc:rights></rdf:Description></rdf:RDF></metadata><defs><g id="shape01-polygonFilled-902bec7b"><path d="m50 157 50 86.6H0z" fill="#1c799f"/></g><g id="shape02-line-902bec7b"><rect x="45" width="10" height="400" fill="#f1f4dc"/></g><g id="shape03-line-902bec7b"><rect x="45" width="10" height="400" fill="#f88c49"/></g><clipPath id="clip-902bec7b"><rect width="100" height="100" rx="0" ry="0"/></clipPath></defs><g clip-path="url(#clip-902bec7b)"><rect width="100" height="100" fill="#0a5b83"/><use transform="matrix(1.2 0 0 1.2 -10 -190) translate(48.014, -28.1884) rotate(-77.3813, 50, 200) translate(50, 200) scale(0.9284) translate(-50, -200)" href="#shape01-polygonFilled-902bec7b"/><use transform="matrix(.8 0 0 .8 10 -110) translate(-8.4048, 40.4572) rotate(134.496, 50, 200) translate(50, 200) scale(1.0601) translate(-50, -200)" href="#shape02-line-902bec7b"/><use transform="matrix(.4 0 0 .4 30 -30) translate(3.0739, -20.8844) rotate(38.5316, 50, 200) translate(50, 200) scale(1.032) translate(-50, -200)" href="#shape03-line-902bec7b"/></g></svg>