<svg xmlns="http://www.w3.org/2000/svg" viewBox="0 0 180 180" fill="none" shape-rendering="auto" aria-hidden="true"><metadata xmlns:rdf="http://www.w3.org/1999/02/22-rdf-syntax-ns#" xmlns:xsi="http://www.w3.org/2001/XMLSchema-instance" xmlns:dc="http://purl.org/dc/elements/1.1/" xmlns:dcterms="http://purl.org/dc/terms/"><rdf:RDF><rdf:Description><dc:title>Bottts</dc:title><dc:creator>Pablo Stanley</dc:creator><dc:source xsi:type="dcterms:URI">https://bottts.com/</dc:source><dcterms:license xsi:type="dcterms:URI">https://bottts.com/</dcterms:license><dc:rights>Remix of “Bottts” (https://bottts.com/) by “Pablo Stanley”, licensed under “Free for personal and commercial use” (https://bottts.com/)</dc:rights></rdf:Description></rdf:RDF></metadata><defs><g id="sides-cables01-b0fbcf4e"><path d="M32 12c-2.95 11.7-19.9 6.67-23.37 18-3.46 11.35 8.03 20 17.53 20" stroke="#2A3544" stroke-width="6" opacity=".9"/><path d="M144 55c8.4 3.49 20.1-7.6 16-16.5s-16-6.7-16-19.3" stroke="#2A3544" stroke-width="4" opacity=".9"/><mask id="sidesCables01-a" style="mask-type:luminance"><rect x="15" y="35" width="16" height="22" rx="2" fill="white"/><rect x="130" y="42" width="23" height="22" rx="2" fill="white"/><rect x="130" y="6" width="23" height="18" rx="2" fill="white"/></mask><g mask="url(#sidesCables01-a)"><path d="M-6 0h180v76H-6z" fill="#de6811"/><path d="M-6 0h180v76H-6z" fill="white" fill-opacity=".3"/></g></g><g id="top-lights-b0fbcf4e"><mask id="topLights-a" style="mask-type:luminance"><path d="M2 42.6a2 2 0 0 1 2-2h76a2 2 0 0 1 2 2v10H2z" fill="white"/><path d="M10 27.6a5 5 0 0 1 5-5h6a5 5 0 0 1 5 5v25H10zm24 0a5 5 0 0 1 5-5h6a5 5 0 0 1 5 5v25H34zm24 0a5 5 0 0 1 5-5h6a5 5 0 0 1 5 5v25H58z" fill="white"/></mask><g mask="url(#topLights-a)"><path d="M-8 .6H92v52H-8z" fill="#de6811"/><path d="M-8 .6H92v52H-8z" fill="white" fill-opacity=".3"/><rect x="-8" y=".59" width="100" height="40" fill="white" fill-opacity=".6"/><rect x="16" y="28.59" width="4" height="8" rx="2" fill="white" fill-opacity=".6"/><rect x="40" y="28.59" width="4" height="8" rx="2" fill="white" fill-opacity=".6"/><rect x="64" y="28.59" width="4" height="8" rx="2" fill="white" fill-opacity=".6"/></g></g><g id="texture-dots-b0fbcf4e"><path d="M51.4 123.8a2.1 2.1 0 1 1 0 4.2 2.1 2.1 0 0 1 0-4.2m12.6 0a2.1 2.1 0 1 1 0 4.2 2.1 2.1 0 0 1 0-4.2m12.6 0a2.1 2.1 0 1 1 0 4.2 2.1 2.1 0 0 1 0-4.2m-31.5-6.32a2.1 2.1 0 1 1 0 4.2 2.1 2.1 0 0 1 0-4.2m12.6 0a2.1 2.1 0 1 1 0 4.2 2.1 2.1 0 0 1 0-4.2m12.6 0a2.1 2.1 0 1 1 0 4.2 2.1 2.1 0 0 1 0-4.2m12.6 0a2.1 2.1 0 1 1 0 4.2 2.1 2.1 0 0 1 0-4.2m-31.5-6.31a2.1 2.1 0 1 1 0 4.2 2.1 2.1 0 0 1 0-4.2m12.6 0a2.1 2.1 0 1 1 0 4.2 2.1 2.1 0 0 1 0-4.2m13.1-.17a2.1 2.1 0 1 1 0 4.2 2.1 2.1 0 0 1 0-4.2m13 0a2.1 2.1 0 1 1 0 4.2 2.1 2.1 0 0 1 0-4.2m-20-6a2.1 2.1 0 1 1 0 4.2 2.1 2.1 0 0 1 0-4.2m24 0a2.1 2.1 0 1 1 0 4.2 2.1 2.1 0 0 1 0-4.2m-49-.14a2.1 2.1 0 1 1 0 4.2 2.1 2.1 0 0 1 0-4.2m12.6 0a2.1 2.1 0 1 1 0 4.2 2.1 2.1 0 0 1 0-4.2m25.2 0a2.1 2.1 0 1 1 0 4.2 2.1 2.1 0 0 1 0-4.2m-31.5-6.31a2.1 2.1 0 1 1 0 4.2 2.1 2.1 0 0 1 0-4.2m12.6 0a2.1 2.1 0 1 1 0 4.2 2.1 2.1 0 0 1 0-4.2m12.6 0a2.1 2.1 0 1 1 0 4.2 2.1 2.1 0 0 1 0-4.2m-31.5-6.31a2.1 2.1 0 1 1 0 4.2 2.1 2.1 0 0 1 0-4.2m12.6 0a2.1 2.1 0 1 1 0 4.2 2.1 2.1 0 0 1 0-4.2m12.6 0a2.1 2.1 0 1 1 0 4.2 2.1 2.1 0 0 1 0-4.2m12.6 0a2.1 2.1 0 1 1 0 4.2 2.1 2.1 0 0 1 0-4.2m-31.5-6.3a2.1 2.1 0 1 1 0 4.2 2.1 2.1 0 0 1 0-4.2m12.6 0a2.1 2.1 0 1 1 0 4.2 2.1 2.1 0 0 1 0-4.2m12.6 0a2.1 2.1 0 1 1 0 4.2 2.1 2.1 0 0 1 0-4.2m-31.5-6.32a2.1 2.1 0 1 1 0 4.2 2.1 2.1 0 0 1 0-4.2m12.6 0a2.1 2.1 0 1 1 0 4.2 2.1 2.1 0 0 1 0-4.2m12.6 0a2.1 2.1 0 1 1 0 4.2 2.1 2.1 0 0 1 0-4.2m12.6 0a2.1 2.1 0 1 1 0 4.2 2.1 2.1 0 0 1 0-4.2M51.4 73.3a2.1 2.1 0 1 1 0 4.2 2.1 2.1 0 0 1 0-4.2m12.6 0a2.1 2.1 0 1 1 0 4.2 2.1 2.1 0 0 1 0-4.2m12.6 0a2.1 2.1 0 1 1 0 4.2 2.1 2.1 0 0 1 0-4.2M57.7 67a2.1 2.1 0 1 1 0 4.2 2.1 2.1 0 0 1 0-4.2m12.6 0a2.1 2.1 0 1 1 0 4.2 2.1 2.1 0 0 1 0-4.2" fill="black" fill-opacity=".2"/><path d="M154 62.8a2.1 2.1 0 1 1 0 4.2 2.1 2.1 0 0 1 0-4.2m12.6 0a2.1 2.1 0 1 1 0 4.2 2.1 2.1 0 0 1 0-4.2m-18.9-6.32a2.1 2.1 0 1 1 0 4.2 2.1 2.1 0 0 1 0-4.2m25.2 0a2.1 2.1 0 1 1 0 4.2 2.1 2.1 0 0 1 0-4.2m-31.5-6.3a2.1 2.1 0 1 1 0 4.2 2.1 2.1 0 0 1 0-4.2m12.6 0a2.1 2.1 0 1 1 0 4.2 2.1 2.1 0 0 1 0-4.2m12.6 0a2.1 2.1 0 1 1 0 4.2 2.1 2.1 0 0 1 0-4.2m-18.9-6.32a2.1 2.1 0 1 1 0 4.2 2.1 2.1 0 0 1 0-4.2m12.6 0a2.1 2.1 0 1 1 0 4.2 2.1 2.1 0 0 1 0-4.2m12.6 0a2.1 2.1 0 1 1 0 4.2 2.1 2.1 0 0 1 0-4.2m-31.5-6.31a2.1 2.1 0 1 1 0 4.2 2.1 2.1 0 0 1 0-4.2m12.6 0a2.1 2.1 0 1 1 0 4.2 2.1 2.1 0 0 1 0-4.2m12.6 0a2.1 2.1 0 1 1 0 4.2 2.1 2.1 0 0 1 0-4.2m-31.5-6.3a2.1 2.1 0 1 1 0 4.19 2.1 2.1 0 0 1 0-4.2m12.6 0a2.1 2.1 0 1 1 0 4.2 2.1 2.1 0 0 1 0-4.2m12.6 0a2.1 2.1 0 1 1 0 4.2 2.1 2.1 0 0 1 0-4.2m12.6 0a2.1 2.1 0 1 1 0 4.2 2.1 2.1 0 0 1 0-4.2m-31.5-6.3a2.1 2.1 0 1 1 0 4.19 2.1 2.1 0 0 1 0-4.2m12.6 0a2.1 2.1 0 1 1 0 4.2 2.1 2.1 0 0 1 0-4.2m12.6 0a2.1 2.1 0 1 1 0 4.2 2.1 2.1 0 0 1 0-4.2m-31.5-6.3a2.1 2.1 0 1 1 0 4.2 2.1 2.1 0 0 1 0-4.2m12.6 0a2.1 2.1 0 1 1 0 4.2 2.1 2.1 0 0 1 0-4.2m12.6 0a2.1 2.1 0 1 1 0 4.2 2.1 2.1 0 0 1 0-4.2m12.6 0a2.1 2.1 0 1 1 0 4.2 2.1 2.1 0 0 1 0-4.2m-31.5-6.32a2.1 2.1 0 1 1 0 4.23 2.1 2.1 0 0 1 0-4.2m12.6 0a2.1 2.1 0 1 1 0 4.2 2.1 2.1 0 0 1 0-4.2m12.6 0a2.1 2.1 0 1 1 0 4.2 2.1 2.1 0 0 1 0-4.2M147.7 6a2.1 2.1 0 1 1 0 4.2 2.1 2.1 0 0 1 0-4.2m12.6 0a2.1 2.1 0 1 1 0 4.2 2.1 2.1 0 0 1 0-4.2" fill="black" fill-opacity=".1"/></g><g id="head-round01-b0fbcf4e"><mask id="headRound01-a" style="mask-type:luminance"><path fill-rule="evenodd" clip-rule="evenodd" d="M66 0c58.35 0 64 40.69 64 78 0 33.32-25.47 42-64 42-37.46 0-66-8.69-66-42C0 40.69 7.65 0 66 0" fill="white"/></mask><g mask="url(#headRound01-a)"><path d="M-4-2h138v124H-4z" fill="#de6811"/><use transform="translate(-44 -7)" href="#texture-dots-b0fbcf4e"/></g></g><g id="mouth-smile02-b0fbcf4e"><path fill-rule="evenodd" clip-rule="evenodd" d="M14 6.22C14 17.78 20.47 24 34 24c13.52 0 20-6.34 20-17.78C54 5.5 53.17 4 51 4H17c-2.05 0-3 1.38-3 2.22" fill="black" fill-opacity=".8"/><mask id="mouthSmile02-a" style="mask-type:luminance"><path fill-rule="evenodd" clip-rule="evenodd" d="M14 6.22C14 17.78 20.47 24 34 24c13.52 0 20-6.34 20-17.78C54 5.5 53.17 4 51 4H17c-2.05 0-3 1.38-3 2.22" fill="white"/></mask><g mask="url(#mouthSmile02-a)"><rect x="26" y="-2" width="16" height="14" rx="2" fill="white"/></g></g><g id="eyes-shade01-b0fbcf4e"><path d="M96 2H8c-4.5 0-8 3.5-8 8.03V28c0 4.5 3.5 8 8 8h13c8 0 11 8 18 8h27c7 0 9-8 17-8h13c4.5 0 8-3.5 8-8V10c0-4.5-3.5-8-8-8" fill="black" fill-opacity=".8"/><path d="M87 14H17c-3.5 0-5 3-5 5v2c0 2 1.5 5 5 5h12c6 0 11.62 8 17 8h14c5.38 0 9-8 15-8h12c3.5 0 5-3 5-5v-2c0-2-1.5-5-5-5" fill="#FF3D3D"/><path d="M31.4 40.78c-2.63-1.98-5.23-4.22-8.96-4.7L37.26 2h11zM15.48 36h-4L26.26 2h4z" fill="white" fill-opacity=".2"/></g><clipPath id="clip-b0fbcf4e"><rect width="180" height="180" rx="0" ry="0"/></clipPath></defs><g clip-path="url(#clip-b0fbcf4e)"><use transform="translate(6 66)" href="#sides-cables01-b0fbcf4e"/><use transform="translate(49 -.6)" href="#top-lights-b0fbcf4e"/><use transform="translate(25 44)" href="#head-round01-b0fbcf4e"/><use transform="translate(56 128)" href="#mouth-smile02-b0fbcf4e"/><use transform="translate(38 76)" href="#eyes-shade01-b0fbcf4e"/></g></svg>