<svg xmlns="http://www.w3.org/2000/svg" viewBox="0 0 100 100" fill="none" shape-rendering="auto" aria-hidden="true"><metadata xmlns:rdf="http://www.w3.org/1999/02/22-rdf-syntax-ns#" xmlns:xsi="http://www.w3.org/2001/XMLSchema-instance" xmlns:dc="http://purl.org/dc/elements/1.1/" xmlns:dcterms="http://purl.org/dc/terms/"><rdf:RDF><rdf:Description><dc:title>Rings</dc:title><dc:creator>DiceBear</dc:creator><dc:source xsi:type="dcterms:URI">https://www.dicebear.com</dc:source><dcterms:license xsi:type="dcterms:URI">https://creativecommons.org/publicdomain/zero/1.0/</dcterms:license><dc:rights>“Rings” (https://www.dicebear.com) by “DiceBear”, licensed under “CC0 1.0” (https://creativecommons.org/publicdomain/zero/1.0/)</dc:rights></rdf:Description></rdf:RDF></metadata><defs><g id="ring01-quarter-b2fbd274"><path d="M50 10c-22.091 0-40 17.909-40 40H0C0 22.386 22.386 0 50 0z" fill="#ed9b66"/></g><g id="ring02-half-b2fbd274"><path d="M40 0c22.091 0 40 17.909 40 40H70c0-16.568-13.431-30-30-30-16.568 0-30 13.432-30 30H0C0 17.909 17.909 0 40 0" fill="#ed9b66"/></g><g id="ring03-full-b2fbd274"><circle cx="30" cy="30" r="25" stroke="#ed9b66" stroke-width="10"/></g><g id="ring04-full-b2fbd274"><circle cx="20" cy="20" r="15" stroke="#ed9b66" stroke-width="10"/></g><g id="ring05-half-b2fbd274"><path d="M10 0c5.523 0 10 4.477 10 10H0C0 4.477 4.477 0 10 0" fill="#ed9b66"/></g><g id="ring-container-b2fbd274"><use transform="rotate(123.5132, 50, 50)" href="#ring01-quarter-b2fbd274"/><use transform="translate(10 10) rotate(45.1418, 40, 40)" href="#ring02-half-b2fbd274"/><use transform="translate(20 20) rotate(-119.3531, 30, 30)" href="#ring03-full-b2fbd274"/><use transform="translate(30 30) rotate(126.33, 20, 20)" href="#ring04-full-b2fbd274"/><use transform="translate(40 40) rotate(-132.7232, 10, 10)" href="#ring05-half-b2fbd274"/><use transform="matrix(1 0 0 -1 0 100) rotate(123.5132, 50, 50)" href="#ring01-quarter-b2fbd274"/><use transform="matrix(1 0 0 -1 10 90) rotate(45.1418, 40, 40)" href="#ring02-half-b2fbd274"/><use transform="matrix(1 0 0 -1 20 80) rotate(-119.3531, 30, 30)" href="#ring03-full-b2fbd274"/><use transform="matrix(1 0 0 -1 30 70) rotate(126.33, 20, 20)" href="#ring04-full-b2fbd274"/><use transform="matrix(1 0 0 -1 40 60) rotate(-132.7232, 10, 10)" href="#ring05-half-b2fbd274"/><circle cx="50" cy="50" r="45" stroke="white" stroke-opacity=".25" stroke-width="10" style="mix-blend-mode:lighten"/><circle cx="50" cy="50" r="25" stroke="white" stroke-opacity=".25" stroke-width="10" style="mix-blend-mode:lighten"/><circle cx="50" cy="50" r="10" fill="white" fill-opacity=".25" style="mix-blend-mode:lighten"/></g><clipPath id="clip-b2fbd274"><rect width="100" height="100" rx="0" ry="0"/></clipPath></defs><g clip-path="url(#clip-b2fbd274)"><use transform="rotate(145.552, 50, 50)" href="#ring-container-b2fbd274"/></g></svg>