<svg xmlns="http://www.w3.org/2000/svg" viewBox="0 0 200 200" fill="none" shape-rendering="auto" aria-hidden="true"><metadata xmlns:rdf="http://www.w3.org/1999/02/22-rdf-syntax-ns#" xmlns:xsi="http://www.w3.org/2001/XMLSchema-instance" xmlns:dc="http://purl.org/dc/elements/1.1/" xmlns:dcterms="http://purl.org/dc/terms/"><rdf:RDF><rdf:Description><dc:title>Fun Emoji Set</dc:title><dc:creator>Davis Uche</dc:creator><dc:source xsi:type="dcterms:URI">https://www.figma.com/community/file/968125295144990435</dc:source><dcterms:license xsi:type="dcterms:URI">https://creativecommons.org/licenses/by/4.0/</dcterms:license><dc:rights>Remix of “Fun Emoji Set” (https://www.figma.com/community/file/968125295144990435) by “Davis Uche”, licensed under “CC BY 4.0” (https://creativecommons.org/licenses/by/4.0/)</dc:rights></rdf:Description></rdf:RDF></metadata><defs><g id="mouth-smileTeeth-d76b3dcb"><path fill-rule="evenodd" clip-rule="evenodd" d="M29 21.25c0 44 72 44 72 0-24.3 8.87-48.3 9.13-72 0" fill="white"/><path fill-rule="evenodd" clip-rule="evenodd" d="M36 41.25c14.35 15.8 43.35 16 58 .58a140 140 0 0 1-58-.58" fill="#DDDBDB"/><path d="M65.04 55.24a40 40 0 0 1-25.36-8.45C32.08 40.59 28 31.8 28 21.3a1 1 0 0 1 .45-.87 1.1 1.1 0 0 1 .97-.12c22.9 8.8 46.85 8.8 71.12 0a1.05 1.05 0 0 1 1.46.99c0 10.48-4.02 19.3-11.68 25.47a40 40 0 0 1-25.28 8.45m-34.86-32.4c.8 20.81 18.44 30.32 34.86 30.32s34.1-9.5 34.86-30.35c-23.78 8.32-47.22 8.34-69.72.04" fill="black"/><path d="M50 56.25c4.5 5.16 25.03 5.5 30 0a68 68 0 0 1-30 0" fill="black" opacity=".4" style="mix-blend-mode:soft-light"/></g><g id="eyes-tearDrop-d76b3dcb"><path d="M98 65a13 13 0 0 0 13-13v-.66c0-10.45-11.55-17.21-18.93-16.25-6.54.84-7.07 5.02-7.07 11.24V52a13 13 0 0 0 13 13" fill="black"/><path d="M93.82 44.67a2.29 2.29 0 1 0 0-4.58 2.29 2.29 0 0 0 0 4.58" fill="white"/><path opacity=".1" d="M98.06 53.48a5.32 5.32 0 1 0 0-10.64 5.32 5.32 0 0 0 0 10.64" fill="white"/><path d="M37 65a13 13 0 0 1-13-13v-.66C24 40.9 35.54 34.13 42.93 35.1c6.56.84 7.07 5.02 7.07 11.24V52a13 13 0 0 1-13 13" fill="black"/><path d="M32.84 44.67a2.29 2.29 0 1 0 0-4.58 2.29 2.29 0 0 0 0 4.58" fill="white"/><path opacity=".1" d="M37.08 53.48a5.32 5.32 0 1 0 0-10.64 5.32 5.32 0 0 0 0 10.64" fill="white"/><path d="M113 80.55a6.3 6.3 0 0 1-1.85 4.53 6.56 6.56 0 0 1-9.2.1A6.3 6.3 0 0 1 100 80.7c0-5.1 4.1-7.52 6.3-15.7 1.98 7.96 6.64 9.9 6.7 15.55" fill="#4ABCF4"/></g><clipPath id="clip-d76b3dcb"><rect width="200" height="200" rx="0" ry="0"/></clipPath></defs><g clip-path="url(#clip-d76b3dcb)"><rect width="200" height="200" fill="#059ff2"/><use transform="translate(-1.06 79.3)scale(1.5625)" href="#mouth-smileTeeth-d76b3dcb"/><use transform="matrix(1.55291 0 0 1.56067 -5.27 8.75)" href="#eyes-tearDrop-d76b3dcb"/></g></svg>