<svg xmlns="http://www.w3.org/2000/svg" viewBox="0 0 180 180" fill="none" shape-rendering="auto" aria-hidden="true"><metadata xmlns:rdf="http://www.w3.org/1999/02/22-rdf-syntax-ns#" xmlns:xsi="http://www.w3.org/2001/XMLSchema-instance" xmlns:dc="http://purl.org/dc/elements/1.1/" xmlns:dcterms="http://purl.org/dc/terms/"><rdf:RDF><rdf:Description><dc:title>Bottts</dc:title><dc:creator>Pablo Stanley</dc:creator><dc:source xsi:type="dcterms:URI">https://bottts.com/</dc:source><dcterms:license xsi:type="dcterms:URI">https://bottts.com/</dcterms:license><dc:rights>Remix of “Bottts” (https://bottts.com/) by “Pablo Stanley”, licensed under “Free for personal and commercial use” (https://bottts.com/)</dc:rights></rdf:Description></rdf:RDF></metadata><defs><g id="sides-round-d86b3f5e"><mask id="sidesRound-a" style="mask-type:luminance"><ellipse cx="144" cy="38.5" rx="18" ry="22.5" fill="white"/><ellipse cx="18" cy="22.5" rx="18" ry="22.5" transform="matrix(-1 0 0 1 42 16)" fill="white"/></mask><g mask="url(#sidesRound-a)"><path d="M-6 0h180v76H-6z" fill="#9975ea"/><path d="M-6 0h180v76H-6z" fill="white" fill-opacity=".3"/><rect x="14" width="140" height="76" fill="black" fill-opacity=".2"/></g></g><g id="top-antennaCrooked-d86b3f5e"><mask id="topAntennaCrooked-a" style="mask-type:luminance"><path d="M47.54 34.98 43 45.59h-3.74l4.92-10.43-6.05-10.43 3.22-11.84 2.9.8-2.9 10.6z" fill="white"/><rect x="30" y="39.59" width="24" height="13" fill="white"/></mask><g mask="url(#topAntennaCrooked-a)"><path d="M-8 .6H92v52H-8z" fill="#9975ea"/><path d="M-8 6.6H92v52H-8z" fill="white" fill-opacity=".3"/><rect x="30" y="39.59" width="24" height="13" fill="white" fill-opacity=".2"/></g><circle cx="42" cy="8.59" r="8" fill="#FFE65C"/><circle cx="45" cy="5.59" r="3" fill="white"/></g><g id="texture-grunge02-d86b3f5e"><path d="M72.47 40.03q-.15-.02-.26-.12c-.1-.07-.15-.12-.14.14.01.5.67-.05.4-.02M52.33 54.92s.2-.56.03-.74q-.26.26-.03.74M50.5 58c.06 0 .57-.28.48-.43-.12-.18-.49.34-.49.42m15.4 7.15c-.12-.11-.52-.45-.27-.5.14-.03.5.36.32.54v-.01h-.01zm3.44 49.32c.13-.02.66-.36.34-.45-.21.01-.6.53-.34.51m26.3-12.14c-.05.05-.2.1-.34.12-.15.03-.26.06-.16.1.19.05.84.15.5-.23M48.1 77.63l.06-.1c1.02 0-.68.19-.07.1m75.45 38.3c.07-.03.08-.03.1-.12q-.1 0-.1.1m-51.37 7.87q.1 0 .1-.11-.1 0-.1.1M52.01 55.75c.08-.02.09-.03.1-.12-.08.02-.09.03-.1.12m56.84-1q-.01.11.1.1c-.02-.09-.02-.1-.1-.1m41.43 28.16c-.08.02-.09.03-.1.12.08-.02.09-.03.1-.12" fill="black" fill-opacity=".2"/></g><g id="head-square03-d86b3f5e"><mask id="headSquare03-a" style="mask-type:luminance"><path fill-rule="evenodd" clip-rule="evenodd" d="M0 18A18 18 0 0 1 18 0h94a18 18 0 0 1 18 18v27.15a40 40 0 0 1-2.28 13.31L110.24 108a18 18 0 0 1-16.98 12H36.74a18 18 0 0 1-16.98-12L2.28 58.45A40 40 0 0 1 0 45.15z" fill="white"/></mask><g mask="url(#headSquare03-a)"><path d="M-2-2h134v124H-2z" fill="#9975ea"/><use transform="translate(-44 -7)" href="#texture-grunge02-d86b3f5e"/></g></g><g id="mouth-smile01-d86b3f5e"><path d="M23.05 4.44a2 2 0 1 1 3.9-.88C27.72 6.96 30.4 9 34 9s6.28-2.04 7.05-5.44a2 2 0 1 1 3.9.88C43.75 9.7 39.43 13 34 13s-9.76-3.3-10.95-8.56" fill="black" fill-opacity=".6"/></g><g id="eyes-hearts-d86b3f5e"><path d="M29.27 9.68c-2.55.13-4.96 2.24-6.25 4.15-1.48-1.76-4.1-3.6-6.65-3.47-5.48.28-8.85 3.8-8.63 8.1.3 5.72 4.88 8.89 9.7 12.24 1.7 1.15 5 4.15 5.42 4.82s2.14.6 2.58-.13a38 38 0 0 1 4.9-5.36c4.43-3.84 8.66-7.47 8.36-13.2-.23-4.3-3.95-7.44-9.43-7.15m58.36.68c-2.55-.14-5.17 1.7-6.65 3.47-1.3-1.9-3.7-4.02-6.25-4.15-5.48-.29-9.2 2.86-9.43 7.16-.3 5.72 3.93 9.35 8.36 13.2 1.6 1.31 4.55 4.63 4.9 5.35.35.7 2.06.82 2.58.13a37 37 0 0 1 5.42-4.82c4.8-3.35 9.4-6.52 9.7-12.24.22-4.3-3.15-7.82-8.63-8.1" fill="#FF5353" fill-opacity=".8"/></g><clipPath id="clip-d86b3f5e"><rect width="180" height="180" rx="0" ry="0"/></clipPath></defs><g clip-path="url(#clip-d86b3f5e)"><use transform="translate(6 66)" href="#sides-round-d86b3f5e"/><use transform="translate(49 -.6)" href="#top-antennaCrooked-d86b3f5e"/><use transform="translate(25 44)" href="#head-square03-d86b3f5e"/><use transform="translate(56 128)" href="#mouth-smile01-d86b3f5e"/><use transform="translate(38 76)" href="#eyes-hearts-d86b3f5e"/></g></svg>