<svg xmlns="http://www.w3.org/2000/svg" viewBox="0 0 100 100" fill="none" shape-rendering="auto" aria-hidden="true"><metadata xmlns:rdf="http://www.w3.org/1999/02/22-rdf-syntax-ns#" xmlns:xsi="http://www.w3.org/2001/XMLSchema-instance" xmlns:dc="http://purl.org/dc/elements/1.1/" xmlns:dcterms="http://purl.org/dc/terms/"><rdf:RDF><rdf:Description><dc:title>Rings</dc:title><dc:creator>DiceBear</dc:creator><dc:source xsi:type="dcterms:URI">https://www.dicebear.com</dc:source><dcterms:license xsi:type="dcterms:URI">https://creativecommons.org/publicdomain/zero/1.0/</dcterms:license><dc:rights>“Rings” (https://www.dicebear.com) by “DiceBear”, licensed under “CC0 1.0” (https://creativecommons.org/publicdomain/zero/1.0/)</dc:rights></rdf:Description></rdf:RDF></metadata><defs><g id="ring01-full-dd6b473d"><circle cx="50" cy="50" r="45" stroke="#7bb4fc" stroke-width="10"/></g><g id="ring02-eighth-dd6b473d"><path d="M18.787 18.787C13.358 24.217 10 31.717 10 40H0c0-11.046 4.477-21.046 11.716-28.284z" fill="#7bb4fc"/></g><g id="ring03-full-dd6b473d"><circle cx="30" cy="30" r="25" stroke="#7bb4fc" stroke-width="10"/></g><g id="ring04-quarter-dd6b473d"><path d="M20 10c-5.523 0-10 4.477-10 10H0C0 8.954 8.954 0 20 0z" fill="#7bb4fc"/></g><g id="ring05-eighth-dd6b473d"><path d="M10 10H0a9.97 9.97 0 0 1 2.929-7.07z" fill="#7bb4fc"/></g><g id="ring-container-dd6b473d"><use transform="rotate(-44.269, 50, 50)" href="#ring01-full-dd6b473d"/><use transform="translate(10 10) rotate(145.9258, 40, 40)" href="#ring02-eighth-dd6b473d"/><use transform="translate(20 20) rotate(48.1263, 30, 30)" href="#ring03-full-dd6b473d"/><use transform="translate(30 30) rotate(114.1154, 20, 20)" href="#ring04-quarter-dd6b473d"/><use transform="translate(40 40) rotate(-136.0251, 10, 10)" href="#ring05-eighth-dd6b473d"/><use transform="matrix(1 0 0 -1 0 100) rotate(-44.269, 50, 50)" href="#ring01-full-dd6b473d"/><use transform="matrix(1 0 0 -1 10 90) rotate(145.9258, 40, 40)" href="#ring02-eighth-dd6b473d"/><use transform="matrix(1 0 0 -1 20 80) rotate(48.1263, 30, 30)" href="#ring03-full-dd6b473d"/><use transform="matrix(1 0 0 -1 30 70) rotate(114.1154, 20, 20)" href="#ring04-quarter-dd6b473d"/><use transform="matrix(1 0 0 -1 40 60) rotate(-136.0251, 10, 10)" href="#ring05-eighth-dd6b473d"/><circle cx="50" cy="50" r="45" stroke="white" stroke-opacity=".25" stroke-width="10" style="mix-blend-mode:lighten"/><circle cx="50" cy="50" r="25" stroke="white" stroke-opacity=".25" stroke-width="10" style="mix-blend-mode:lighten"/><circle cx="50" cy="50" r="10" fill="white" fill-opacity=".25" style="mix-blend-mode:lighten"/></g><clipPath id="clip-dd6b473d"><rect width="100" height="100" rx="0" ry="0"/></clipPath></defs><g clip-path="url(#clip-dd6b473d)"><use transform="rotate(165.5495, 50, 50)" href="#ring-container-dd6b473d"/></g></svg>