<svg xmlns="http://www.w3.org/2000/svg" viewBox="0 0 200 200" fill="none" shape-rendering="auto" aria-hidden="true"><metadata xmlns:rdf="http://www.w3.org/1999/02/22-rdf-syntax-ns#" xmlns:xsi="http://www.w3.org/2001/XMLSchema-instance" xmlns:dc="http://purl.org/dc/elements/1.1/" xmlns:dcterms="http://purl.org/dc/terms/"><rdf:RDF><rdf:Description><dc:title>Fun Emoji Set</dc:title><dc:creator>Davis Uche</dc:creator><dc:source xsi:type="dcterms:URI">https://www.figma.com/community/file/968125295144990435</dc:source><dcterms:license xsi:type="dcterms:URI">https://creativecommons.org/licenses/by/4.0/</dcterms:license><dc:rights>Remix of “Fun Emoji Set” (https://www.figma.com/community/file/968125295144990435) by “Davis Uche”, licensed under “CC BY 4.0” (https://creativecommons.org/licenses/by/4.0/)</dc:rights></rdf:Description></rdf:RDF></metadata><defs><g id="mouth-smileTeeth-b741c795"><path fill-rule="evenodd" clip-rule="evenodd" d="M29 21.25c0 44 72 44 72 0-24.3 8.87-48.3 9.13-72 0" fill="white"/><path fill-rule="evenodd" clip-rule="evenodd" d="M36 41.25c14.35 15.8 43.35 16 58 .58a140 140 0 0 1-58-.58" fill="#DDDBDB"/><path d="M65.04 55.24a40 40 0 0 1-25.36-8.45C32.08 40.59 28 31.8 28 21.3a1 1 0 0 1 .45-.87 1.1 1.1 0 0 1 .97-.12c22.9 8.8 46.85 8.8 71.12 0a1.05 1.05 0 0 1 1.46.99c0 10.48-4.02 19.3-11.68 25.47a40 40 0 0 1-25.28 8.45m-34.86-32.4c.8 20.81 18.44 30.32 34.86 30.32s34.1-9.5 34.86-30.35c-23.78 8.32-47.22 8.34-69.72.04" fill="black"/><path d="M50 56.25c4.5 5.16 25.03 5.5 30 0a68 68 0 0 1-30 0" fill="black" opacity=".4" style="mix-blend-mode:soft-light"/></g><g id="eyes-plain-b741c795"><path d="M111 48.04c0-7.2-5.82-13.04-13-13.04s-13 5.84-13 13.04v3.92C85 59.16 90.82 65 98 65s13-5.84 13-13.04z" fill="black"/><path d="M93.79 44.53a2.29 2.29 0 1 0 0-4.57 2.29 2.29 0 0 0 0 4.57" fill="white"/><path opacity=".1" d="M98.02 53.35a5.32 5.32 0 1 0 0-10.65 5.32 5.32 0 0 0 0 10.65" fill="white"/><path d="M50 48.04C50 40.84 44.18 35 37 35s-13 5.84-13 13.04v3.92C24 59.16 29.82 65 37 65s13-5.84 13-13.04z" fill="black"/><path d="M32.79 44.53a2.29 2.29 0 1 0 0-4.57 2.29 2.29 0 0 0 0 4.57" fill="white"/><path opacity=".1" d="M37.02 53.35a5.32 5.32 0 1 0 0-10.65 5.32 5.32 0 0 0 0 10.65" fill="white"/></g><clipPath id="clip-b741c795"><rect width="200" height="200" rx="0" ry="0"/></clipPath></defs><g clip-path="url(#clip-b741c795)"><rect width="200" height="200" fill="#d84be5"/><use transform="translate(-1.06 79.3)scale(1.5625)" href="#mouth-smileTeeth-b741c795"/><use transform="matrix(1.55291 0 0 1.56067 -5.27 8.75)" href="#eyes-plain-b741c795"/></g></svg>