<svg xmlns="http://www.w3.org/2000/svg" viewBox="0 0 200 200" fill="none" shape-rendering="auto" aria-hidden="true"><metadata xmlns:rdf="http://www.w3.org/1999/02/22-rdf-syntax-ns#" xmlns:xsi="http://www.w3.org/2001/XMLSchema-instance" xmlns:dc="http://purl.org/dc/elements/1.1/" xmlns:dcterms="http://purl.org/dc/terms/"><rdf:RDF><rdf:Description><dc:title>Fun Emoji Set</dc:title><dc:creator>Davis Uche</dc:creator><dc:source xsi:type="dcterms:URI">https://www.figma.com/community/file/968125295144990435</dc:source><dcterms:license xsi:type="dcterms:URI">https://creativecommons.org/licenses/by/4.0/</dcterms:license><dc:rights>Remix of “Fun Emoji Set” (https://www.figma.com/community/file/968125295144990435) by “Davis Uche”, licensed under “CC BY 4.0” (https://creativecommons.org/licenses/by/4.0/)</dc:rights></rdf:Description></rdf:RDF></metadata><defs><g id="mouth-drip-b141be23"><path fill-rule="evenodd" clip-rule="evenodd" d="M46 49.25a19.88 19.88 0 0 1 39 0c-9.72-7.8-30.4-7.44-39 0" fill="#2B1607"/><path d="M45.58 49.8q-.15 0-.3-.1a.6.6 0 0 1-.24-.27.6.6 0 0 1-.02-.36c2.48-9.9 10.54-16.22 20.5-16.22S83.55 39.27 86 49.13q.04.18-.02.35a.6.6 0 0 1-.23.27.6.6 0 0 1-.7 0c-9.4-7.44-30.24-7.44-39.1 0a.6.6 0 0 1-.35.04M65.32 43c7.07 0 14.22 1.59 19.11 4.76a19 19 0 0 0-7.03-10 20 20 0 0 0-11.83-3.83 20 20 0 0 0-11.82 3.8 19 19 0 0 0-7.06 9.98c4.58-3.12 11.6-4.7 18.63-4.7" fill="black"/><path d="M90 61.27a5 5 0 0 1-1.42 3.5 5.04 5.04 0 0 1-7.08.08 5 5 0 0 1-1.5-3.47c0-3.94 3.16-5.8 4.84-12.13 1.53 6.15 5.12 7.66 5.16 12.02" fill="#4ABCF4"/></g><g id="eyes-stars-b141be23"><path fill-rule="evenodd" clip-rule="evenodd" d="M30.54 24.58 32.36 23l10.06 14.43 17.5-1.54-7.85 15.71 9.31 14.07-1.8 1.59-17.32-2.23L29 76.57l-2.94-17.73L11 49.8l1.82-1.58 13.77-6.52z" fill="#2B8DD6"/><path fill-rule="evenodd" clip-rule="evenodd" d="m32.35 23 12.52 12.32 17.5-1.54-7.85 15.73 6.86 16.16-17.36-2.6-13.26 11.52-2.88-17.34-15.06-9.03 15.6-8.1z" fill="#70CDF2"/><path opacity=".4" fill-rule="evenodd" clip-rule="evenodd" d="m33.51 26.1 10.37 11.03 14.7-1.84-16.97 4.48-8.9-9.8z" fill="white"/><path fill-rule="evenodd" clip-rule="evenodd" d="m106.42 24.58-1.8-1.58-10.08 14.43-17.5-1.54L84.9 51.6l-9.31 14.07 1.82 1.59 17.32-2.23 13.24 11.54 2.94-17.73 15.06-9.04-1.8-1.58-13.8-6.52z" fill="#2B8DD6"/><path fill-rule="evenodd" clip-rule="evenodd" d="M104.62 23 92.11 35.32 74.6 33.78l7.86 15.73-6.88 16.16 17.38-2.6 13.24 11.52 2.9-17.34 15.06-9.03-15.6-8.1z" fill="#70CDF2"/><path opacity=".4" fill-rule="evenodd" clip-rule="evenodd" d="M103.45 26.1 93.08 37.13l-14.7-1.84 16.99 4.48 8.88-9.8z" fill="white"/></g><clipPath id="clip-b141be23"><rect width="200" height="200" rx="0" ry="0"/></clipPath></defs><g clip-path="url(#clip-b141be23)"><rect width="200" height="200" fill="#f6d594"/><use transform="translate(-1.06 79.3)scale(1.5625)" href="#mouth-drip-b141be23"/><use transform="matrix(1.55291 0 0 1.56067 -5.27 8.75)" href="#eyes-stars-b141be23"/></g></svg>