<svg xmlns="http://www.w3.org/2000/svg" viewBox="0 0 100 100" fill="none" shape-rendering="auto" aria-hidden="true"><metadata xmlns:rdf="http://www.w3.org/1999/02/22-rdf-syntax-ns#" xmlns:xsi="http://www.w3.org/2001/XMLSchema-instance" xmlns:dc="http://purl.org/dc/elements/1.1/" xmlns:dcterms="http://purl.org/dc/terms/"><rdf:RDF><rdf:Description><dc:title>Rings</dc:title><dc:creator>DiceBear</dc:creator><dc:source xsi:type="dcterms:URI">https://www.dicebear.com</dc:source><dcterms:license xsi:type="dcterms:URI">https://creativecommons.org/publicdomain/zero/1.0/</dcterms:license><dc:rights>“Rings” (https://www.dicebear.com) by “DiceBear”, licensed under “CC0 1.0” (https://creativecommons.org/publicdomain/zero/1.0/)</dc:rights></rdf:Description></rdf:RDF></metadata><defs><g id="ring01-eighth-b441c2dc"><path d="M21.716 21.716C14.476 28.954 10 38.955 10 50H0c0-13.807 5.596-26.307 14.645-35.355z" fill="#55bef1"/></g><g id="ring02-quarter-b441c2dc"><path d="M40 10c-16.568 0-30 13.432-30 30H0C0 17.909 17.909 0 40 0z" fill="#55bef1"/></g><g id="ring03-full-b441c2dc"><circle cx="30" cy="30" r="25" stroke="#55bef1" stroke-width="10"/></g><g id="ring04-eighth-b441c2dc"><path d="M12.929 12.93A9.97 9.97 0 0 0 9.999 20H0A19.94 19.94 0 0 1 5.857 5.858z" fill="#55bef1"/></g><g id="ring05-full-b441c2dc"><circle cx="10" cy="10" r="10" fill="#55bef1"/></g><g id="ring-container-b441c2dc"><use transform="rotate(140.8234, 50, 50)" href="#ring01-eighth-b441c2dc"/><use transform="translate(10 10) rotate(-163.1841, 40, 40)" href="#ring02-quarter-b441c2dc"/><use transform="translate(20 20) rotate(-2.7663, 30, 30)" href="#ring03-full-b441c2dc"/><use transform="translate(30 30) rotate(-82.4223, 20, 20)" href="#ring04-eighth-b441c2dc"/><use transform="translate(40 40) rotate(18.2071, 10, 10)" href="#ring05-full-b441c2dc"/><use transform="matrix(1 0 0 -1 0 100) rotate(140.8234, 50, 50)" href="#ring01-eighth-b441c2dc"/><use transform="matrix(1 0 0 -1 10 90) rotate(-163.1841, 40, 40)" href="#ring02-quarter-b441c2dc"/><use transform="matrix(1 0 0 -1 20 80) rotate(-2.7663, 30, 30)" href="#ring03-full-b441c2dc"/><use transform="matrix(1 0 0 -1 30 70) rotate(-82.4223, 20, 20)" href="#ring04-eighth-b441c2dc"/><use transform="matrix(1 0 0 -1 40 60) rotate(18.2071, 10, 10)" href="#ring05-full-b441c2dc"/><circle cx="50" cy="50" r="45" stroke="white" stroke-opacity=".25" stroke-width="10" style="mix-blend-mode:lighten"/><circle cx="50" cy="50" r="25" stroke="white" stroke-opacity=".25" stroke-width="10" style="mix-blend-mode:lighten"/><circle cx="50" cy="50" r="10" fill="white" fill-opacity=".25" style="mix-blend-mode:lighten"/></g><clipPath id="clip-b441c2dc"><rect width="100" height="100" rx="0" ry="0"/></clipPath></defs><g clip-path="url(#clip-b441c2dc)"><use transform="rotate(92.4522, 50, 50)" href="#ring-container-b441c2dc"/></g></svg>