<svg xmlns="http://www.w3.org/2000/svg" viewBox="0 0 100 100" fill="none" shape-rendering="auto" aria-hidden="true"><metadata xmlns:rdf="http://www.w3.org/1999/02/22-rdf-syntax-ns#" xmlns:xsi="http://www.w3.org/2001/XMLSchema-instance" xmlns:dc="http://purl.org/dc/elements/1.1/" xmlns:dcterms="http://purl.org/dc/terms/"><rdf:RDF><rdf:Description><dc:title>Shapes</dc:title><dc:creator>DiceBear</dc:creator><dc:source xsi:type="dcterms:URI">https://www.dicebear.com</dc:source><dcterms:license xsi:type="dcterms:URI">https://creativecommons.org/publicdomain/zero/1.0/</dcterms:license><dc:rights>“Shapes” (https://www.dicebear.com) by “DiceBear”, licensed under “CC0 1.0” (https://creativecommons.org/publicdomain/zero/1.0/)</dc:rights></rdf:Description></rdf:RDF></metadata><defs><g id="shape01-line-85707218"><rect x="45" width="10" height="400" fill="#0a5b83"/></g><g id="shape02-ellipseFilled-85707218"><path d="M100 200a50 50 0 1 1-100 0 50 50 0 0 1 100 0" fill="#1c799f"/></g><g id="shape03-polygon-85707218"><path fill-rule="evenodd" clip-rule="evenodd" d="M50 157 0 243.6h100zm0 20-32.7 56.6h65.4z" fill="#f88c49"/></g><clipPath id="clip-85707218"><rect width="100" height="100" rx="0" ry="0"/></clipPath></defs><g clip-path="url(#clip-85707218)"><rect width="100" height="100" fill="#69d2e7"/><use transform="matrix(1.2 0 0 1.2 -10 -190) translate(-19.468, 74.2216) rotate(-110.1902, 50, 200) translate(50, 200) scale(1.0909) translate(-50, -200)" href="#shape01-line-85707218"/><use transform="matrix(.8 0 0 .8 10 -110) translate(-11.9133, 15.2252) rotate(-125.323, 50, 200) translate(50, 200) scale(1.0054) translate(-50, -200)" href="#shape02-ellipseFilled-85707218"/><use transform="matrix(.4 0 0 .4 30 -30) translate(10.0279, -38.69) rotate(-133.3387, 50, 200) translate(50, 200) scale(1.0495) translate(-50, -200)" href="#shape03-polygon-85707218"/></g></svg>