<svg xmlns="http://www.w3.org/2000/svg" viewBox="0 0 200 200" fill="none" shape-rendering="auto" aria-hidden="true"><metadata xmlns:rdf="http://www.w3.org/1999/02/22-rdf-syntax-ns#" xmlns:xsi="http://www.w3.org/2001/XMLSchema-instance" xmlns:dc="http://purl.org/dc/elements/1.1/" xmlns:dcterms="http://purl.org/dc/terms/"><rdf:RDF><rdf:Description><dc:title>Fun Emoji Set</dc:title><dc:creator>Davis Uche</dc:creator><dc:source xsi:type="dcterms:URI">https://www.figma.com/community/file/968125295144990435</dc:source><dcterms:license xsi:type="dcterms:URI">https://creativecommons.org/licenses/by/4.0/</dcterms:license><dc:rights>Remix of “Fun Emoji Set” (https://www.figma.com/community/file/968125295144990435) by “Davis Uche”, licensed under “CC BY 4.0” (https://creativecommons.org/licenses/by/4.0/)</dc:rights></rdf:Description></rdf:RDF></metadata><defs><g id="mouth-lilSmile-172be6ba"><path d="M65.54 50.25h-.75c-9.7-.22-20.8-5.29-23.7-16.15a1.4 1.4 0 0 1 .44-1.55 1.4 1.4 0 0 1 2.26.86c2.55 9.46 12.42 13.9 21.06 14.08 8.24.16 19.04-3.84 22.46-14.57a1.5 1.5 0 0 1 1.65-.55q.47.15.75.52.3.38.3.86c-3.14 9.81-12.69 16.5-24.45 16.5" fill="black"/></g><g id="eyes-closed-172be6ba"><path d="M86.7 54q-.26 0-.5-.09a1.7 1.7 0 0 1-1-.84 1.8 1.8 0 0 1-.12-1.33 13.5 13.5 0 0 1 4.85-7.1A13 13 0 0 1 98 42c2.9-.03 5.73.9 8.06 2.67a13.6 13.6 0 0 1 4.87 7.07c.13.44.08.92-.13 1.33a1.7 1.7 0 0 1-2.3.73 1.7 1.7 0 0 1-.83-1.03c-.62-2.13-1.9-4-3.66-5.32a10 10 0 0 0-6.07-2 10 10 0 0 0-6.02 2.02 10.3 10.3 0 0 0-3.64 5.3q-.16.53-.6.87a1.7 1.7 0 0 1-.98.36m-60.99 0a1 1 0 0 1-.5-.1 1.7 1.7 0 0 1-1-.83 1.8 1.8 0 0 1-.13-1.33 13.6 13.6 0 0 1 4.85-7.08A13 13 0 0 1 37 42c2.9-.03 5.73.9 8.06 2.66a13.6 13.6 0 0 1 4.86 7.08 1.8 1.8 0 0 1-.53 1.85q-.27.23-.6.32a1.7 1.7 0 0 1-2.13-1.14c-.62-2.13-1.9-4-3.65-5.32a10 10 0 0 0-6.06-2 10 10 0 0 0-6.03 2 10.3 10.3 0 0 0-3.64 5.3q-.16.55-.6.89-.42.34-.97.36" fill="black"/></g><clipPath id="clip-172be6ba"><rect width="200" height="200" rx="0" ry="0"/></clipPath></defs><g clip-path="url(#clip-172be6ba)"><rect width="200" height="200" fill="#059ff2"/><use transform="translate(-1.06 79.3)scale(1.5625)" href="#mouth-lilSmile-172be6ba"/><use transform="matrix(1.55291 0 0 1.56067 -5.27 8.75)" href="#eyes-closed-172be6ba"/></g></svg>