<svg xmlns="http://www.w3.org/2000/svg" viewBox="0 0 200 200" fill="none" shape-rendering="auto" aria-hidden="true"><metadata xmlns:rdf="http://www.w3.org/1999/02/22-rdf-syntax-ns#" xmlns:xsi="http://www.w3.org/2001/XMLSchema-instance" xmlns:dc="http://purl.org/dc/elements/1.1/" xmlns:dcterms="http://purl.org/dc/terms/"><rdf:RDF><rdf:Description><dc:title>Fun Emoji Set</dc:title><dc:creator>Davis Uche</dc:creator><dc:source xsi:type="dcterms:URI">https://www.figma.com/community/file/968125295144990435</dc:source><dcterms:license xsi:type="dcterms:URI">https://creativecommons.org/licenses/by/4.0/</dcterms:license><dc:rights>Remix of “Fun Emoji Set” (https://www.figma.com/community/file/968125295144990435) by “Davis Uche”, licensed under “CC BY 4.0” (https://creativecommons.org/licenses/by/4.0/)</dc:rights></rdf:Description></rdf:RDF></metadata><defs><g id="mouth-drip-9d8c4de8"><path fill-rule="evenodd" clip-rule="evenodd" d="M46 49.25a19.88 19.88 0 0 1 39 0c-9.72-7.8-30.4-7.44-39 0" fill="#2B1607"/><path d="M45.58 49.8q-.15 0-.3-.1a.6.6 0 0 1-.24-.27.6.6 0 0 1-.02-.36c2.48-9.9 10.54-16.22 20.5-16.22S83.55 39.27 86 49.13q.04.18-.02.35a.6.6 0 0 1-.23.27.6.6 0 0 1-.7 0c-9.4-7.44-30.24-7.44-39.1 0a.6.6 0 0 1-.35.04M65.32 43c7.07 0 14.22 1.59 19.11 4.76a19 19 0 0 0-7.03-10 20 20 0 0 0-11.83-3.83 20 20 0 0 0-11.82 3.8 19 19 0 0 0-7.06 9.98c4.58-3.12 11.6-4.7 18.63-4.7" fill="black"/><path d="M90 61.27a5 5 0 0 1-1.42 3.5 5.04 5.04 0 0 1-7.08.08 5 5 0 0 1-1.5-3.47c0-3.94 3.16-5.8 4.84-12.13 1.53 6.15 5.12 7.66 5.16 12.02" fill="#4ABCF4"/></g><linearGradient id="eyesGlasses-a" x1="2356.45" y1="1595.87" x2="3644.99" y2="1595.87" gradientUnits="userSpaceOnUse"><stop stop-color="white" stop-opacity=".3"/><stop offset=".5" stop-color="#969696" stop-opacity=".2"/><stop offset="1" stop-color="white" stop-opacity=".3"/></linearGradient><linearGradient id="eyesGlasses-b" x1="2293.42" y1="1595.87" x2="3581.96" y2="1595.87" gradientUnits="userSpaceOnUse"><stop stop-color="white" stop-opacity=".3"/><stop offset=".5" stop-color="#969696" stop-opacity=".2"/><stop offset="1" stop-color="white" stop-opacity=".3"/></linearGradient><g id="eyes-glasses-9d8c4de8"><path d="M111 48.04c0-7.2-5.82-13.04-13-13.04s-13 5.84-13 13.04v3.92C85 59.16 90.82 65 98 65s13-5.84 13-13.04z" fill="black"/><path d="M93.79 44.53a2.29 2.29 0 1 0 0-4.57 2.29 2.29 0 0 0 0 4.57" fill="white"/><path opacity=".1" d="M98.02 53.35a5.32 5.32 0 1 0 0-10.65 5.32 5.32 0 0 0 0 10.65" fill="white"/><path d="M50 48.04C50 40.84 44.18 35 37 35s-13 5.84-13 13.04v3.92C24 59.16 29.82 65 37 65s13-5.84 13-13.04z" fill="black"/><path d="M32.79 44.53a2.29 2.29 0 1 0 0-4.57 2.29 2.29 0 0 0 0 4.57" fill="white"/><path opacity=".1" d="M37.02 53.35a5.32 5.32 0 1 0 0-10.65 5.32 5.32 0 0 0 0 10.65" fill="white"/><path d="M108.1 28.36H89.24c-6.82 0-12.34 5.5-12.34 12.3v18.8c0 6.78 5.52 12.29 12.34 12.29h18.88c6.8 0 12.34-5.5 12.34-12.3v-18.8c0-6.79-5.53-12.29-12.34-12.29" fill="url(#eyesGlasses-a)"/><path d="M45.08 28.36H26.2c-6.82 0-12.34 5.5-12.34 12.3v18.8c0 6.78 5.52 12.29 12.34 12.29h18.88c6.81 0 12.34-5.5 12.34-12.3v-18.8c0-6.79-5.53-12.29-12.34-12.29" fill="url(#eyesGlasses-b)"/><path d="M44.84 74.18H25.96a14.8 14.8 0 0 1-10.39-4.32 14.7 14.7 0 0 1-4.33-10.35V40.67a14.7 14.7 0 0 1 4.34-10.35A15 15 0 0 1 25.96 26h18.88c3.92.02 7.66 1.58 10.42 4.34a14.7 14.7 0 0 1 4.31 10.4v18.72a14.6 14.6 0 0 1-9.08 13.6q-2.7 1.11-5.65 1.12M25.96 30.8a10 10 0 0 0-9.17 6.09 10 10 0 0 0-.77 3.78v18.79a9.85 9.85 0 0 0 9.9 9.85h18.92a9.93 9.93 0 0 0 9.9-9.85v-18.8a9.87 9.87 0 0 0-9.9-9.86zm82.14 43.38H89.25a14.8 14.8 0 0 1-10.39-4.32 14.7 14.7 0 0 1-4.33-10.35V40.67a14.7 14.7 0 0 1 4.34-10.35A15 15 0 0 1 89.24 26h18.87c3.9.02 7.65 1.59 10.41 4.35s4.31 6.5 4.31 10.4v18.7c0 3.9-1.55 7.63-4.3 10.4a14.8 14.8 0 0 1-10.42 4.33M89.25 30.8a9.93 9.93 0 0 0-9.9 9.87v18.79a9.85 9.85 0 0 0 9.9 9.85h18.87a9.93 9.93 0 0 0 9.9-9.85v-18.8a9.85 9.85 0 0 0-9.9-9.86z" fill="black"/><path d="M76.89 44.7h-19.7v4.88h19.7zm56.49 7.67h-12.93a2.46 2.46 0 0 1-2.27-2.44 2.44 2.44 0 0 1 2.27-2.44h12.93a2.47 2.47 0 0 1 2.27 2.44 2.45 2.45 0 0 1-2.27 2.44m-119.76 0H2.27A2.46 2.46 0 0 1 0 49.93a2.44 2.44 0 0 1 2.27-2.44h11.35a2.46 2.46 0 0 1 2.27 2.44 2.44 2.44 0 0 1-2.27 2.44" fill="black"/></g><clipPath id="clip-9d8c4de8"><rect width="200" height="200" rx="0" ry="0"/></clipPath></defs><g clip-path="url(#clip-9d8c4de8)"><rect width="200" height="200" fill="#f6d594"/><use transform="translate(-1.06 79.3)scale(1.5625)" href="#mouth-drip-9d8c4de8"/><use transform="matrix(1.55291 0 0 1.56067 -5.27 8.75)" href="#eyes-glasses-9d8c4de8"/></g></svg>