<svg xmlns="http://www.w3.org/2000/svg" viewBox="0 0 180 180" fill="none" shape-rendering="auto" aria-hidden="true"><metadata xmlns:rdf="http://www.w3.org/1999/02/22-rdf-syntax-ns#" xmlns:xsi="http://www.w3.org/2001/XMLSchema-instance" xmlns:dc="http://purl.org/dc/elements/1.1/" xmlns:dcterms="http://purl.org/dc/terms/"><rdf:RDF><rdf:Description><dc:title>Bottts</dc:title><dc:creator>Pablo Stanley</dc:creator><dc:source xsi:type="dcterms:URI">https://bottts.com/</dc:source><dcterms:license xsi:type="dcterms:URI">https://bottts.com/</dcterms:license><dc:rights>Remix of “Bottts” (https://bottts.com/) by “Pablo Stanley”, licensed under “Free for personal and commercial use” (https://bottts.com/)</dc:rights></rdf:Description></rdf:RDF></metadata><defs><g id="sides-cables01-cd47f5d7"><path d="M32 12c-2.95 11.7-19.9 6.67-23.37 18-3.46 11.35 8.03 20 17.53 20" stroke="#2A3544" stroke-width="6" opacity=".9"/><path d="M144 55c8.4 3.49 20.1-7.6 16-16.5s-16-6.7-16-19.3" stroke="#2A3544" stroke-width="4" opacity=".9"/><mask id="sidesCables01-a" style="mask-type:luminance"><rect x="15" y="35" width="16" height="22" rx="2" fill="white"/><rect x="130" y="42" width="23" height="22" rx="2" fill="white"/><rect x="130" y="6" width="23" height="18" rx="2" fill="white"/></mask><g mask="url(#sidesCables01-a)"><path d="M-6 0h180v76H-6z" fill="#b18911"/><path d="M-6 0h180v76H-6z" fill="white" fill-opacity=".3"/></g></g><g id="top-bulb01-cd47f5d7"><mask id="topBulb01-a" style="mask-type:luminance"><path fill-rule="evenodd" clip-rule="evenodd" d="M24 16.6a16 16 0 0 1 16-16h4a16 16 0 0 1 16 16v16a8 8 0 0 1-8 8H32a8 8 0 0 1-8-8z" fill="white"/><rect x="14" y="40.59" width="56" height="12" rx="1" fill="white"/></mask><g mask="url(#topBulb01-a)"><path d="M-8 .6H92v52H-8z" fill="#b18911"/><path d="M-8 .6H92v52H-8z" fill="white" fill-opacity=".3"/><rect x="12" y="-2.41" width="60" height="43" fill="white" fill-opacity=".4"/><path d="M41 4.1c4.93 0 9.37 2.12 12.44 5.51" stroke="white" stroke-width="2" stroke-linecap="round"/><path d="M54.14 20.42 44 30.57v10.02h-4V30.42l-10-10 2.83-2.83 9 9h.48l9.02-9z" fill="white" fill-opacity=".8"/></g></g><g id="texture-dots-cd47f5d7"><path d="M51.4 123.8a2.1 2.1 0 1 1 0 4.2 2.1 2.1 0 0 1 0-4.2m12.6 0a2.1 2.1 0 1 1 0 4.2 2.1 2.1 0 0 1 0-4.2m12.6 0a2.1 2.1 0 1 1 0 4.2 2.1 2.1 0 0 1 0-4.2m-31.5-6.32a2.1 2.1 0 1 1 0 4.2 2.1 2.1 0 0 1 0-4.2m12.6 0a2.1 2.1 0 1 1 0 4.2 2.1 2.1 0 0 1 0-4.2m12.6 0a2.1 2.1 0 1 1 0 4.2 2.1 2.1 0 0 1 0-4.2m12.6 0a2.1 2.1 0 1 1 0 4.2 2.1 2.1 0 0 1 0-4.2m-31.5-6.31a2.1 2.1 0 1 1 0 4.2 2.1 2.1 0 0 1 0-4.2m12.6 0a2.1 2.1 0 1 1 0 4.2 2.1 2.1 0 0 1 0-4.2m13.1-.17a2.1 2.1 0 1 1 0 4.2 2.1 2.1 0 0 1 0-4.2m13 0a2.1 2.1 0 1 1 0 4.2 2.1 2.1 0 0 1 0-4.2m-20-6a2.1 2.1 0 1 1 0 4.2 2.1 2.1 0 0 1 0-4.2m24 0a2.1 2.1 0 1 1 0 4.2 2.1 2.1 0 0 1 0-4.2m-49-.14a2.1 2.1 0 1 1 0 4.2 2.1 2.1 0 0 1 0-4.2m12.6 0a2.1 2.1 0 1 1 0 4.2 2.1 2.1 0 0 1 0-4.2m25.2 0a2.1 2.1 0 1 1 0 4.2 2.1 2.1 0 0 1 0-4.2m-31.5-6.31a2.1 2.1 0 1 1 0 4.2 2.1 2.1 0 0 1 0-4.2m12.6 0a2.1 2.1 0 1 1 0 4.2 2.1 2.1 0 0 1 0-4.2m12.6 0a2.1 2.1 0 1 1 0 4.2 2.1 2.1 0 0 1 0-4.2m-31.5-6.31a2.1 2.1 0 1 1 0 4.2 2.1 2.1 0 0 1 0-4.2m12.6 0a2.1 2.1 0 1 1 0 4.2 2.1 2.1 0 0 1 0-4.2m12.6 0a2.1 2.1 0 1 1 0 4.2 2.1 2.1 0 0 1 0-4.2m12.6 0a2.1 2.1 0 1 1 0 4.2 2.1 2.1 0 0 1 0-4.2m-31.5-6.3a2.1 2.1 0 1 1 0 4.2 2.1 2.1 0 0 1 0-4.2m12.6 0a2.1 2.1 0 1 1 0 4.2 2.1 2.1 0 0 1 0-4.2m12.6 0a2.1 2.1 0 1 1 0 4.2 2.1 2.1 0 0 1 0-4.2m-31.5-6.32a2.1 2.1 0 1 1 0 4.2 2.1 2.1 0 0 1 0-4.2m12.6 0a2.1 2.1 0 1 1 0 4.2 2.1 2.1 0 0 1 0-4.2m12.6 0a2.1 2.1 0 1 1 0 4.2 2.1 2.1 0 0 1 0-4.2m12.6 0a2.1 2.1 0 1 1 0 4.2 2.1 2.1 0 0 1 0-4.2M51.4 73.3a2.1 2.1 0 1 1 0 4.2 2.1 2.1 0 0 1 0-4.2m12.6 0a2.1 2.1 0 1 1 0 4.2 2.1 2.1 0 0 1 0-4.2m12.6 0a2.1 2.1 0 1 1 0 4.2 2.1 2.1 0 0 1 0-4.2M57.7 67a2.1 2.1 0 1 1 0 4.2 2.1 2.1 0 0 1 0-4.2m12.6 0a2.1 2.1 0 1 1 0 4.2 2.1 2.1 0 0 1 0-4.2" fill="black" fill-opacity=".2"/><path d="M154 62.8a2.1 2.1 0 1 1 0 4.2 2.1 2.1 0 0 1 0-4.2m12.6 0a2.1 2.1 0 1 1 0 4.2 2.1 2.1 0 0 1 0-4.2m-18.9-6.32a2.1 2.1 0 1 1 0 4.2 2.1 2.1 0 0 1 0-4.2m25.2 0a2.1 2.1 0 1 1 0 4.2 2.1 2.1 0 0 1 0-4.2m-31.5-6.3a2.1 2.1 0 1 1 0 4.2 2.1 2.1 0 0 1 0-4.2m12.6 0a2.1 2.1 0 1 1 0 4.2 2.1 2.1 0 0 1 0-4.2m12.6 0a2.1 2.1 0 1 1 0 4.2 2.1 2.1 0 0 1 0-4.2m-18.9-6.32a2.1 2.1 0 1 1 0 4.2 2.1 2.1 0 0 1 0-4.2m12.6 0a2.1 2.1 0 1 1 0 4.2 2.1 2.1 0 0 1 0-4.2m12.6 0a2.1 2.1 0 1 1 0 4.2 2.1 2.1 0 0 1 0-4.2m-31.5-6.31a2.1 2.1 0 1 1 0 4.2 2.1 2.1 0 0 1 0-4.2m12.6 0a2.1 2.1 0 1 1 0 4.2 2.1 2.1 0 0 1 0-4.2m12.6 0a2.1 2.1 0 1 1 0 4.2 2.1 2.1 0 0 1 0-4.2m-31.5-6.3a2.1 2.1 0 1 1 0 4.19 2.1 2.1 0 0 1 0-4.2m12.6 0a2.1 2.1 0 1 1 0 4.2 2.1 2.1 0 0 1 0-4.2m12.6 0a2.1 2.1 0 1 1 0 4.2 2.1 2.1 0 0 1 0-4.2m12.6 0a2.1 2.1 0 1 1 0 4.2 2.1 2.1 0 0 1 0-4.2m-31.5-6.3a2.1 2.1 0 1 1 0 4.19 2.1 2.1 0 0 1 0-4.2m12.6 0a2.1 2.1 0 1 1 0 4.2 2.1 2.1 0 0 1 0-4.2m12.6 0a2.1 2.1 0 1 1 0 4.2 2.1 2.1 0 0 1 0-4.2m-31.5-6.3a2.1 2.1 0 1 1 0 4.2 2.1 2.1 0 0 1 0-4.2m12.6 0a2.1 2.1 0 1 1 0 4.2 2.1 2.1 0 0 1 0-4.2m12.6 0a2.1 2.1 0 1 1 0 4.2 2.1 2.1 0 0 1 0-4.2m12.6 0a2.1 2.1 0 1 1 0 4.2 2.1 2.1 0 0 1 0-4.2m-31.5-6.32a2.1 2.1 0 1 1 0 4.23 2.1 2.1 0 0 1 0-4.2m12.6 0a2.1 2.1 0 1 1 0 4.2 2.1 2.1 0 0 1 0-4.2m12.6 0a2.1 2.1 0 1 1 0 4.2 2.1 2.1 0 0 1 0-4.2M147.7 6a2.1 2.1 0 1 1 0 4.2 2.1 2.1 0 0 1 0-4.2m12.6 0a2.1 2.1 0 1 1 0 4.2 2.1 2.1 0 0 1 0-4.2" fill="black" fill-opacity=".1"/></g><g id="head-square01-cd47f5d7"><mask id="headSquare01-a" style="mask-type:luminance"><rect width="130" height="120" rx="18" fill="white"/></mask><g mask="url(#headSquare01-a)"><path d="M-2-2h134v124H-2z" fill="#b18911"/><use transform="translate(-44 -7)" href="#texture-dots-cd47f5d7"/></g></g><g id="mouth-square01-cd47f5d7"><rect x="20" y="2" width="27" height="8" rx="4" fill="black" fill-opacity=".8"/></g><g id="eyes-roundFrame01-cd47f5d7"><rect y="12" width="104" height="32" rx="16" fill="black" fill-opacity=".8"/><rect x="24" y="22" width="10" height="12" rx="2" fill="#F4F4F4"/><rect x="70" y="22" width="10" height="12" rx="2" fill="#F4F4F4"/></g><clipPath id="clip-cd47f5d7"><rect width="180" height="180" rx="0" ry="0"/></clipPath></defs><g clip-path="url(#clip-cd47f5d7)"><use transform="translate(6 66)" href="#sides-cables01-cd47f5d7"/><use transform="translate(49 -.6)" href="#top-bulb01-cd47f5d7"/><use transform="translate(25 44)" href="#head-square01-cd47f5d7"/><use transform="translate(56 128)" href="#mouth-square01-cd47f5d7"/><use transform="translate(38 76)" href="#eyes-roundFrame01-cd47f5d7"/></g></svg>